<?xml version="1.0" encoding="utf-8"?>
<!-- Generator: Adobe Illustrator 24.0.1, SVG Export Plug-In . SVG Version: 6.00 Build 0)  -->
<svg version="1.1" id="Layer_1" xmlns="http://www.w3.org/2000/svg" xmlns:xlink="http://www.w3.org/1999/xlink" x="0px" y="0px"
	 viewBox="0 0 30 30" style="enable-background:new 0 0 30 30;" xml:space="preserve">
<style type="text/css">
	.st0{fill-rule:evenodd;clip-rule:evenodd;fill:#3CA7FC;}
	.st1{fill-rule:evenodd;clip-rule:evenodd;fill:#FFFFFF;}
</style>
<path id="path4" class="st0" d="M15,0c8.28,0,15,6.72,15,15s-6.72,15-15,15S0,23.28,0,15S6.72,0,15,0z"/>
<path id="path6" class="st1" d="M20.36,20.32l-1.18-1.18c2.28-2.27,2.3-5.97,0.03-8.25c-2.27-2.29-5.97-2.3-8.25-0.03
	c-2.28,2.27-2.3,5.97-0.03,8.25l-1.18,1.18C6.83,17.35,6.85,12.6,9.79,9.68c2.94-2.92,7.69-2.91,10.61,0.03
	C23.31,12.65,23.3,17.4,20.36,20.32z M13.73,16.9c-0.58-0.72-0.46-1.77,0.25-2.35c0.72-0.58,3.64-0.79,3.64-0.79
	s-0.83,2.81-1.55,3.39C15.36,17.73,14.31,17.62,13.73,16.9L13.73,16.9z M7.95,7.9C4.03,11.8,4.01,18.13,7.91,22.05
	c3.89,3.92,10.23,3.94,14.14,0.04c3.92-3.89,3.94-10.23,0.04-14.14C18.2,4.04,11.87,4.02,7.95,7.9z"/>
</svg>
