<?xml version="1.0" encoding="UTF-8" standalone="no"?>
<!-- Generator: Adobe Illustrator 20.0.0, SVG Export Plug-In . SVG Version: 6.00 Build 0)  -->

<svg
   version="1.1"
   id="Calque_1"
   x="0px"
   y="0px"
   viewBox="0 0 130 50"
   style="enable-background:new 0 0 130 50;"
   xml:space="preserve"
   sodipodi:docname="bforbank.svg"
   inkscape:version="1.1 (c4e8f9e, 2021-05-24)"
   xmlns:inkscape="http://www.inkscape.org/namespaces/inkscape"
   xmlns:sodipodi="http://sodipodi.sourceforge.net/DTD/sodipodi-0.dtd"
   xmlns:xlink="http://www.w3.org/1999/xlink"
   xmlns="http://www.w3.org/2000/svg"
   xmlns:svg="http://www.w3.org/2000/svg"><defs
   id="defs2339" /><sodipodi:namedview
   id="namedview2337"
   pagecolor="#ffffff"
   bordercolor="#666666"
   borderopacity="1.0"
   inkscape:pageshadow="2"
   inkscape:pageopacity="0.0"
   inkscape:pagecheckerboard="0"
   showgrid="false"
   inkscape:zoom="8.4384615"
   inkscape:cx="65"
   inkscape:cy="25.004558"
   inkscape:window-width="2048"
   inkscape:window-height="1022"
   inkscape:window-x="0"
   inkscape:window-y="25"
   inkscape:window-maximized="1"
   inkscape:current-layer="Calque_1" />
<style
   type="text/css"
   id="style2298">
	.st0{fill:#41352E;}
	.st1{clip-path:url(#SVGID_2_);fill:#FFFFFF;}
	.st2{fill:#FFFFFF;}
	.st3{clip-path:url(#SVGID_4_);fill:#FFFFFF;}
	.st4{clip-path:url(#SVGID_6_);fill:#41352E;}
	.st5{clip-path:url(#SVGID_8_);fill:#41352E;}
</style>

<g
   id="g2334"
   style="fill:#41352e;fill-opacity:1">
	<g
   id="g2312"
   style="fill:#41352e;fill-opacity:1">
		<defs
   id="defs2303">
			<rect
   id="SVGID_1_"
   x="-4.9"
   y="-7.5"
   width="140.3"
   height="65.1" />
		</defs>
		<clipPath
   id="SVGID_2_">
			<use
   xlink:href="#SVGID_1_"
   style="overflow:visible;"
   id="use2305" />
		</clipPath>
		<path
   class="st1"
   d="M27.2,16.5h-0.9c-2.9,0-5,0.3-5,3.6c0,3.4,2.3,3.7,5,3.7h0.9V16.5z M27.2,25.8h-2.1c-2.6,0-5.8,0.5-5.8,3.8    c0,3.3,2.8,4,5.5,4h2.4V25.8z M29.6,35.9h-5c-4.3,0-7.7-1.7-7.7-6c0-2.6,1.5-4.9,4.1-5.5c-1.5-1-2.1-2.5-2.1-4.2    c0-4.4,3.3-5.8,7.2-5.8h3.5V35.9z"
   clip-path="url(#SVGID_2_)"
   id="path2308"
   style="fill:#41352e;fill-opacity:1" />
		<path
   class="st1"
   d="M44.2,33.6h2.4c2.7,0,5.5-0.7,5.5-4c0-3.4-3.2-3.8-5.8-3.8h-2.1V33.6z M44.2,23.8h0.9c2.7,0,5-0.3,5-3.7    c0-3.3-2.1-3.6-5-3.6h-0.9V23.8z M41.8,14.3h3.5c3.9,0,7.2,1.4,7.2,5.8c0,1.7-0.7,3.2-2.1,4.2c2.6,0.6,4.1,3,4.1,5.5    c0,4.3-3.5,6-7.7,6h-5V14.3z"
   clip-path="url(#SVGID_2_)"
   id="path2310"
   style="fill:#41352e;fill-opacity:1" />
	</g>
	<path
   class="st2"
   d="M64.3,18.8l-3.7,8.7h7.3L64.3,18.8z M59.6,29.7L57,35.9h-2.6l10-22.6L74,35.9h-2.7l-2.5-6.1H59.6z"
   id="path2314"
   style="fill:#41352e;fill-opacity:1" />
	<polygon
   class="st2"
   points="75.4,13.3 92.2,31 92.2,14.3 94.6,14.3 94.6,36.8 77.8,19.2 77.8,35.9 75.4,35.9  "
   id="polygon2316"
   style="fill:#41352e;fill-opacity:1" />
	<polygon
   class="st2"
   points="110.1,14.3 113.3,14.3 103.2,24.3 113.7,35.9 110.3,35.9 101.5,25.9 100.9,26.5 100.9,35.9 98.5,35.9    98.5,14.3 100.9,14.3 100.9,23.5  "
   id="polygon2318"
   style="fill:#41352e;fill-opacity:1" />
	<polygon
   class="st2"
   points="31.9,34.8 34.7,34.8 34.7,31.7 35.7,31.7 35.7,34.8 40.4,34.8 40.4,35.9 31,35.9 31,31.6 31.9,31.6     "
   id="polygon2320"
   style="fill:#41352e;fill-opacity:1" />
	<g
   id="g2332"
   style="fill:#41352e;fill-opacity:1">
		<defs
   id="defs2323">
			<rect
   id="SVGID_3_"
   x="-4.9"
   y="-7.5"
   width="140.3"
   height="65.1" />
		</defs>
		<clipPath
   id="SVGID_4_">
			<use
   xlink:href="#SVGID_3_"
   style="overflow:visible;"
   id="use2325" />
		</clipPath>
		<path
   class="st3"
   d="M35.7,29.5c2.1,0,3.9-1.7,3.9-3.9s-1.8-3.9-3.9-3.9c-2.1,0-3.9,1.7-3.9,3.9S33.5,29.5,35.7,29.5 M35.7,20.8    c2.7,0,4.9,2.2,4.9,4.9s-2.1,4.9-4.9,4.9c-2.7,0-4.9-2.2-4.9-4.9S33,20.8,35.7,20.8"
   clip-path="url(#SVGID_4_)"
   id="path2328"
   style="fill:#41352e;fill-opacity:1" />
		<path
   class="st3"
   d="M35.3,18.5v-0.3c0-1.2-0.2-2.4-1.7-2.4c-1.5,0-1.7,1.1-1.7,2.4v0.3H35.3z M40.4,18.5v1.1H31v-1.4    c0-1.8,0.5-3.5,2.6-3.5c1.4,0,2.5,0.9,2.6,2.4l4.2-3v1.3l-4.1,2.9v0.3H40.4z"
   clip-path="url(#SVGID_4_)"
   id="path2330"
   style="fill:#41352e;fill-opacity:1" />
	</g>
</g>
</svg>
