<?xml version="1.0" encoding="UTF-8" standalone="no"?>
<svg
   xmlns:dc="http://purl.org/dc/elements/1.1/"
   xmlns:cc="http://creativecommons.org/ns#"
   xmlns:rdf="http://www.w3.org/1999/02/22-rdf-syntax-ns#"
   xmlns:svg="http://www.w3.org/2000/svg"
   xmlns="http://www.w3.org/2000/svg"
   xmlns:sodipodi="http://sodipodi.sourceforge.net/DTD/sodipodi-0.dtd"
   xmlns:inkscape="http://www.inkscape.org/namespaces/inkscape"
   inkscape:version="1.0 (4035a4f, 2020-05-01)"
   sodipodi:docname="boursorama.svg"
   viewBox="0 0 801.33331 205.33333"
   height="205.33333"
   width="801.33331"
   xml:space="preserve"
   id="svg46"
   version="1.1"><metadata
     id="metadata52"><rdf:RDF><cc:Work
         rdf:about=""><dc:format>image/svg+xml</dc:format><dc:type
           rdf:resource="http://purl.org/dc/dcmitype/StillImage" /><dc:title></dc:title></cc:Work></rdf:RDF></metadata><defs
     id="defs50"><clipPath
       id="clipPath62"
       clipPathUnits="userSpaceOnUse"><path
         id="path60"
         d="M 0,154 H 601 V 0 H 0 Z" /></clipPath></defs><sodipodi:namedview
     inkscape:current-layer="g54"
     inkscape:window-maximized="0"
     inkscape:window-y="23"
     inkscape:window-x="0"
     inkscape:cy="102.66666"
     inkscape:cx="400.66666"
     inkscape:zoom="0.60634397"
     showgrid="false"
     id="namedview48"
     inkscape:window-height="480"
     inkscape:window-width="861"
     inkscape:pageshadow="2"
     inkscape:pageopacity="0"
     guidetolerance="10"
     gridtolerance="10"
     objecttolerance="10"
     borderopacity="1"
     bordercolor="#666666"
     pagecolor="#ffffff" /><g
     transform="matrix(1.3333333,0,0,-1.3333333,0,205.33333)"
     inkscape:label="boursorama-banque-seeklogo.com"
     inkscape:groupmode="layer"
     id="g54"><g
       id="g56"><g
         clip-path="url(#clipPath62)"
         id="g58"><g
           transform="translate(66.2998,102.623)"
           id="g64"><path
             id="path66"
             style="fill:#ec107a;fill-opacity:1;fill-rule:nonzero;stroke:none"
             d="m 0,0 c -7.717,0.014 -15.435,0.003 -23.152,0.052 -3.435,0.022 -6.873,-0.182 -10.305,0.193 -8.908,0.972 -16.337,8.211 -17.53,17.115 -0.031,0.232 -0.128,0.454 -0.194,0.681 v 3.6 c 0.06,0.187 0.147,0.37 0.176,0.562 1.21,8.01 5.789,13.274 13.209,16.232 1.565,0.624 3.237,0.8 4.855,1.206 h 78.24 C 45.21,39.573 45.129,39.458 45.033,39.444 39.717,38.702 35.527,36.022 32.132,31.968 31.949,31.815 31.754,31.676 31.587,31.509 21.291,21.22 10.998,10.929 0.707,0.635 0.54,0.468 0.404,0.27 0.253,0.087 0.169,0.058 0.084,0.029 0,0" /></g><g
           transform="translate(98.4316,134.5909)"
           id="g68"><path
             id="path70"
             style="fill:#254181;fill-opacity:1;fill-rule:nonzero;stroke:none"
             d="m 0,0 c 3.395,4.054 7.586,6.734 12.901,7.477 0.096,0.013 0.178,0.128 0.266,0.196 h 5.04 c 0.914,-0.23 1.84,-0.42 2.74,-0.697 8.101,-2.489 12.77,-8.002 14.297,-16.272 0.306,-1.661 0.28,-3.333 0.213,-5.009 -0.323,-0.411 -0.202,-0.92 -0.288,-1.379 -0.963,-5.143 -3.906,-9.043 -7.726,-12.401 -0.391,0.008 -0.713,-0.094 -0.821,-0.527 0,0 0.047,0.005 0.046,0.006 -0.401,0.087 -0.691,-0.162 -0.986,-0.35 -3.01,-1.91 -6.354,-2.857 -9.859,-2.921 -6.631,-0.121 -13.267,-0.027 -19.9,-0.022 0,0 -0.009,0.007 -0.009,0.007 -0.002,6.382 -0.041,12.764 0.014,19.145 0.023,2.754 0.52,5.442 1.527,8.038 C -1.891,-3.022 -0.862,-1.562 0,0" /></g><g
           transform="translate(179.5551,127.6241)"
           id="g72"><path
             id="path74"
             style="fill:#ec107a;fill-opacity:1;fill-rule:nonzero;stroke:none"
             d="m 0,0 c 0,-1.637 -0.006,-3.275 0.005,-4.912 0.002,-0.369 -0.141,-0.878 0.499,-0.874 2.705,0.017 5.446,-0.23 8.027,0.88 1.86,0.8 2.854,2.233 2.967,4.264 C 11.672,2.504 9.899,4.64 6.62,5.271 4.719,5.638 2.799,5.449 0.888,5.537 0.088,5.574 -0.03,5.232 -0.013,4.553 0.027,3.036 0,1.518 0,0 m 0,-21.921 c 0,-1.959 0.031,-3.919 -0.016,-5.877 -0.019,-0.764 0.177,-1.054 0.991,-1.021 1.557,0.064 3.119,-0.019 4.677,0.029 1.925,0.059 3.819,0.333 5.593,1.149 1.565,0.719 2.676,1.838 3.156,3.542 1.038,3.68 -0.596,6.922 -4.207,8.272 -3.123,1.168 -6.386,0.792 -9.609,0.841 -0.692,0.01 -0.582,-0.512 -0.583,-0.938 C -0.003,-17.923 0,-19.922 0,-21.921 M 5.723,14.64 c 1.559,-0.241 3.129,-0.421 4.674,-0.732 7.518,-1.515 12.413,-9.314 10.47,-16.603 -0.778,-2.919 -2.677,-4.935 -5.24,-6.546 0.276,-0.142 0.463,-0.263 0.667,-0.34 5.181,-1.97 7.678,-5.908 8.101,-11.26 0.673,-8.524 -4.771,-15.279 -13.203,-16.611 -3.579,-0.566 -7.17,-0.488 -10.765,-0.503 -2.959,-0.012 -5.92,0.059 -8.876,-0.033 -1.162,-0.036 -1.354,0.37 -1.352,1.416 0.03,16.595 0.021,33.19 0.017,49.786 -10e-4,0.475 -0.061,0.951 -0.093,1.426 z" /></g><g
           transform="translate(33.3585,142.2639)"
           id="g76"><path
             id="path78"
             style="fill:#fffdfe;fill-opacity:1;fill-rule:nonzero;stroke:none"
             d="m 0,0 c -1.617,-0.406 -3.29,-0.582 -4.855,-1.206 -7.419,-2.958 -11.998,-8.222 -13.209,-16.232 -0.029,-0.192 -0.116,-0.375 -0.176,-0.562 0,5.76 0.011,11.52 -0.016,17.28 -0.002,0.6 0.136,0.738 0.736,0.736 C -11.68,-0.01 -5.84,0 0,0" /></g><g
           transform="translate(125.8748,106.5063)"
           id="g80"><path
             id="path82"
             style="fill:#ec107a;fill-opacity:1;fill-rule:nonzero;stroke:none"
             d="m 0,0 c 3.82,3.358 6.762,7.257 7.726,12.4 0.086,0.459 -0.035,0.969 0.287,1.38 0.023,-0.318 0.065,-0.635 0.065,-0.953 0.003,-25.036 0.019,-50.071 -0.006,-75.106 -0.009,-9.216 -5.48,-16.999 -13.776,-19.768 -11,-3.673 -23.052,3.505 -25.359,15.108 -0.305,1.531 -0.464,3.075 -0.462,4.641 0.01,9.678 0.006,19.357 0.003,29.035 0,0.479 -0.031,0.957 -0.048,1.436 0.046,0.064 0.086,0.133 0.119,0.205 9.261,9.255 18.54,18.494 27.761,27.788 1.027,1.035 2.278,1.917 2.916,3.312 0,0 -0.047,-0.006 -0.047,-0.005 C -0.298,-0.741 -0.245,-0.221 0,0" /></g><g
           transform="translate(94.4238,74.8847)"
           id="g84"><path
             id="path86"
             style="fill:#38a3e1;fill-opacity:1;fill-rule:nonzero;stroke:none"
             d="M 0,0 C -0.033,-0.073 -0.073,-0.141 -0.119,-0.206 -0.47,-0.53 -0.832,-0.843 -1.17,-1.181 c -14.673,-14.67 -29.339,-29.347 -44.018,-44.01 -7.265,-7.257 -18.694,-8.064 -26.682,-1.909 -0.631,0.486 -1.261,0.98 -1.727,1.644 0.361,0.312 0.742,0.602 1.078,0.938 23.769,23.762 47.534,47.528 71.297,71.296 0.308,0.308 0.578,0.653 0.866,0.981 0.093,0.019 0.185,0.037 0.277,0.056 0,0 0.009,-0.008 0.009,-0.008 C -0.075,18.774 -0.081,9.742 -0.082,0.709 -0.082,0.473 -0.029,0.236 0,0" /></g><g
           transform="translate(94.0682,102.6441)"
           id="g88"><path
             id="path90"
             style="fill:#44c3ef;fill-opacity:1;fill-rule:nonzero;stroke:none"
             d="m 0,0 c -0.288,-0.328 -0.559,-0.673 -0.867,-0.982 -23.762,-23.768 -47.528,-47.533 -71.296,-71.295 -0.336,-0.336 -0.718,-0.626 -1.078,-0.938 -3.875,3.796 -5.538,8.491 -5.484,13.826 0.057,5.662 2.197,10.502 6.171,14.488 14.587,14.626 29.206,29.22 43.81,43.829 0.338,0.337 0.651,0.7 0.975,1.051 0.085,0.029 0.169,0.058 0.253,0.086 0.478,-0.015 0.955,-0.043 1.433,-0.043 C -17.389,0.012 -8.694,0.007 0,0" /></g><g
           transform="translate(493.8824,126.0219)"
           id="g92"><path
             id="path94"
             style="fill:#ec107a;fill-opacity:1;fill-rule:nonzero;stroke:none"
             d="m 0,0 c 4.787,5.596 13.98,5.533 18.689,1.689 0.965,-0.787 1.876,-1.631 2.586,-2.654 0.421,-0.608 0.654,-0.597 1.099,-0.003 5.282,7.052 16.626,6.393 21.796,2.704 3.583,-2.556 5.278,-6.201 6.017,-10.395 0.305,-1.734 0.394,-3.491 0.393,-5.252 -10e-4,-7.039 -0.02,-14.079 0.022,-21.118 0.006,-1.006 -0.175,-1.402 -1.292,-1.355 -2.316,0.096 -4.64,0.08 -6.958,0.005 -1.016,-0.032 -1.352,0.185 -1.343,1.292 0.059,6.959 0.046,13.918 0.02,20.878 -0.007,2.044 -0.248,4.067 -1.118,5.958 -1.17,2.54 -3.171,3.798 -5.957,3.895 -2.956,0.102 -5.358,-0.824 -6.767,-3.586 -1.23,-2.412 -1.497,-5.034 -1.503,-7.689 -0.013,-6.52 -0.025,-13.039 0.019,-19.558 0.006,-0.964 -0.277,-1.211 -1.208,-1.187 -2.398,0.062 -4.8,0.061 -7.198,0 -0.915,-0.023 -1.211,0.196 -1.205,1.17 0.045,6.919 0.031,13.839 0.02,20.758 -0.003,2.052 -0.263,4.065 -1.13,5.958 -1.366,2.977 -3.832,4.321 -7.546,4.113 -2.838,-0.159 -4.733,-1.739 -5.738,-4.801 -0.68,-2.073 -0.88,-4.226 -0.892,-6.384 -0.036,-6.559 -0.03,-13.119 0.008,-19.678 0.005,-0.89 -0.218,-1.161 -1.126,-1.137 -2.479,0.064 -4.96,0.054 -7.439,0.003 -0.804,-0.016 -1.012,0.244 -1.011,1.018 0.02,12.519 0.021,25.038 -10e-4,37.557 -0.002,0.817 0.291,1.013 1.049,0.999 2.199,-0.04 4.4,-0.055 6.599,0.005 C -0.21,3.23 0.118,2.947 0.013,2.048 -0.055,1.472 0,0.881 0,0" /></g><g
           transform="translate(179.5621,61.2272)"
           id="g96"><path
             id="path98"
             style="fill:#274282;fill-opacity:1;fill-rule:nonzero;stroke:none"
             d="m 0,0 c 0,-1.639 0.005,-3.277 -0.003,-4.916 -0.002,-0.43 0.006,-0.801 0.601,-0.793 2.391,0.031 4.802,-0.156 7.132,0.582 1.676,0.531 3.002,1.463 3.537,3.256 C 12.205,1.271 10.784,4.011 7.661,5.05 5.324,5.828 2.909,5.463 0.524,5.531 -0.106,5.549 0.004,5.058 0.002,4.676 -0.003,3.117 0,1.559 0,0 m 0,-21.683 c 0,-2.079 0.018,-4.158 -0.011,-6.237 -0.009,-0.617 0.18,-0.858 0.814,-0.837 1.158,0.036 2.319,-0.007 3.478,0.013 2.283,0.039 4.553,0.164 6.701,1.063 1.81,0.758 3.026,2.03 3.505,3.963 0.952,3.838 -1.111,7.139 -5.168,8.262 -2.865,0.792 -5.798,0.446 -8.706,0.533 C -0.098,-14.902 0,-15.371 0,-15.805 c 0,-1.959 0,-3.918 0,-5.878 m 15.651,12.426 c 3.43,-1.189 6.062,-3.145 7.454,-6.369 3.618,-8.377 0.018,-18.85 -10.316,-21.415 -2.5,-0.621 -5.05,-0.815 -7.606,-0.845 -4.599,-0.052 -9.199,0.003 -13.798,-0.031 -0.828,-0.006 -1.19,0.113 -1.188,1.086 0.031,16.838 0.027,33.675 0.007,50.512 -0.001,0.796 0.147,1.116 1.037,1.102 5.035,-0.082 10.072,0.08 15.107,-0.219 4.867,-0.29 9.204,-1.685 12.208,-5.815 2.708,-3.725 3.512,-7.813 2.032,-12.244 -0.674,-2.017 -1.594,-3.054 -4.937,-5.762" /></g><g
           transform="translate(333.148,43.4723)"
           id="g100"><path
             id="path102"
             style="fill:#264282;fill-opacity:1;fill-rule:nonzero;stroke:none"
             d="M 0,0 C 0.039,0.771 -0.184,1.986 -0.511,3.184 -2.722,11.288 -12.019,14.6 -18.368,9.445 -22.462,6.12 -23.55,1.612 -22.553,-3.408 c 1.322,-6.66 7.785,-10.674 14.154,-8.912 C -3.504,-10.966 -0.014,-6.046 0,0 m -0.475,-16.507 c -3.975,-3.96 -8.64,-5.397 -13.841,-4.772 -8.667,1.04 -14.238,6.086 -16.994,14.177 -3.794,11.138 2.119,23.33 12.961,26.758 5.672,1.794 11.209,1.531 16.071,-2.466 0.859,-0.706 1.638,-1.511 2.592,-2.4 0,1.175 0.047,2.337 -0.016,3.492 -0.044,0.802 0.143,1.119 1.03,1.092 2.237,-0.066 4.478,-0.048 6.716,-0.007 0.735,0.014 1.033,-0.117 1.031,-0.96 C 9.049,1.534 9.051,-15.339 9.071,-32.212 c 0,-0.755 -0.157,-1.034 -0.976,-1.017 -2.557,0.055 -5.118,0.052 -7.676,10e-4 -0.78,-0.016 -0.912,0.26 -0.908,0.962 0.027,5.157 0.014,10.314 0.014,15.759" /></g><g
           transform="translate(241.9137,43.1022)"
           id="g104"><path
             id="path106"
             style="fill:#274282;fill-opacity:1;fill-rule:nonzero;stroke:none"
             d="m 0,0 c 0,0.439 0.024,0.879 -0.004,1.317 -0.446,7.03 -6.549,11.907 -13.471,10.769 -5.34,-0.878 -9.187,-5.43 -9.643,-11.411 -0.652,-8.554 6.947,-14.962 14.975,-12.628 C -3.23,-10.525 0.023,-5.772 0,0 m 0.279,15.061 c 0,1.328 0.026,2.565 -0.01,3.8 -0.018,0.606 0.149,0.846 0.802,0.84 2.359,-0.023 4.72,-0.027 7.077,0.042 0.822,0.024 0.895,-0.33 0.885,-0.99 -0.03,-2.119 -0.011,-4.239 -0.011,-6.359 0,-10.239 -0.027,-20.479 0.034,-30.717 0.008,-1.273 -0.372,-1.53 -1.539,-1.479 -2.116,0.093 -4.239,0.047 -6.358,0.015 -0.66,-0.01 -0.926,0.171 -0.894,0.875 0.053,1.176 0.014,2.356 0.014,3.786 -2.689,-2.63 -5.662,-4.271 -9.008,-5.203 -8.523,-2.373 -17.292,1.493 -21.349,9.378 -4.309,8.374 -3.288,18.641 2.536,25.411 6.961,8.093 20.072,9.069 27.551,0.691 0.021,-0.023 0.066,-0.024 0.27,-0.09" /></g><g
           transform="translate(442.222,109.1305)"
           id="g108"><path
             id="path110"
             style="fill:#ec117a;fill-opacity:1;fill-rule:nonzero;stroke:none"
             d="m 0,0 c 0.026,-0.419 0.024,-0.983 0.102,-1.535 0.63,-4.435 2.816,-7.828 6.976,-9.628 4.047,-1.752 8.029,-1.337 11.531,1.398 3.73,2.912 4.838,6.988 4.52,11.547 C 22.602,9.339 15.216,14.347 8.079,12.002 3.245,10.413 0.083,5.769 0,0 m 23.412,15.28 c 0,1.392 0.045,2.573 -0.016,3.749 -0.039,0.762 0.266,0.948 0.964,0.953 2.317,0.014 4.639,-0.127 6.951,0.101 0.907,0.09 0.919,-0.437 0.918,-1.108 -0.013,-7.24 -0.008,-14.479 -0.008,-21.719 0,-5.2 -0.022,-10.4 0.02,-15.6 0.007,-0.892 -0.219,-1.169 -1.131,-1.142 -2.238,0.067 -4.48,0.058 -6.718,0.003 -0.818,-0.02 -1.031,0.268 -0.994,1.031 0.055,1.115 0.014,2.236 0.014,3.573 -0.618,-0.542 -1.087,-0.996 -1.598,-1.396 -7.616,-5.962 -17.9,-6.092 -24.984,0.601 -3.342,3.158 -5.237,7.13 -5.973,11.626 -1.11,6.779 0.016,13.082 4.495,18.491 6.82,8.236 19.78,9.544 27.539,1.279 0.099,-0.105 0.221,-0.188 0.521,-0.442" /></g><g
           transform="translate(424.512,46.545)"
           id="g112"><path
             id="path114"
             style="fill:#264282;fill-opacity:1;fill-rule:nonzero;stroke:none"
             d="M 0,0 C -0.65,4.999 -5.422,9.066 -10.651,9.114 -16.231,9.166 -21.167,5.182 -21.921,0 Z m 7.31,-12.625 c -2.132,-4.623 -5.379,-7.851 -9.759,-9.91 -12.791,-6.012 -27.716,2.482 -29.221,16.602 -1.145,10.738 5.427,20.54 15.534,23.17 C -5.022,20.13 6.583,12.9 8.931,1.649 9.51,-1.128 9.533,-3.89 9.097,-6.685 8.964,-7.532 8.653,-7.747 7.808,-7.744 c -9.398,0.035 -18.797,0.022 -28.195,0.022 -1.418,0 -1.433,-0.025 -0.878,-1.356 2.362,-5.656 9.302,-8.367 14.575,-5.684 0.425,0.216 0.94,0.401 1.208,0.756 1.131,1.495 2.686,1.431 4.309,1.397 2.753,-0.058 5.507,-0.016 8.483,-0.016" /></g><g
           transform="translate(571.186,121.6602)"
           id="g116"><path
             id="path118"
             style="fill:#ec107a;fill-opacity:1;fill-rule:nonzero;stroke:none"
             d="m 0,0 c -2.759,0.004 -5.17,-0.795 -7.181,-2.52 -3.712,-3.185 -4.936,-7.296 -4.327,-12.046 0.875,-6.824 7.616,-11.425 14.278,-9.753 4.803,1.206 7.946,4.852 8.641,10.441 C 12.389,-6.012 7.071,0.068 0,0 m 11.773,-27.338 c -3.729,-3.539 -7.909,-5.567 -12.8,-5.833 -6.929,-0.377 -12.463,2.334 -16.4,8.048 -5.846,8.487 -4.83,21.087 2.096,28.144 7.133,7.267 19.43,8.102 27.104,-0.408 0,1.451 0.035,2.691 -0.014,3.928 -0.027,0.674 0.19,0.906 0.867,0.91 2.356,0.015 4.715,-0.114 7.068,0.097 0.568,0.051 0.823,-0.182 0.758,-0.757 -0.018,-0.158 -0.002,-0.32 -0.002,-0.48 0,-12.353 -0.012,-24.707 0.022,-37.06 0.002,-0.977 -0.213,-1.308 -1.238,-1.27 -2.196,0.083 -4.397,0.049 -6.596,0.012 -0.678,-0.012 -0.908,0.191 -0.879,0.877 0.05,1.187 0.014,2.378 0.014,3.792" /></g><g
           transform="translate(371.9031,109.3259)"
           id="g120"><path
             id="path122"
             style="fill:#ec117a;fill-opacity:1;fill-rule:nonzero;stroke:none"
             d="m 0,0 c 0,-0.2 -0.011,-0.401 0.002,-0.6 0.301,-4.752 2.342,-8.488 6.714,-10.56 3.957,-1.876 7.889,-1.486 11.435,1.149 5.823,4.326 6.397,13.524 1.243,18.806 C 15.201,13.091 9.246,13.594 4.673,9.938 1.517,7.414 -0.004,4.047 0,0 M 32.46,0.154 C 32.475,-11.232 23.661,-20.903 11.384,-20.936 -0.267,-20.968 -9.55,-11.49 -9.542,0.198 -9.535,11.682 -0.016,21.153 11.508,21.142 23.104,21.131 32.459,11.76 32.46,0.154" /></g><g
           transform="translate(243.2103,109.1587)"
           id="g124"><path
             id="path126"
             style="fill:#ec117a;fill-opacity:1;fill-rule:nonzero;stroke:none"
             d="m 0,0 c 0.013,2.028 -0.415,3.956 -1.29,5.787 -3.414,7.153 -11.933,8.929 -17.707,3.69 -3.721,-3.376 -4.955,-9.087 -3.05,-14.112 2.085,-5.498 7.725,-8.487 13.422,-7.114 C -3.65,-10.55 -0.072,-5.677 0,0 m 9.545,0.189 c -0.007,-11.023 -8.519,-20.904 -20.965,-20.94 -12.225,-0.036 -21.174,9.908 -21.075,21.246 0.1,11.443 9.724,20.893 21.221,20.814 C 0.328,21.23 9.61,11.813 9.545,0.189" /></g><g
           transform="translate(377.3127,27.0627)"
           id="g128"><path
             id="path130"
             style="fill:#274282;fill-opacity:1;fill-rule:nonzero;stroke:none"
             d="m 0,0 c -1.885,-2.16 -3.686,-3.894 -6.235,-4.57 -8.048,-2.134 -19.782,2.457 -20.131,14.315 -0.246,8.389 -0.08,16.79 -0.128,25.185 -0.004,0.769 0.353,0.811 0.948,0.806 2.518,-0.021 5.039,-0.061 7.555,0.017 0.998,0.031 1.072,-0.389 1.069,-1.194 -0.026,-6.557 -0.027,-13.114 -0.008,-19.671 0.007,-2.369 0.3,-4.696 1.28,-6.894 1.275,-2.86 3.528,-4.296 6.593,-4.323 2.972,-0.026 5.332,1.173 6.734,3.939 1.324,2.611 1.545,5.431 1.558,8.275 0.03,6.237 0.028,12.474 -0.011,18.711 -0.005,0.901 0.172,1.224 1.152,1.193 C 2.852,35.71 5.333,35.736 7.811,35.779 8.54,35.792 8.761,35.603 8.76,34.852 8.737,22.298 8.74,9.743 8.752,-2.811 8.753,-3.432 8.654,-3.763 7.913,-3.751 c -2.358,0.04 -4.718,0.04 -7.076,0 -0.722,-0.012 -0.883,0.275 -0.848,0.92 C 0.034,-2.002 0,-1.169 0,0" /></g><g
           transform="translate(285.8743,93.4021)"
           id="g132"><path
             id="path134"
             style="fill:#ec117a;fill-opacity:1;fill-rule:nonzero;stroke:none"
             d="m 0,0 c -2.033,-2.442 -4.11,-4.191 -6.967,-4.781 -7.808,-1.61 -19.026,2.833 -19.391,14.591 -0.258,8.352 -0.085,16.717 -0.128,25.075 -0.003,0.665 0.253,0.793 0.845,0.788 2.56,-0.025 5.121,-0.048 7.679,0.01 0.875,0.02 1.051,-0.285 1.047,-1.093 -0.03,-6.399 -0.024,-12.799 -0.013,-19.199 0.004,-2.284 0.189,-4.548 1.01,-6.713 1.25,-3.295 3.481,-4.946 6.733,-4.972 3.666,-0.029 6.004,1.502 7.324,4.856 0.86,2.187 1.096,4.492 1.101,6.82 0.012,6.4 0.026,12.799 -0.019,19.199 -0.008,1.001 0.26,1.281 1.26,1.25 C 2.919,35.755 5.36,35.784 7.8,35.819 8.563,35.83 8.828,35.615 8.826,34.802 8.801,22.283 8.801,9.764 8.825,-2.755 8.827,-3.561 8.572,-3.768 7.799,-3.752 5.56,-3.705 3.318,-3.685 1.081,-3.759 0.124,-3.791 -0.087,-3.434 -0.013,-2.585 0.051,-1.841 0,-1.088 0,0" /></g><g
           transform="translate(268.9355,59.617)"
           id="g136"><path
             id="path138"
             style="fill:#274282;fill-opacity:1;fill-rule:nonzero;stroke:none"
             d="m 0,0 c 1.357,1.09 2.508,2.054 3.827,2.795 7.377,4.138 19.606,0.799 21.95,-10.416 0.378,-1.807 0.526,-3.635 0.528,-5.476 0.006,-7.357 -0.013,-14.714 0.023,-22.071 0.004,-0.881 -0.194,-1.171 -1.117,-1.145 -2.397,0.068 -4.799,0.07 -7.196,0 -0.985,-0.029 -1.281,0.234 -1.273,1.25 0.047,6.397 0.032,12.795 0.02,19.192 -0.005,2.288 -0.265,4.544 -1.058,6.71 -1.169,3.191 -3.437,4.87 -6.642,4.927 C 5.911,-4.179 2.893,-6.201 1.725,-9.089 0.819,-11.33 0.739,-13.682 0.729,-16.037 0.702,-22.395 0.7,-28.752 0.741,-35.11 c 0.007,-0.943 -0.239,-1.229 -1.196,-1.203 -2.477,0.068 -4.958,0.049 -7.436,0.007 -0.737,-0.013 -0.947,0.202 -0.946,0.944 0.022,12.555 0.019,25.11 0.006,37.665 -0.001,0.608 0.051,0.939 0.81,0.923 C -5.623,3.177 -3.223,3.179 -0.824,3.225 -0.085,3.24 0.046,2.938 0.009,2.31 -0.032,1.611 0,0.909 0,0" /></g><g
           transform="translate(334.4581,102.1479)"
           id="g140"><path
             id="path142"
             style="fill:#ec117a;fill-opacity:1;fill-rule:nonzero;stroke:none"
             d="M 0,0 C 1.2,0 2.404,-0.064 3.598,0.021 4.49,0.085 4.835,-0.267 5.1,-1.081 c 0.987,-3.031 2.408,-4.076 5.187,-3.956 1.747,0.076 3.28,1.209 3.701,2.738 0.513,1.863 -0.092,3.321 -1.853,4.365 C 10.123,3.257 7.868,3.842 5.679,4.586 4.163,5.101 2.7,5.697 1.358,6.605 c -7.076,4.785 -6.25,15.379 0.993,19.747 7.497,4.521 17.193,1.194 19.672,-6.804 1.034,-3.336 1.034,-3.336 -2.384,-3.336 -1.759,0 -3.52,0.034 -5.279,-0.016 -0.754,-0.021 -1.121,0.179 -1.349,0.957 -0.371,1.264 -1.23,2.147 -2.602,2.36 -1.475,0.229 -2.79,-0.079 -3.778,-1.289 -1.148,-1.408 -0.909,-3.245 0.566,-4.304 1.228,-0.882 2.685,-1.209 4.099,-1.626 1.802,-0.531 3.566,-1.147 5.303,-1.868 7.871,-3.272 8.246,-10.89 5.855,-15.946 -2.48,-5.247 -6.837,-7.916 -12.58,-8.154 -5.357,-0.221 -9.76,1.714 -12.763,6.334 -1.297,1.995 -1.75,4.262 -2.017,6.582 -0.065,0.573 0.113,0.783 0.707,0.769 C -2.8,-0.023 -1.4,0 0,0" /></g><g
           transform="translate(313.6421,125.8538)"
           id="g144"><path
             id="path146"
             style="fill:#ec107a;fill-opacity:1;fill-rule:nonzero;stroke:none"
             d="M 0,0 C 3.194,3.293 7.133,3.807 11.144,4.139 12.02,4.211 12.439,4.031 12.399,2.998 12.314,0.803 12.341,-1.398 12.39,-3.595 12.408,-4.409 12.163,-4.668 11.332,-4.735 8.789,-4.941 6.393,-5.661 4.307,-7.199 1.998,-8.9 0.8,-11.188 0.796,-14.064 0.787,-21.018 0.775,-27.971 0.815,-34.925 c 0.005,-0.95 -0.166,-1.324 -1.219,-1.288 -2.435,0.083 -4.875,0.056 -7.312,0.009 -0.801,-0.015 -1,0.259 -0.999,1.027 0.021,12.468 0.022,24.937 -10e-4,37.405 -0.001,0.822 0.214,1.118 1.07,1.097 2.197,-0.054 4.396,-0.054 6.593,0 C -0.202,3.345 0.087,3.06 0.012,2.232 -0.047,1.578 0,0.915 0,0" /></g><g
           transform="translate(420.2021,125.8658)"
           id="g148"><path
             id="path150"
             style="fill:#ec107a;fill-opacity:1;fill-rule:nonzero;stroke:none"
             d="m 0,0 c 3.238,3.326 7.228,3.811 11.284,4.13 0.812,0.063 1.13,-0.171 1.108,-1.045 -0.057,-2.239 -0.056,-4.481 0,-6.719 0.022,-0.855 -0.295,-1.056 -1.09,-1.11 -1.929,-0.131 -3.775,-0.641 -5.5,-1.536 -3.315,-1.719 -5.06,-4.397 -5.05,-8.185 0.016,-6.799 -0.024,-13.6 0.033,-20.399 0.009,-1.12 -0.308,-1.397 -1.384,-1.36 -2.358,0.081 -4.72,0.049 -7.079,0.011 -0.748,-0.012 -1.041,0.168 -1.039,0.988 0.024,12.52 0.022,25.039 0.005,37.559 -10e-4,0.715 0.196,0.988 0.946,0.975 2.279,-0.04 4.56,-0.04 6.839,0 C -0.176,3.322 0.062,3.05 0.01,2.333 -0.038,1.658 0,0.976 0,0" /></g><g
           transform="translate(94.0682,102.6441)"
           id="g152"><path
             id="path154"
             style="fill:#2870bf;fill-opacity:1;fill-rule:nonzero;stroke:none"
             d="m 0,0 c -8.694,0.007 -17.389,0.012 -26.083,0.022 -0.478,0 -0.955,0.028 -1.433,0.043 0.151,0.184 0.288,0.382 0.455,0.549 10.291,10.293 20.584,20.585 30.879,30.874 0.167,0.167 0.363,0.306 0.545,0.458 C 3.501,30.385 2.473,28.925 1.818,27.237 0.811,24.641 0.314,21.954 0.291,19.2 0.237,12.819 0.276,6.437 0.277,0.055 0.185,0.037 0.092,0.018 0,0" /></g><g
           transform="translate(94.4238,74.8847)"
           id="g156"><path
             id="path158"
             style="fill:#2870bf;fill-opacity:1;fill-rule:nonzero;stroke:none"
             d="m 0,0 c -0.029,0.236 -0.082,0.473 -0.082,0.709 0.001,9.033 0.007,18.065 0.012,27.098 6.634,-0.005 13.269,-0.099 19.901,0.022 3.505,0.064 6.849,1.011 9.859,2.922 0.295,0.187 0.585,0.436 0.986,0.349 C 30.039,29.704 28.788,28.823 27.761,27.788 18.54,18.493 9.261,9.255 0,0" /></g><g
           transform="translate(125.8748,106.5063)"
           id="g160"><path
             id="path162"
             style="fill:#2870bf;fill-opacity:1;fill-rule:nonzero;stroke:none"
             d="M 0,0 C -0.245,-0.221 -0.298,-0.741 -0.821,-0.527 -0.713,-0.094 -0.392,0.007 0,0" /></g></g></g></g></svg>
