<?xml version="1.0" encoding="UTF-8"?> <svg xmlns="http://www.w3.org/2000/svg" viewBox="11.099 10.043 10.462 2.876"><linearGradient id="a" gradientUnits="userSpaceOnUse" x1="8188.7344" y1="-11298.5693" x2="8188.7344" y2="-11223.5566" gradientTransform="matrix(.0383 0 0 -.0383 -296.05 -420.1917)"><stop offset=".5" stop-color="#008356"></stop><stop offset="1" stop-color="#00aaa0"></stop></linearGradient><path fill="url(#a)" d="M17.85 10.044c.199 0 .385.038.56.113s.327.178.458.309.234.284.311.458c.074.174.111.361.111.56 0 .199-.037.385-.111.56-.076.175-.18.327-.311.456s-.283.232-.457.307c-.176.076-.361.113-.561.113-.198 0-.385-.037-.56-.113-.175-.074-.327-.178-.456-.307s-.231-.281-.307-.456c-.075-.174-.113-.361-.113-.56s.038-.385.113-.56c.075-.175.178-.328.307-.458s.281-.234.456-.309.361-.113.56-.113zm-.718 1.445c0 .1.019.193.057.28.038.087.089.164.155.23s.144.118.23.155c.088.038.181.057.28.057.099 0 .192-.019.279-.057.088-.037.164-.089.23-.155s.118-.143.155-.23c.038-.087.057-.181.057-.28 0-.099-.019-.192-.057-.28-.037-.087-.089-.164-.155-.23s-.143-.118-.23-.156c-.087-.038-.181-.057-.279-.057-.1 0-.192.019-.28.057s-.164.089-.23.156c-.066.066-.117.143-.155.23-.039.087-.057.181-.057.28z"></path><linearGradient id="b" gradientUnits="userSpaceOnUse" x1="8093.5723" y1="-11509.7412" x2="8093.5723" y2="-11434.7285" gradientTransform="matrix(.0383 0 0 -.0383 -295.0173 -428.2869)"><stop offset=".178" stop-color="#007b9b"></stop><stop offset="1" stop-color="#37bde9"></stop></linearGradient><path fill="url(#b)" d="M16.152 10.144c-.064-.066-.15-.099-.256-.099-.102 0-.188.03-.259.09s-.106.147-.106.262v.438c0 .048-.01.09-.029.126s-.043.066-.072.09c-.028.024-.061.042-.097.054-.036.012-.069.018-.1.018-.033 0-.066-.006-.099-.018-.033-.012-.064-.03-.096-.054-.029-.024-.054-.054-.072-.09-.018-.036-.026-.078-.026-.126v-.438c0-.114-.036-.202-.106-.262s-.156-.09-.26-.09c-.105 0-.19.033-.255.099-.064.066-.097.151-.097.253v.438c0 .12.022.241.067.361.046.12.11.228.196.322.086.095.191.173.316.233.023.012.049.021.074.031v.786c0 .102.033.186.1.252s.15.1.253.1c.104 0 .192-.033.261-.1.07-.066.104-.15.104-.253v-.787c.024-.009.048-.019.069-.029.125-.06.232-.138.318-.233.088-.094.154-.202.199-.322.045-.121.068-.241.068-.361v-.438c.003-.103-.03-.187-.095-.253z"></path><linearGradient id="c" gradientUnits="userSpaceOnUse" x1="8015.5156" y1="-11509.7158" x2="8015.5156" y2="-11434.7031" gradientTransform="matrix(.0383 0 0 -.0383 -295.0173 -428.2869)"><stop offset=".5" stop-color="#0079bf"></stop><stop offset="1" stop-color="#73caee"></stop></linearGradient><path fill="url(#c)" d="M13.348 11.755c-.027-.073-.062-.142-.104-.205-.041-.063-.088-.119-.139-.167-.053-.048-.102-.087-.15-.117.045-.057.086-.124.124-.201.038-.076.057-.167.057-.272 0-.138-.03-.255-.093-.351-.063-.096-.143-.173-.24-.232-.099-.059-.209-.101-.331-.128-.122-.027-.245-.041-.37-.041h-.6c-.114 0-.208.032-.284.097s-.116.145-.119.241v2.232c0 .093.04.167.117.223.078.055.173.083.287.083h.6c.125 0 .261-.013.409-.038.147-.025.288-.074.419-.145s.24-.166.328-.285c.088-.12.132-.275.132-.464-.001-.079-.015-.156-.043-.23zm-1.546-1.175h.446c.03 0 .058.007.081.019.022.013.042.028.058.047.016.018.027.039.035.063s.012.044.012.064c0 .021-.004.043-.012.064-.008.021-.02.042-.035.061s-.034.035-.058.046c-.023.012-.051.018-.082.018h-.445v-.382zm.813 1.443c-.012.032-.029.064-.054.094-.024.031-.054.055-.091.072-.035.019-.078.027-.126.027h-.529v-.591h.529c.048 0 .091.01.126.029.037.02.066.044.091.072.024.029.042.061.054.097s.019.069.019.099c0 .035-.007.068-.019.101z"></path><path fill="#0079BF" d="M13.949 12.918c-.051 0-.1-.01-.145-.027s-.086-.041-.119-.07c-.035-.03-.063-.066-.083-.105-.021-.043-.032-.088-.032-.136 0-.063.02-.122.059-.177.02-.025.041-.05.067-.072-.021-.019-.038-.039-.053-.063-.016-.025-.028-.052-.038-.078-.01-.029-.015-.059-.015-.087 0-.044.01-.087.03-.128.02-.039.046-.073.078-.101.032-.028.069-.05.112-.066.042-.016.089-.025.138-.025.047 0 .093.009.136.025.043.017.081.039.112.066.033.029.06.063.079.102.021.041.03.084.03.128 0 .04-.01.08-.027.118-.018.037-.043.072-.076.102-.032.029-.072.054-.118.072h-.001l.184.145.131-.106c.018-.015.039-.022.063-.022.056 0 .095.037.095.09 0 .021-.008.039-.021.058-.002.004-.006.007-.009.01l-.002.002-.001.001-.105.088.109.09.002.002c.021.018.032.042.032.068 0 .054-.039.092-.095.092-.023 0-.045-.008-.063-.023l-.135-.108c-.022.017-.044.032-.062.045-.033.021-.063.039-.091.052-.029.015-.058.025-.085.032s-.054.006-.081.006zm-.101-.473c-.023.015-.043.031-.059.051-.02.025-.03.053-.03.083 0 .021.005.04.014.058.009.02.021.035.038.05.018.015.037.026.061.035s.05.014.078.014c.029 0 .061-.01.094-.028.022-.014.048-.029.076-.049l-.272-.214zm.101-.481c-.025 0-.05.004-.071.012-.021.007-.039.018-.054.03-.014.013-.024.026-.033.044-.008.016-.012.033-.012.052 0 .02.004.036.012.052s.018.029.031.041c.016.013.033.023.055.031.021.009.046.014.072.014.025 0 .049-.004.068-.012.021-.007.039-.018.054-.03.014-.013.024-.026.032-.044.008-.016.012-.032.012-.052 0-.019-.004-.036-.012-.052-.008-.018-.019-.031-.032-.044-.015-.013-.032-.023-.054-.031-.02-.007-.042-.01-.068-.011z"></path><linearGradient id="d" gradientUnits="userSpaceOnUse" x1="8232.1348" y1="-11509.7412" x2="8232.1348" y2="-11434.8555" gradientTransform="matrix(.0383 0 0 -.0383 -295.0173 -428.2869)"><stop offset=".546" stop-color="#008f30"></stop><stop offset="1" stop-color="#a6c859"></stop></linearGradient><path fill="url(#d)" d="M20.545 12.202c.031 0 .063-.007.1-.019s.068-.029.098-.054c.028-.024.053-.054.072-.091.02-.035.029-.078.029-.126V10.4c0-.114.035-.202.105-.262s.157-.09.26-.09c.105 0 .19.033.256.099.064.066.096.15.096.253v1.512c0 .12-.021.241-.067.361-.044.12-.11.228-.198.323-.087.094-.193.172-.318.232-.125.06-.269.09-.432.09-.162 0-.306-.03-.43-.09-.125-.061-.23-.139-.316-.232-.086-.096-.151-.203-.197-.323-.045-.12-.066-.241-.066-.361V10.4c0-.102.031-.187.096-.252.065-.066.15-.099.256-.099.102 0 .188.03.26.09.07.06.105.147.105.262v1.512c0 .048.01.091.027.126.018.037.042.066.072.091.029.024.062.042.095.054.031.012.064.018.097.018z"></path></svg> 