<?xml version="1.0" encoding="utf-8"?>
<!-- Generator: Adobe Illustrator 24.0.1, SVG Export Plug-In . SVG Version: 6.00 Build 0)  -->
<svg version="1.1" id="Layer_1" xmlns="http://www.w3.org/2000/svg" xmlns:xlink="http://www.w3.org/1999/xlink" x="0px" y="0px"
	 viewBox="0 0 30 30" style="enable-background:new 0 0 30 30;" xml:space="preserve">
<style type="text/css">
	.st0{fill-rule:evenodd;clip-rule:evenodd;fill:#3CA7FC;}
	.st1{fill-rule:evenodd;clip-rule:evenodd;fill:#FFFFFF;}
</style>
<path id="path4" class="st0" d="M15,0c8.28,0,15,6.72,15,15s-6.72,15-15,15S0,23.28,0,15S6.72,0,15,0z"/>
<path id="path6" class="st1" d="M13.19,16.82c-1.64-1.64-2-3.27-2.09-3.93c-0.02-0.18,0.04-0.36,0.17-0.49l1.32-1.32
	c0.19-0.19,0.23-0.5,0.08-0.73l-2.11-3.27c-0.16-0.26-0.49-0.35-0.77-0.22L6.42,8.45C6.2,8.56,6.07,8.8,6.1,9.04
	c0.18,1.68,0.91,5.82,4.98,9.89c4.07,4.07,8.21,4.8,9.89,4.98c0.24,0.03,0.48-0.1,0.59-0.32l1.59-3.38c0.14-0.27,0.04-0.6-0.21-0.76
	l-3.27-2.11c-0.23-0.15-0.54-0.11-0.73,0.08l-1.32,1.32c-0.13,0.13-0.31,0.19-0.49,0.17C16.46,18.83,14.83,18.46,13.19,16.82
	L13.19,16.82z M20.36,15.24c-0.33,0-0.59-0.26-0.59-0.59c0-2.45-1.99-4.43-4.43-4.43c-0.33,0-0.59-0.26-0.59-0.59
	c0-0.33,0.26-0.59,0.59-0.59c3.1,0,5.61,2.52,5.61,5.61C20.95,14.98,20.68,15.24,20.36,15.24L20.36,15.24z M23.31,15.24
	c-0.33,0-0.59-0.26-0.59-0.59c0-4.08-3.31-7.38-7.39-7.39c-0.33,0-0.59-0.26-0.59-0.59c0-0.33,0.26-0.59,0.59-0.59
	c4.73,0.01,8.56,3.84,8.57,8.57c0,0.16-0.06,0.31-0.17,0.42C23.62,15.18,23.47,15.24,23.31,15.24
	C23.31,15.24,23.31,15.24,23.31,15.24z"/>
</svg>
