<?xml version="1.0" encoding="UTF-8" standalone="no"?>
<svg
   xmlns:dc="http://purl.org/dc/elements/1.1/"
   xmlns:cc="http://creativecommons.org/ns#"
   xmlns:rdf="http://www.w3.org/1999/02/22-rdf-syntax-ns#"
   xmlns:svg="http://www.w3.org/2000/svg"
   xmlns="http://www.w3.org/2000/svg"
   xmlns:sodipodi="http://sodipodi.sourceforge.net/DTD/sodipodi-0.dtd"
   xmlns:inkscape="http://www.inkscape.org/namespaces/inkscape"
   inkscape:version="1.0 (4035a4f, 2020-05-01)"
   sodipodi:docname="cancel.svg"
   xml:space="preserve"
   style="enable-background:new 0 0 511.76 511.76;"
   viewBox="0 0 511.76 511.76"
   y="0px"
   x="0px"
   id="Capa_1"
   version="1.1"><metadata
   id="metadata588"><rdf:RDF><cc:Work
       rdf:about=""><dc:format>image/svg+xml</dc:format><dc:type
         rdf:resource="http://purl.org/dc/dcmitype/StillImage" /><dc:title></dc:title></cc:Work></rdf:RDF></metadata><defs
   id="defs586" /><sodipodi:namedview
   inkscape:current-layer="Capa_1"
   inkscape:window-maximized="0"
   inkscape:window-y="25"
   inkscape:window-x="0"
   inkscape:cy="255.88"
   inkscape:cx="255.88"
   inkscape:zoom="0.63814634"
   showgrid="false"
   id="namedview584"
   inkscape:window-height="480"
   inkscape:window-width="728"
   inkscape:pageshadow="2"
   inkscape:pageopacity="0"
   guidetolerance="10"
   gridtolerance="10"
   objecttolerance="10"
   borderopacity="1"
   bordercolor="#666666"
   pagecolor="#ffffff" />
<g
   style="fill:#b3b3b3"
   id="g551">
	<g
   style="fill:#b3b3b3"
   id="g549">
		<path
   style="fill:#b3b3b3"
   id="path547"
   d="M436.896,74.869c-99.84-99.819-262.208-99.819-362.048,0c-99.797,99.819-99.797,262.229,0,362.048    c49.92,49.899,115.477,74.837,181.035,74.837s131.093-24.939,181.013-74.837C536.715,337.099,536.715,174.688,436.896,74.869z     M361.461,331.317c8.341,8.341,8.341,21.824,0,30.165c-4.16,4.16-9.621,6.251-15.083,6.251c-5.461,0-10.923-2.091-15.083-6.251    l-75.413-75.435l-75.392,75.413c-4.181,4.16-9.643,6.251-15.083,6.251c-5.461,0-10.923-2.091-15.083-6.251    c-8.341-8.341-8.341-21.845,0-30.165l75.392-75.413l-75.413-75.413c-8.341-8.341-8.341-21.845,0-30.165    c8.32-8.341,21.824-8.341,30.165,0l75.413,75.413l75.413-75.413c8.341-8.341,21.824-8.341,30.165,0    c8.341,8.32,8.341,21.824,0,30.165l-75.413,75.413L361.461,331.317z" />
	</g>
</g>
<g
   style="fill:#b3b3b3"
   id="g553">
</g>
<g
   style="fill:#b3b3b3"
   id="g555">
</g>
<g
   style="fill:#b3b3b3"
   id="g557">
</g>
<g
   style="fill:#b3b3b3"
   id="g559">
</g>
<g
   style="fill:#b3b3b3"
   id="g561">
</g>
<g
   style="fill:#b3b3b3"
   id="g563">
</g>
<g
   style="fill:#b3b3b3"
   id="g565">
</g>
<g
   style="fill:#b3b3b3"
   id="g567">
</g>
<g
   style="fill:#b3b3b3"
   id="g569">
</g>
<g
   style="fill:#b3b3b3"
   id="g571">
</g>
<g
   style="fill:#b3b3b3"
   id="g573">
</g>
<g
   style="fill:#b3b3b3"
   id="g575">
</g>
<g
   style="fill:#b3b3b3"
   id="g577">
</g>
<g
   style="fill:#b3b3b3"
   id="g579">
</g>
<g
   style="fill:#b3b3b3"
   id="g581">
</g>
</svg>
