<?xml version="1.0" encoding="UTF-8" standalone="no"?>
<svg
   xmlns:dc="http://purl.org/dc/elements/1.1/"
   xmlns:cc="http://creativecommons.org/ns#"
   xmlns:rdf="http://www.w3.org/1999/02/22-rdf-syntax-ns#"
   xmlns:svg="http://www.w3.org/2000/svg"
   xmlns="http://www.w3.org/2000/svg"
   xmlns:sodipodi="http://sodipodi.sourceforge.net/DTD/sodipodi-0.dtd"
   xmlns:inkscape="http://www.inkscape.org/namespaces/inkscape"
   inkscape:version="1.0 (4035a4f, 2020-05-01)"
   sodipodi:docname="hello-bank-by-cetelem-seeklogo.com.svg"
   xml:space="preserve"
   style="enable-background:new 0 0 652 652;"
   viewBox="0 0 652 652"
   y="0px"
   x="0px"
   id="layer"
   version="1.1"><metadata
   id="metadata44"><rdf:RDF><cc:Work
       rdf:about=""><dc:format>image/svg+xml</dc:format><dc:type
         rdf:resource="http://purl.org/dc/dcmitype/StillImage" /></cc:Work></rdf:RDF></metadata><defs
   id="defs42" /><sodipodi:namedview
   inkscape:current-layer="layer"
   inkscape:window-maximized="0"
   inkscape:window-y="23"
   inkscape:window-x="0"
   inkscape:cy="326"
   inkscape:cx="326"
   inkscape:zoom="0.50121773"
   showgrid="false"
   id="namedview40"
   inkscape:window-height="480"
   inkscape:window-width="776"
   inkscape:pageshadow="2"
   inkscape:pageopacity="0"
   guidetolerance="10"
   gridtolerance="10"
   objecttolerance="10"
   borderopacity="1"
   bordercolor="#666666"
   pagecolor="#ffffff" />
<style
   id="style10"
   type="text/css">
	.st0{fill:url(#SVGID_1_);}
	.st1{fill:#1B83AA;}
	.st2{fill:#FFFFFF;}
	.st3{fill:#666666;}
</style>
<linearGradient
   gradientTransform="matrix(1 0 0 -1 -91.155 454.93)"
   y2="-114.0107"
   x2="409.5756"
   y1="390.9773"
   x1="413.2582"
   gradientUnits="userSpaceOnUse"
   id="SVGID_1_">
	<stop
   id="stop12"
   style="stop-color:#2BC0D3"
   offset="0" />
	<stop
   id="stop14"
   style="stop-color:#36C1D4"
   offset="2.300000e-002" />
	<stop
   id="stop16"
   style="stop-color:#2BC0D3"
   offset="0.111" />
	<stop
   id="stop18"
   style="stop-color:#12BED3"
   offset="0.232" />
	<stop
   id="stop20"
   style="stop-color:#00BBD1"
   offset="0.355" />
	<stop
   id="stop22"
   style="stop-color:#03A0BE"
   offset="0.645" />
	<stop
   id="stop24"
   style="stop-color:#148EB2"
   offset="0.805" />
	<stop
   id="stop26"
   style="stop-color:#178BB0"
   offset="0.903" />
	<stop
   id="stop28"
   style="stop-color:#1A86AC"
   offset="1" />
</linearGradient>
<path
   id="path31"
   d="M111.8,71.2L530.4,71c0,0,17.5,0.2,17.8,16.9c0.2,11.5,0,393.6,0,393.6s2.5,19.7-18,20.6  c-20.5,0.8-335,0.8-335,0.8l-0.2,62c0,0,1.8,8.3-4.3,5.4l-51.8-66.9l-28.9-0.5c0,0-16.8-1.7-16.8-17.4c0-14.8-0.4-399.3-0.4-399.3  S91.3,71.4,111.8,71.2L111.8,71.2z"
   class="st0" />
<path
   id="path33"
   d="M138.3,173l16.9-0.2v43.3h51.7l-0.2-42.9h16.9l0.2,102.7l-17.1,0.2v-44.5l-51.5,0.2l0.4,44.1l-17.5,0.2  L138.3,173z M273.9,197c-40.8,0.4-38.3,39.8-38.3,39.8s-0.8,40.6,38.6,40.8c0,0,22,0.7,32.4-13.8l-9.4-8.7c0,0-10,9-21.3,8.8  c-11.3-0.2-23.5-8.6-23.5-20.6l58-0.2C310.4,243.1,314.7,196.6,273.9,197z M272.7,210.4c18.8,0.1,20.8,21.2,20.8,21.2l-41.2,0.1  C252.3,231.7,254.4,210.3,272.7,210.4z M322.3,169.3h16.8l-0.1,106.4h-16.5L322.3,169.3z M356.4,169.6h16.8L373,276h-16.5  L356.4,169.6z M425.9,196.3c-22.6,0-40.8,18.2-40.8,40.7c0,22.5,18.3,40.7,40.8,40.7c22.6,0,40.8-18.2,40.8-40.7  C466.7,214.6,448.4,196.3,425.9,196.3L425.9,196.3z M424.6,210.8c0.4,0,0.9,0,1.3,0c14,0,25.2,11.7,25.2,26.3  c0,14.5-11.3,26.3-25.2,26.3s-25.3-11.8-25.3-26.3C400.6,223,411.2,211.5,424.6,210.8L424.6,210.8z M138.5,296v88  c0,2.6,20.4,20.4,40.5,20.1c20.1-0.3,41.4-9,42-38.5c0.6-29.4-17.2-43.2-36.5-43.2s-29.2,9-29.2,9l-0.6-35.5L138.5,296L138.5,296z   M182.4,337.3c14.3,0.3,24.1,14.3,23.9,26.2c-0.1,12.8-9.6,25.5-24.8,25.5c-16,0-26.3-8.7-26.3-8.7L155,345  C155,345,166.8,336.9,182.4,337.3z M264.4,322.5c-16.7,0-29.5,6.8-29.5,6.8l4.5,13c0,0,8.9-5,23.3-5c19.8,0,18.4,18.1,18.4,18.1  c-6.8-3.7-21.6-3.5-21.6-3.5c-30.5,0.4-31.4,23.3-31.2,27.6c0.2,3.7-0.2,24.8,34.7,23.7c34.8-1,34.4-24.2,34.4-24.2  s0.8-15.5-0.6-31.3C295.4,331.8,281.1,322.5,264.4,322.5L264.4,322.5z M265.4,364.5c5.2,0.1,10.7,0.1,13.8,1.3  c2.3,0.9,3,2.2,2.9,5.1c-0.1,5.2,0.8,7.6-2,11.4c-2.4,5-12,8.7-18.8,8.8c-10.3,0.2-18.8-4.9-18.8-13.2c0-8.2,8.7-13,19-13.4  C262.9,364.5,264.2,364.5,265.4,364.5L265.4,364.5z M309.9,324.3h16.6v12.8c0,0,8.3-15.2,26.5-14.9c18.2,0.3,25.5,15,25.7,22.2  c0.1,7.1,0.3,56.6,0.3,56.6h-16.3l0.1-50.6c0,0-3.5-13.3-17.6-12.8c-14.2,0.4-18.5,11.8-18.5,14.1c0,2.3-0.1,49.3-0.1,49.3h-16.5  L309.9,324.3z M393.6,295.8h16.6l0.1,64l33.2-35.7h20.6l-30.5,32.1l32.8,45.6l-20.7,0.1l-23.6-34.3l-12.1,12.4l0.1,21.7l-16.6-0.1  L393.6,295.8z M486.1,375.4l-0.3-79.9h16.3l0.1,79.9L486.1,375.4z M486.1,401.7l-0.3-14.7h16.3l0.1,14.7H486.1z"
   class="st1" />
<path
   id="path35"
   d="M138.3,175.3l16.9-0.2v43.3h51.7l-0.2-42.9h16.9l0.2,102.7l-17.1,0.2v-44.5l-51.5,0.2l0.4,44.1l-17.5,0.2  L138.3,175.3z M273.9,199.2c-40.8,0.4-38.3,39.8-38.3,39.8s-0.8,40.6,38.6,40.8c0,0,22,0.7,32.4-13.8l-9.4-8.7c0,0-10,9-21.3,8.8  c-11.3-0.2-23.5-8.6-23.5-20.6l58-0.2C310.4,245.4,314.7,198.8,273.9,199.2z M272.7,212.7c18.8,0.1,20.8,21.2,20.8,21.2l-41.2,0.1  C252.3,234,254.4,212.5,272.7,212.7z M322.3,171.6h16.8L338.9,278h-16.5L322.3,171.6z M356.4,171.9h16.8L373,278.3h-16.5  L356.4,171.9z M425.9,198.6c-22.6,0-40.8,18.2-40.8,40.7c0,22.5,18.3,40.7,40.8,40.7c22.6,0,40.8-18.2,40.8-40.7  C466.7,216.8,448.4,198.6,425.9,198.6L425.9,198.6z M424.6,213.1c0.4,0,0.9,0,1.3,0c14,0,25.2,11.7,25.2,26.3s-11.3,26.3-25.2,26.3  s-25.3-11.8-25.3-26.3C400.6,225.3,411.2,213.8,424.6,213.1L424.6,213.1z M138.5,298.3v88c0,2.6,20.4,20.4,40.5,20.1  c20.1-0.3,41.4-9,42-38.5c0.6-29.4-17.2-43.2-36.5-43.2s-29.2,9-29.2,9l-0.6-35.5L138.5,298.3L138.5,298.3z M182.4,339.5  c14.3,0.3,24.1,14.3,23.9,26.2c-0.1,12.8-9.6,25.5-24.8,25.5c-16,0-26.3-8.7-26.3-8.7l-0.3-35.3C155,347.2,166.8,339.2,182.4,339.5z   M264.4,324.8c-16.7,0-29.5,6.8-29.5,6.8l4.5,13c0,0,8.9-5,23.3-5c19.8,0,18.4,18.1,18.4,18.1c-6.8-3.7-21.6-3.5-21.6-3.5  c-30.5,0.4-31.4,23.3-31.2,27.6c0.2,3.7-0.2,24.8,34.7,23.7c34.8-1,34.4-24.2,34.4-24.2s0.8-15.5-0.6-31.3  C295.4,334.1,281.1,324.8,264.4,324.8L264.4,324.8z M265.4,366.8c5.2,0.1,10.7,0.1,13.8,1.3c2.3,0.9,3,2.2,2.9,5.1  c-0.1,5.2,0.8,7.6-2,11.4c-2.4,5-12,8.7-18.8,8.8c-10.3,0.2-18.8-4.9-18.8-13.2c0-8.2,8.7-13,19-13.4  C262.9,366.8,264.2,366.8,265.4,366.8L265.4,366.8z M309.9,326.5h16.6v12.8c0,0,8.3-15.2,26.5-14.9c18.2,0.3,25.5,15,25.7,22.2  c0.1,7.1,0.3,56.6,0.3,56.6h-16.3l0.1-50.6c0,0-3.5-13.3-17.6-12.8c-14.2,0.4-18.5,11.8-18.5,14.1c0,2.3-0.1,49.3-0.1,49.3h-16.5  L309.9,326.5z M393.6,298.1h16.6l0.1,64l33.2-35.7h20.6l-30.5,32.1l32.8,45.6l-20.7,0.1L422.2,370l-12.1,12.4l0.1,21.7l-16.6-0.1  L393.6,298.1z M486.1,377.7l-0.3-79.9h16.3l0.1,79.9L486.1,377.7z M486.1,403.9l-0.3-14.7h16.3l0.1,14.7H486.1z"
   class="st2" />

</svg>
