<?xml version="1.0" encoding="UTF-8" standalone="no"?>
<svg
   xmlns:dc="http://purl.org/dc/elements/1.1/"
   xmlns:cc="http://creativecommons.org/ns#"
   xmlns:rdf="http://www.w3.org/1999/02/22-rdf-syntax-ns#"
   xmlns:svg="http://www.w3.org/2000/svg"
   xmlns="http://www.w3.org/2000/svg"
   xmlns:sodipodi="http://sodipodi.sourceforge.net/DTD/sodipodi-0.dtd"
   xmlns:inkscape="http://www.inkscape.org/namespaces/inkscape"
   inkscape:version="1.0 (4035a4f, 2020-05-01)"
   sodipodi:docname="left.svg"
   xml:space="preserve"
   style="enable-background:new 0 0 40 40;"
   viewBox="0 0 40 40"
   height="40px"
   width="40px"
   y="0px"
   x="0px"
   id="Capa_1"
   version="1.1"><metadata
   id="metadata545"><rdf:RDF><cc:Work
       rdf:about=""><dc:format>image/svg+xml</dc:format><dc:type
         rdf:resource="http://purl.org/dc/dcmitype/StillImage" /><dc:title></dc:title></cc:Work></rdf:RDF></metadata><defs
   id="defs543" /><sodipodi:namedview
   inkscape:current-layer="Capa_1"
   inkscape:window-maximized="0"
   inkscape:window-y="25"
   inkscape:window-x="0"
   inkscape:cy="20"
   inkscape:cx="20"
   inkscape:zoom="8.1644444"
   showgrid="false"
   id="namedview541"
   inkscape:window-height="480"
   inkscape:window-width="728"
   inkscape:pageshadow="2"
   inkscape:pageopacity="0"
   guidetolerance="10"
   gridtolerance="10"
   objecttolerance="10"
   borderopacity="1"
   bordercolor="#666666"
   pagecolor="#ffffff" />
<g
   style="fill:#b3b3b3"
   id="g508">
	<path
   style="fill:#b3b3b3"
   id="path506"
   d="M20,0C8.973,0,0,8.973,0,20c0,11.027,8.973,20,20,20c11.027,0,20-8.973,20-20C40,8.973,31.027,0,20,0z M27.059,22.281   h-9.187l2.142,2.521c0.815,0.96,0.698,2.399-0.263,3.216c-0.429,0.363-0.953,0.543-1.476,0.543c-0.646,0-1.288-0.272-1.739-0.806   l-5.334-6.278c-0.723-0.853-0.723-2.103,0-2.953l5.334-6.279c0.814-0.961,2.254-1.078,3.215-0.264   c0.961,0.815,1.078,2.256,0.263,3.217l-2.142,2.521h9.187c1.26,0,2.28,1.021,2.28,2.281S28.318,22.281,27.059,22.281z" />
</g>
<g
   style="fill:#b3b3b3"
   id="g510">
</g>
<g
   style="fill:#b3b3b3"
   id="g512">
</g>
<g
   style="fill:#b3b3b3"
   id="g514">
</g>
<g
   style="fill:#b3b3b3"
   id="g516">
</g>
<g
   style="fill:#b3b3b3"
   id="g518">
</g>
<g
   style="fill:#b3b3b3"
   id="g520">
</g>
<g
   style="fill:#b3b3b3"
   id="g522">
</g>
<g
   style="fill:#b3b3b3"
   id="g524">
</g>
<g
   style="fill:#b3b3b3"
   id="g526">
</g>
<g
   style="fill:#b3b3b3"
   id="g528">
</g>
<g
   style="fill:#b3b3b3"
   id="g530">
</g>
<g
   style="fill:#b3b3b3"
   id="g532">
</g>
<g
   style="fill:#b3b3b3"
   id="g534">
</g>
<g
   style="fill:#b3b3b3"
   id="g536">
</g>
<g
   style="fill:#b3b3b3"
   id="g538">
</g>
</svg>
