<?xml version="1.0" encoding="utf-8"?>
<!-- Generator: Adobe Illustrator 24.0.1, SVG Export Plug-In . SVG Version: 6.00 Build 0)  -->
<svg version="1.1" id="Layer_1" xmlns="http://www.w3.org/2000/svg" xmlns:xlink="http://www.w3.org/1999/xlink" x="0px" y="0px"
	 viewBox="0 0 30 30" style="enable-background:new 0 0 30 30;" xml:space="preserve">
<style type="text/css">
	.st0{fill-rule:evenodd;clip-rule:evenodd;fill:#3CA7FC;}
	.st1{fill-rule:evenodd;clip-rule:evenodd;fill:#FFFFFF;}
</style>
<path id="path4" class="st0" d="M15,0c8.28,0,15,6.72,15,15s-6.72,15-15,15S0,23.28,0,15S6.72,0,15,0z"/>
<g id="g6">
	<path id="path8" class="st1" d="M12.81,10.8c-1.99,2.06-1.56,5.49,0.73,7.01c0.08,0.05,0.18,0.04,0.24-0.02
		c0.48-0.47,0.89-0.92,1.24-1.5c0.05-0.09,0.02-0.2-0.07-0.25c-0.35-0.19-0.7-0.54-0.89-0.92l0,0c-0.23-0.47-0.31-0.99-0.19-1.53
		c0,0,0,0,0,0c0.14-0.69,0.88-1.33,1.45-1.93c0,0,0,0,0,0l2.12-2.16c0.84-0.86,2.24-0.87,3.09-0.02c0.86,0.85,0.88,2.24,0.03,3.1
		l-1.28,1.32c-0.06,0.06-0.08,0.15-0.05,0.23c0.3,0.86,0.37,2.07,0.17,2.98c-0.01,0.03,0.03,0.04,0.04,0.02l2.73-2.79
		c1.75-1.78,1.73-4.68-0.03-6.45c-1.8-1.8-4.73-1.79-6.51,0.03l-2.8,2.86C12.81,10.79,12.81,10.8,12.81,10.8z"/>
	<path id="path10" class="st1" d="M17.92,18.2C17.92,18.2,17.92,18.2,17.92,18.2C17.92,18.2,17.92,18.2,17.92,18.2
		c0.56-1.02,0.67-2.19,0.41-3.33l0,0l0,0c-0.25-1.02-0.93-2.02-1.85-2.65c-0.08-0.05-0.21-0.05-0.28,0.01
		c-0.47,0.38-0.93,0.86-1.23,1.48c-0.05,0.1-0.01,0.21,0.08,0.27c0.35,0.2,0.67,0.5,0.88,0.9h0c0.17,0.28,0.33,0.81,0.22,1.38l0,0
		c-0.1,0.76-0.86,1.45-1.47,2.08l0,0c-0.46,0.47-1.64,1.67-2.11,2.15c-0.85,0.86-2.24,0.88-3.1,0.03c-0.86-0.85-0.88-2.24-0.03-3.1
		l1.29-1.32c0.06-0.06,0.08-0.15,0.05-0.23c-0.29-0.88-0.36-2.06-0.18-2.97c0.01-0.03-0.03-0.04-0.04-0.02l-2.69,2.75
		c-1.76,1.8-1.75,4.73,0.03,6.51c1.8,1.76,4.72,1.73,6.48-0.07C14.98,21.39,17.6,18.96,17.92,18.2L17.92,18.2z"/>
</g>
</svg>
