<svg id="Calque_1" data-name="Calque 1" xmlns="http://www.w3.org/2000/svg" viewBox="0 0 267.14 112.31"><title>logo</title><path d="M48.23,88.2A24.12,24.12,0,1,1,24.11,64.08,24.11,24.11,0,0,1,48.23,88.2" style="fill:#79186c"/><path d="M101.64,88.2A24.12,24.12,0,1,1,77.52,64.08,24.11,24.11,0,0,1,101.64,88.2" style="fill:#e5007a"/><path d="M54.48,14.79c-5.91,0-10.4,1.59-13.4,4.8s-4.47,8-4.47,14.31S38.08,45,41.08,48.15s7.49,4.78,13.4,4.78,10.35-1.58,13.34-4.78,4.45-8,4.45-14.25S70.8,22.8,67.82,19.59s-7.47-4.8-13.34-4.8m8,27.23c-1.48,2-4.09,3-8,3s-6.49-1-8-3c-1.21-1.61-1.85-4.32-1.85-8.12s.64-6.51,1.85-8.12c1.48-2,4.09-3.07,8-3.07s6.48,1,8,3.06c1.21,1.62,1.85,4.33,1.85,8.13s-.64,6.51-1.85,8.12" style="fill:#494c53"/><path d="M173.08,14.8c-5.91,0-10.4,1.58-13.39,4.79s-4.48,8-4.48,14.31,1.48,11.05,4.48,14.25,7.48,4.78,13.39,4.78h0c5.87,0,10.34-1.58,13.33-4.78s4.45-8,4.45-14.25-1.47-11.1-4.45-14.31-7.47-4.8-13.34-4.79M181,42c-1.47,2-4.09,3-8,3s-6.49-1-8-3c-1.22-1.61-1.86-4.32-1.85-8.12s.63-6.51,1.85-8.12c1.47-2,4.09-3.07,8-3.07s6.48,1,8,3.06c1.21,1.62,1.85,4.33,1.85,8.13S182.25,40.41,181,42" style="fill:#494c53"/><path d="M250.35,14.77v0c-6.37,0-10,1.37-12.85,4.09A9.84,9.84,0,0,0,234.59,26v.32h8.29V26a2.68,2.68,0,0,1,1-2.22c1.22-.94,2.72-1.42,6.44-1.42s6.26.48,7.46,1.41a2.78,2.78,0,0,1,1,2.42,2.71,2.71,0,0,1-1,2.35c-1.21.93-3.7,1.41-7.47,1.41-6.38,0-11,1.36-13.8,4.11a10,10,0,0,0-2.91,7.39,10,10,0,0,0,2.9,7.38C239.36,51.59,244,53,250.32,53h0c11.16,0,16.83-3.83,16.82-11.49V26.2c0-7.61-5.66-11.44-16.79-11.43m-8.42,26.68a2.78,2.78,0,0,1,1-2.4c1.2-.89,3.67-1.35,7.38-1.35a28.64,28.64,0,0,0,8.5-1.11V41.5a2.81,2.81,0,0,1-1,2.43c-1.21.94-3.7,1.43-7.47,1.43s-6.18-.49-7.38-1.42a2.74,2.74,0,0,1-1-2.32l0,0Z" style="fill:#494c53"/><path d="M17.4,22.07h.1a8.67,8.67,0,0,1,5.29,1.48,7.57,7.57,0,0,1,1.7,2.31,3.9,3.9,0,0,0,3.73,2.32h4.86L33,27.3a13.39,13.39,0,0,0-4.39-9c-2.77-2.35-6.48-3.51-11.09-3.5-5.65,0-10,1.64-13.08,5S0,27.72,0,34,1.42,44.77,4.33,48s7.1,5,12.55,5c4.68,0,8.48-1.16,11.37-3.48A13.86,13.86,0,0,0,33,40L33,39.5l0-.34H25.35l-.16.58.3.08-.3-.08a8.12,8.12,0,0,1-2.6,4.46,8.55,8.55,0,0,1-5.26,1.59h-.16a8,8,0,0,1-6.77-3.08C8.8,40.7,8,37.81,8,34s.82-6.93,2.42-8.93a8.64,8.64,0,0,1,7-3" style="fill:#494c53"/><path d="M133.39,14.79c-5.91,0-10.4,1.59-13.4,4.8s-4.47,8-4.47,14.31V52h8V33.86c0-3.79.64-6.48,1.86-8.09,1.52-2,4.16-3.06,8-3.07s6.48,1.05,8,3.07c1.21,1.61,1.85,4.3,1.85,8.09v14.2A3.8,3.8,0,0,0,147.12,52h4.06V33.9c0-6.31-1.46-11.1-4.45-14.31s-7.46-4.8-13.34-4.8" style="fill:#494c53"/><path d="M106.51,15.73h-4.05V52h8V19.67a3.8,3.8,0,0,0-3.94-3.94" style="fill:#494c53"/><path d="M212.2,14.8c-5.9,0-10.4,1.58-13.39,4.79s-4.48,8-4.48,14.31,1.48,11.06,4.48,14.25,7.49,4.78,13.39,4.78H222v.76a5.32,5.32,0,0,1-1.18,3.86c-1.4,1.47-4.27,2.27-8.63,2.26H202A3.78,3.78,0,0,0,198,63.75v4H212.2c5.87,0,10.31-1.15,13.31-3.5S230,58.33,230,53.7V33.91c0-6.31-1.47-11.1-4.46-14.32s-7.46-4.8-13.34-4.79m-8,11c1.52-2,4.16-3.07,8-3.08s6.48,1.05,8,3.07c1.21,1.62,1.86,4.32,1.85,8.13V45H212.2c-3.87,0-6.52-1-8-3-1.21-1.66-1.86-4.37-1.86-8.12s.65-6.51,1.86-8.12" style="fill:#494c53"/><path d="M83.23,3.3C80,5.56,78.38,9,78.39,13.64v2.09H74.12v7.91h4.27V52h8V23.64h7.47a3.8,3.8,0,0,0,2.83-1.1,3.85,3.85,0,0,0,1.1-2.83v-4H86.44v-2.1a4.91,4.91,0,0,1,1.79-4.19c1.12-.83,3-1.11,5.71-1.37A4.11,4.11,0,0,0,96.74,7a3.8,3.8,0,0,0,1.1-2.82V0h-.31c-6.31,0-11.07,1.06-14.3,3.3" style="fill:#494c53"/><path d="M106.38,4.42a4.49,4.49,0,1,0,4.49,4.48,4.47,4.47,0,0,0-4.49-4.48" style="fill:#494c53"/></svg>