<svg xmlns="http://www.w3.org/2000/svg" viewBox="0 0 217 41"><title>logo_new_site</title><g id="baseline"><path d="M6.92,30.283h5.973v.569H7.544v3.259h4.81v.569H7.544v3.33h5.409v.569H6.92Z" style="fill:#515d71"/><path d="M14.823,32.535h.588v1.078a2.256,2.256,0,0,1,2.039-1.221,2.2,2.2,0,0,1,2.063,1.3,2.432,2.432,0,0,1,2.207-1.3,2.285,2.285,0,0,1,2.351,2.525v3.662h-.588v-3.59c0-1.3-.684-2.063-1.811-2.063a1.958,1.958,0,0,0-1.931,2.133v3.52h-.588V34.953a1.782,1.782,0,0,0-1.787-2.027,2.049,2.049,0,0,0-1.955,2.169v3.484h-.588Z" style="fill:#515d71"/><path d="M26.227,32.535h.588v1.351a2.959,2.959,0,0,1,2.519-1.494,3.019,3.019,0,0,1,2.975,3.141v.023a3.04,3.04,0,0,1-2.975,3.164,2.948,2.948,0,0,1-2.519-1.445v3.2h-.588Zm5.446,3.045v-.024a2.445,2.445,0,0,0-2.4-2.607,2.545,2.545,0,0,0-2.494,2.6v.024a2.538,2.538,0,0,0,2.494,2.6A2.377,2.377,0,0,0,31.673,35.581Z" style="fill:#515d71"/><path d="M34.142,32.535h.588v1.718a2.894,2.894,0,0,1,2.711-1.814v.641h-.06A2.707,2.707,0,0,0,34.73,36.1v2.477h-.588Z" style="fill:#515d71"/><path d="M38.819,36.232v-3.7h.588v3.59a1.855,1.855,0,0,0,1.943,2.062,2.084,2.084,0,0,0,2.123-2.157v-3.5h.588v6.044h-.588V37.453a2.4,2.4,0,0,1-2.207,1.268A2.315,2.315,0,0,1,38.819,36.232Z" style="fill:#515d71"/><path d="M46.29,32.535h.588v1.126a2.4,2.4,0,0,1,2.207-1.269,2.315,2.315,0,0,1,2.447,2.489v3.7h-.588v-3.59A1.856,1.856,0,0,0,49,32.925a2.084,2.084,0,0,0-2.123,2.158v3.5H46.29Z" style="fill:#515d71"/><path d="M53.965,37.026V33.067h-.888v-.532h.888V30.6h.588v1.932H56.7v.532H54.552v3.9a1.068,1.068,0,0,0,1.223,1.173,2.063,2.063,0,0,0,.9-.214v.546a2.271,2.271,0,0,1-1,.212A1.555,1.555,0,0,1,53.965,37.026Z" style="fill:#515d71"/><path d="M57.838,35.569v-.024a2.994,2.994,0,0,1,2.9-3.153,2.875,2.875,0,0,1,2.807,3.164,1.474,1.474,0,0,1-.012.238H58.461a2.413,2.413,0,0,0,2.4,2.382,2.761,2.761,0,0,0,2.1-.948l.408.356a3.231,3.231,0,0,1-2.531,1.137A3.019,3.019,0,0,1,57.838,35.569Zm5.074-.3a2.253,2.253,0,0,0-2.2-2.347,2.369,2.369,0,0,0-2.255,2.347Z" style="fill:#515d71"/><path d="M64.661,38.247l4.413-5.192H64.829v-.521H69.95v.331l-4.413,5.19H69.95v.522H64.661Z" style="fill:#515d71"/><path d="M71.593,37.571h.792v1.008h-.792Z" style="fill:#515d71"/><path d="M78.3,30.283h.624v8.3H78.3Z" style="fill:#515d71"/><path d="M81.365,32.535h.588v1.126a2.4,2.4,0,0,1,2.207-1.269,2.315,2.315,0,0,1,2.447,2.489v3.7h-.588v-3.59a1.856,1.856,0,0,0-1.944-2.063,2.084,2.084,0,0,0-2.123,2.158v3.5h-.588Z" style="fill:#515d71"/><path d="M87.853,32.535h.684l2.315,5.391,2.338-5.391h.66L91.1,38.626h-.5Z" style="fill:#515d71"/><path d="M94.676,35.569v-.024a2.994,2.994,0,0,1,2.9-3.153,2.875,2.875,0,0,1,2.807,3.164,1.474,1.474,0,0,1-.012.238H95.3a2.413,2.413,0,0,0,2.4,2.382,2.761,2.761,0,0,0,2.1-.948l.408.356a3.231,3.231,0,0,1-2.531,1.137A3.019,3.019,0,0,1,94.676,35.569Zm5.074-.3a2.253,2.253,0,0,0-2.2-2.347A2.369,2.369,0,0,0,95.3,35.272Z" style="fill:#515d71"/><path d="M101.571,37.82l.348-.462a3.617,3.617,0,0,0,2.2.793c.827,0,1.475-.45,1.475-1.149v-.024c0-.711-.768-.972-1.619-1.209-1-.284-2.1-.581-2.1-1.659v-.024a1.792,1.792,0,0,1,2.015-1.671,4.165,4.165,0,0,1,2.171.664l-.312.486a3.536,3.536,0,0,0-1.883-.6c-.84,0-1.391.45-1.391,1.055v.023c0,.675.828.925,1.7,1.174.984.272,2.015.628,2.015,1.695v.023a1.89,1.89,0,0,1-2.111,1.766A4.219,4.219,0,0,1,101.571,37.82Z" style="fill:#515d71"/><path d="M108.263,37.026V33.067h-.888v-.532h.888V30.6h.588v1.932H111v.532h-2.147v3.9a1.068,1.068,0,0,0,1.223,1.173,2.063,2.063,0,0,0,.9-.214v.546a2.271,2.271,0,0,1-1,.212A1.555,1.555,0,0,1,108.263,37.026Z" style="fill:#515d71"/><path d="M112.748,30.164h.731v.794h-.731Zm.072,2.371h.588v6.044h-.588Z" style="fill:#515d71"/><path d="M115.194,37.82l.348-.462a3.617,3.617,0,0,0,2.2.793c.828,0,1.475-.45,1.475-1.149v-.024c0-.711-.768-.972-1.619-1.209-1-.284-2.1-.581-2.1-1.659v-.024a1.792,1.792,0,0,1,2.015-1.671,4.169,4.169,0,0,1,2.171.664l-.312.486a3.54,3.54,0,0,0-1.884-.6c-.839,0-1.391.45-1.391,1.055v.023c0,.675.828.925,1.7,1.174.984.272,2.016.628,2.016,1.695v.023A1.89,1.89,0,0,1,117.7,38.7,4.219,4.219,0,0,1,115.194,37.82Z" style="fill:#515d71"/><path d="M121.035,37.82l.348-.462a3.616,3.616,0,0,0,2.194.793c.828,0,1.476-.45,1.476-1.149v-.024c0-.711-.768-.972-1.619-1.209-1-.284-2.1-.581-2.1-1.659v-.024a1.791,1.791,0,0,1,2.014-1.671,4.164,4.164,0,0,1,2.171.664l-.312.486a3.533,3.533,0,0,0-1.882-.6c-.84,0-1.391.45-1.391,1.055v.023c0,.675.827.925,1.7,1.174.983.272,2.014.628,2.014,1.695v.023a1.889,1.889,0,0,1-2.11,1.766A4.218,4.218,0,0,1,121.035,37.82Z" style="fill:#515d71"/><path d="M127.1,35.569v-.024a3,3,0,0,1,2.9-3.153,2.875,2.875,0,0,1,2.806,3.164,1.54,1.54,0,0,1-.012.238h-5.074a2.413,2.413,0,0,0,2.4,2.382,2.761,2.761,0,0,0,2.1-.948l.408.356a3.231,3.231,0,0,1-2.531,1.137A3.02,3.02,0,0,1,127.1,35.569Zm5.074-.3a2.253,2.253,0,0,0-2.2-2.347,2.369,2.369,0,0,0-2.255,2.347Z" style="fill:#515d71"/><path d="M133.925,38.247l4.414-5.192h-4.246v-.521h5.122v.331l-4.414,5.19h4.414v.522h-5.29Z" style="fill:#515d71"/><path d="M140.857,37.571h.791v1.008h-.791Z" style="fill:#515d71"/><path d="M147.477,30.283h5.973v.569H148.1v3.259h4.81v.569H148.1v3.33h5.409v.569h-6.032Z" style="fill:#515d71"/><path d="M155.38,32.535h.588v1.126a2.4,2.4,0,0,1,2.207-1.269,2.315,2.315,0,0,1,2.447,2.489v3.7h-.588v-3.59a1.856,1.856,0,0,0-1.943-2.063,2.084,2.084,0,0,0-2.123,2.158v3.5h-.588Z" style="fill:#515d71"/><path d="M163.055,37.026V33.067h-.888v-.532h.888V30.6h.588v1.932h2.146v.532h-2.146v3.9a1.067,1.067,0,0,0,1.223,1.173,2.062,2.062,0,0,0,.9-.214v.546a2.273,2.273,0,0,1-1,.212A1.555,1.555,0,0,1,163.055,37.026Z" style="fill:#515d71"/><path d="M167.529,32.535h.588v1.718a2.892,2.892,0,0,1,2.711-1.814v.641h-.061a2.707,2.707,0,0,0-2.65,3.021v2.477h-.588Z" style="fill:#515d71"/><path d="M171.605,35.569v-.024a3,3,0,0,1,2.9-3.153,2.875,2.875,0,0,1,2.806,3.164,1.54,1.54,0,0,1-.012.238h-5.074a2.413,2.413,0,0,0,2.4,2.382,2.761,2.761,0,0,0,2.1-.948l.408.356a3.231,3.231,0,0,1-2.531,1.137A3.02,3.02,0,0,1,171.605,35.569Zm5.074-.3a2.253,2.253,0,0,0-2.2-2.347,2.369,2.369,0,0,0-2.255,2.347Z" style="fill:#515d71"/><path d="M182,32.535h.684L185,37.927l2.339-5.391H188l-2.747,6.091h-.5Z" style="fill:#515d71"/><path d="M188.825,35.581v-.024a3.141,3.141,0,0,1,3.155-3.164,3.109,3.109,0,0,1,3.131,3.141v.023a3.141,3.141,0,0,1-3.155,3.164A3.109,3.109,0,0,1,188.825,35.581Zm5.65,0v-.024a2.548,2.548,0,0,0-2.519-2.618,2.508,2.508,0,0,0-2.5,2.6v.023a2.548,2.548,0,0,0,2.519,2.619A2.508,2.508,0,0,0,194.475,35.581Z" style="fill:#515d71"/><path d="M196.8,36.232v-3.7h.588v3.59a1.855,1.855,0,0,0,1.943,2.062,2.083,2.083,0,0,0,2.123-2.157v-3.5h.588v6.044h-.588V37.453a2.4,2.4,0,0,1-2.207,1.268A2.315,2.315,0,0,1,196.8,36.232Z" style="fill:#515d71"/><path d="M203.744,37.82l.348-.462a3.616,3.616,0,0,0,2.194.793c.828,0,1.476-.45,1.476-1.149v-.024c0-.711-.768-.972-1.619-1.209-1-.284-2.1-.581-2.1-1.659v-.024a1.791,1.791,0,0,1,2.014-1.671,4.164,4.164,0,0,1,2.171.664l-.312.486a3.533,3.533,0,0,0-1.882-.6c-.84,0-1.391.45-1.391,1.055v.023c0,.675.827.925,1.7,1.174.983.272,2.014.628,2.014,1.695v.023a1.889,1.889,0,0,1-2.11,1.766A4.218,4.218,0,0,1,203.744,37.82Z" style="fill:#515d71"/><path d="M210.1,37.571h.791v1.008H210.1Z" style="fill:#515d71"/></g><g id="younited"><path d="M11.371,26.585A6.788,6.788,0,0,1,9.5,26.349,8.152,8.152,0,0,1,7.9,25.7l1.138-2.5a5.7,5.7,0,0,0,.958.4,3.372,3.372,0,0,0,1.013.153,1.912,1.912,0,0,0,1.194-.361,3.312,3.312,0,0,0,.889-1.333L6.984,7.4h3.582l4.165,10.885L18.535,7.4h3.5L16.2,22.476a12.455,12.455,0,0,1-.916,1.916,5.015,5.015,0,0,1-1.055,1.264,3.791,3.791,0,0,1-1.277.708A5.193,5.193,0,0,1,11.371,26.585Z" style="fill:#515d71"/><path d="M31.336,22.392a7.956,7.956,0,0,1-3.1-.6,7.693,7.693,0,0,1-2.471-1.624,7.352,7.352,0,0,1-1.624-2.416,7.522,7.522,0,0,1-.583-2.943v-.056a7.437,7.437,0,0,1,.6-2.971A7.652,7.652,0,0,1,28.267,7.7a7.877,7.877,0,0,1,3.124-.611,8.038,8.038,0,0,1,3.124.6,7.517,7.517,0,0,1,4.1,4.054,7.492,7.492,0,0,1,.583,2.957v.055a7.374,7.374,0,0,1-.6,2.943,7.614,7.614,0,0,1-4.124,4.082A7.975,7.975,0,0,1,31.336,22.392Zm.056-2.915a4.338,4.338,0,0,0,1.835-.375,4.261,4.261,0,0,0,1.394-1.014A4.383,4.383,0,0,0,35.5,16.6a5.27,5.27,0,0,0,.3-1.791v-.056a5.069,5.069,0,0,0-.331-1.832,4.617,4.617,0,0,0-.925-1.5,4.43,4.43,0,0,0-1.407-1.013,4.545,4.545,0,0,0-3.615,0,4.367,4.367,0,0,0-1.394,1,4.219,4.219,0,0,0-.883,1.486,5.394,5.394,0,0,0-.3,1.805v.055a4.946,4.946,0,0,0,.331,1.819,4.8,4.8,0,0,0,.924,1.5A4.325,4.325,0,0,0,29.611,19.1,4.2,4.2,0,0,0,31.391,19.477Z" style="fill:#515d71"/><path d="M47.093,22.365a4.877,4.877,0,0,1-3.849-1.527,5.961,5.961,0,0,1-1.357-4.11V7.4h3.388v8.311a3.894,3.894,0,0,0,.812,2.646,2.892,2.892,0,0,0,2.3.928,3.117,3.117,0,0,0,2.367-.956,3.724,3.724,0,0,0,.909-2.673V7.4h3.388V22.059H51.661v-2.3a7.194,7.194,0,0,1-1.8,1.835A4.656,4.656,0,0,1,47.093,22.365Z" style="fill:#eb5b26"/><path d="M58.714,7.4H62.1V9.7a8.2,8.2,0,0,1,.789-.994,5.139,5.139,0,0,1,1-.826A5.059,5.059,0,0,1,65.134,7.3a5.182,5.182,0,0,1,1.537-.21A4.88,4.88,0,0,1,70.519,8.62a5.964,5.964,0,0,1,1.357,4.11v9.33H68.488V13.749a3.894,3.894,0,0,0-.812-2.646,2.892,2.892,0,0,0-2.3-.928,3.118,3.118,0,0,0-2.367.956A3.725,3.725,0,0,0,62.1,13.8v8.256H58.714Z" style="fill:#515d71"/><path d="M75.43,1.956h3.638V5.149H75.43ZM75.569,7.4h3.388V22.059H75.569Z" style="fill:#515d71"/><path d="M87.7,22.309a6.222,6.222,0,0,1-1.7-.222,3.483,3.483,0,0,1-1.358-.722,3.2,3.2,0,0,1-.882-1.319,5.838,5.838,0,0,1-.308-2.041V10.286h-1.86V7.4h1.86V3.372h3.388V7.4h3.943v2.888H86.842v7.192a1.816,1.816,0,0,0,.472,1.4,1.905,1.905,0,0,0,1.333.43,4.6,4.6,0,0,0,2.083-.5v2.749a5.816,5.816,0,0,1-1.361.555A6.446,6.446,0,0,1,87.7,22.309Z" style="fill:#515d71"/><path d="M100.309,22.392a7.819,7.819,0,0,1-2.957-.555,7.093,7.093,0,0,1-3.985-3.957,7.986,7.986,0,0,1-.583-3.1v-.056a8.293,8.293,0,0,1,.527-2.971A7.459,7.459,0,0,1,94.8,9.328,7,7,0,0,1,97.061,7.69a6.865,6.865,0,0,1,2.888-.6,6.966,6.966,0,0,1,3.068.639,6.313,6.313,0,0,1,2.194,1.722,7.491,7.491,0,0,1,1.319,2.513,10.108,10.108,0,0,1,.444,3.013c0,.148,0,.3-.014.458s-.023.32-.042.486H96.144a4.281,4.281,0,0,0,1.43,2.763,4.221,4.221,0,0,0,2.791.958,4.916,4.916,0,0,0,2.166-.444,7.038,7.038,0,0,0,1.8-1.305l1.971,1.749a8.119,8.119,0,0,1-2.513,2A7.534,7.534,0,0,1,100.309,22.392Zm3.332-8.691a5.761,5.761,0,0,0-.361-1.513,3.886,3.886,0,0,0-.75-1.222,3.571,3.571,0,0,0-1.125-.819,3.465,3.465,0,0,0-1.486-.306,3.387,3.387,0,0,0-2.568,1.069A4.828,4.828,0,0,0,96.116,13.7Z" style="fill:#515d71"/><path d="M115.859,22.365a6.614,6.614,0,0,1-2.527-.5,6.334,6.334,0,0,1-2.166-1.472,7.45,7.45,0,0,1-1.527-2.388,8.476,8.476,0,0,1-.583-3.249V14.7a8.674,8.674,0,0,1,.568-3.249,7.265,7.265,0,0,1,1.51-2.388,6.291,6.291,0,0,1,2.175-1.472,6.683,6.683,0,0,1,2.535-.5,5.369,5.369,0,0,1,2.992.778,8.187,8.187,0,0,1,1.995,1.8V1.789h3.388v20.27h-3.388l.028-2.443a7.6,7.6,0,0,1-2.013,1.944A5.265,5.265,0,0,1,115.859,22.365Zm.791-2.916a4.047,4.047,0,0,0,2.961-1.291,4.763,4.763,0,0,0,.927-1.486,5.091,5.091,0,0,0,.346-1.916V14.7a5.2,5.2,0,0,0-.346-1.93,4.564,4.564,0,0,0-.927-1.486,4.083,4.083,0,0,0-1.356-.944,4.027,4.027,0,0,0-1.605-.333,4.152,4.152,0,0,0-1.619.319,3.943,3.943,0,0,0-1.342.93,4.38,4.38,0,0,0-.913,1.486,5.487,5.487,0,0,0-.332,1.958v.055a5.4,5.4,0,0,0,.332,1.93,4.377,4.377,0,0,0,.913,1.486,4.111,4.111,0,0,0,1.342.944A3.994,3.994,0,0,0,116.65,19.449Z" style="fill:#515d71"/><path d="M142.21,22.392a6.7,6.7,0,0,1-2.791-.583,7.285,7.285,0,0,1-2.249-1.569,7.179,7.179,0,0,1-1.5-2.3,7.272,7.272,0,0,1-.541-2.791V15.09a7.276,7.276,0,0,1,.541-2.791,7.14,7.14,0,0,1,3.762-3.874,6.8,6.8,0,0,1,2.8-.583,6.4,6.4,0,0,1,3.207.736,10.194,10.194,0,0,1,2.346,1.847l-.416.389a9.431,9.431,0,0,0-2.18-1.708A5.91,5.91,0,0,0,142.21,8.4a6.22,6.22,0,0,0-2.568.528,6.447,6.447,0,0,0-2.055,1.444,6.624,6.624,0,0,0-1.361,2.124,6.813,6.813,0,0,0-.486,2.569v.055a6.845,6.845,0,0,0,1.874,4.72,6.587,6.587,0,0,0,2.069,1.458,6.11,6.11,0,0,0,2.555.541,5.77,5.77,0,0,0,3.041-.763,9.074,9.074,0,0,0,2.18-1.819l.416.389a9.09,9.09,0,0,1-2.346,1.944A6.458,6.458,0,0,1,142.21,22.392Z" style="fill:#515d71;stroke:#515d71;stroke-miterlimit:10;stroke-width:0.544073343276978px"/><path d="M151.123,8.176h.611v4.443a8.094,8.094,0,0,1,.736-1.722,6.485,6.485,0,0,1,1.208-1.541,5.848,5.848,0,0,1,1.666-1.1,5.174,5.174,0,0,1,2.11-.416V8.4h-.139a4.325,4.325,0,0,0-2.332.638,6.411,6.411,0,0,0-1.75,1.6,7.469,7.469,0,0,0-1.111,2.1,6.628,6.628,0,0,0-.389,2.138v7.192h-.611Z" style="fill:#515d71;stroke:#515d71;stroke-miterlimit:10;stroke-width:0.544073343276978px"/><path d="M165.855,22.392a7.081,7.081,0,0,1-2.686-.513,6.622,6.622,0,0,1-2.212-1.458,6.922,6.922,0,0,1-1.5-2.291,7.815,7.815,0,0,1-.557-3.013v-.055a8.084,8.084,0,0,1,.5-2.86,6.877,6.877,0,0,1,1.388-2.291A6.534,6.534,0,0,1,162.9,8.4a6.365,6.365,0,0,1,2.666-.555,5.906,5.906,0,0,1,2.846.652,6.072,6.072,0,0,1,2,1.708,7.231,7.231,0,0,1,1.166,2.36,9.416,9.416,0,0,1,.375,2.61v.111h-12.44a6.989,6.989,0,0,0,.558,2.708,6.774,6.774,0,0,0,1.381,2.069,5.8,5.8,0,0,0,1.995,1.319,6.466,6.466,0,0,0,2.427.458,5.627,5.627,0,0,0,2.971-.819,7.305,7.305,0,0,0,2.19-1.985l.474.333a7.251,7.251,0,0,1-2.351,2.166A6.377,6.377,0,0,1,165.855,22.392Zm5.483-7.636a8.361,8.361,0,0,0-.446-2.332,6.522,6.522,0,0,0-1.116-2.027,5.631,5.631,0,0,0-1.8-1.444,5.237,5.237,0,0,0-2.441-.555,5.726,5.726,0,0,0-2.385.486,5.85,5.85,0,0,0-1.869,1.333,6.264,6.264,0,0,0-1.255,2.013,7.679,7.679,0,0,0-.516,2.527Z" style="fill:#515d71;stroke:#515d71;stroke-miterlimit:10;stroke-width:0.544073343276978px"/><path d="M181.513,22.392a6.72,6.72,0,0,1-2.771-.569,6.776,6.776,0,0,1-3.644-3.846,7.816,7.816,0,0,1-.512-2.832V15.09a7.816,7.816,0,0,1,.512-2.832,6.776,6.776,0,0,1,3.644-3.846,6.72,6.72,0,0,1,2.771-.569,7.008,7.008,0,0,1,2.231.347,6.547,6.547,0,0,1,1.87.972,6.288,6.288,0,0,1,1.413,1.472,6.7,6.7,0,0,1,.887,1.847V1.789h.611v20.27h-.611v-4.3a6.694,6.694,0,0,1-.887,1.847,6.282,6.282,0,0,1-1.413,1.472,6.54,6.54,0,0,1-1.87.972A7.008,7.008,0,0,1,181.513,22.392Zm.028-.555a6.125,6.125,0,0,0,2.591-.541,6.3,6.3,0,0,0,2.023-1.458,6.688,6.688,0,0,0,1.316-2.124,7,7,0,0,0,.471-2.568V15.09a7.037,7.037,0,0,0-.471-2.555,6.466,6.466,0,0,0-3.352-3.6,6.032,6.032,0,0,0-2.577-.541,6.406,6.406,0,0,0-2.591.514,5.9,5.9,0,0,0-2.009,1.416,6.416,6.416,0,0,0-1.289,2.124,7.4,7.4,0,0,0-.457,2.61v.055a7.393,7.393,0,0,0,.457,2.61,6.572,6.572,0,0,0,1.289,2.138,5.966,5.966,0,0,0,2.009,1.444A6.258,6.258,0,0,0,181.542,21.837Z" style="fill:#515d71;stroke:#515d71;stroke-miterlimit:10;stroke-width:0.544073343276978px"/><path d="M193.162,2.622h.888V4.2h-.888Zm.139,5.554h.611V22.059H193.3Z" style="fill:#515d71;stroke:#515d71;stroke-miterlimit:10;stroke-width:0.544073343276978px"/><path d="M202.992,22.309a3.46,3.46,0,0,1-2.666-.986,3.987,3.987,0,0,1-.916-2.818V8.7h-2.194V8.176h2.194v-4.8h.611v4.8h5.137V8.7h-5.137V18.45a3.65,3.65,0,0,0,.736,2.443,2.779,2.779,0,0,0,2.235.861,4.661,4.661,0,0,0,2.11-.5v.611A5.024,5.024,0,0,1,202.992,22.309Z" style="fill:#515d71;stroke:#515d71;stroke-miterlimit:10;stroke-width:0.544073343276978px"/><path d="M207.5,18.793h3.171v3.267H207.5Z" style="fill:#eb5b26"/></g></svg>