<?xml version="1.0" encoding="UTF-8" standalone="no"?>
<svg
   inkscape:version="1.2 (dc2aeda, 2022-05-15)"
   height="113"
   width="475"
   sodipodi:docname="logo_black.svg"
   xml:space="preserve"
   viewBox="0 0 475 113"
   y="0px"
   x="0px"
   id="Layer_1"
   version="1.1"
   xmlns:inkscape="http://www.inkscape.org/namespaces/inkscape"
   xmlns:sodipodi="http://sodipodi.sourceforge.net/DTD/sodipodi-0.dtd"
   xmlns="http://www.w3.org/2000/svg"
   xmlns:svg="http://www.w3.org/2000/svg"
   xmlns:rdf="http://www.w3.org/1999/02/22-rdf-syntax-ns#"
   xmlns:cc="http://creativecommons.org/ns#"
   xmlns:dc="http://purl.org/dc/elements/1.1/"><metadata
   id="metadata57"><rdf:RDF><cc:Work
       rdf:about=""><dc:format>image/svg+xml</dc:format><dc:type
         rdf:resource="http://purl.org/dc/dcmitype/StillImage" /></cc:Work></rdf:RDF></metadata><defs
   id="defs55" /><sodipodi:namedview
   inkscape:current-layer="g38"
   inkscape:window-maximized="0"
   inkscape:window-y="81"
   inkscape:window-x="880"
   inkscape:cy="210.84986"
   inkscape:cx="276.64254"
   inkscape:zoom="1.5959223"
   showgrid="false"
   id="namedview53"
   inkscape:window-height="1205"
   inkscape:window-width="1804"
   inkscape:pageshadow="2"
   inkscape:pageopacity="0"
   guidetolerance="10"
   gridtolerance="10"
   objecttolerance="10"
   borderopacity="1"
   bordercolor="#666666"
   pagecolor="#ffffff"
   inkscape:pagecheckerboard="0"
   showguides="true"
   inkscape:guide-bbox="true"
   inkscape:showpageshadow="2"
   inkscape:deskcolor="#d1d1d1" />
<style
   id="style10"
   type="text/css">
	.st0{fill:none;}
	.st1{fill:#3CA7FC;}
	.st2{fill-rule:evenodd;clip-rule:evenodd;}
	.st3{fill-rule:evenodd;clip-rule:evenodd;fill:#3CA7FC;}
</style>
<g
   id="g50">
	<g
   id="g38"
   transform="translate(4.3861784,-137.22473)">
		
		
	<g
   aria-label="
ExpertCrédits"
   id="text5112"
   style="font-size:40px;line-height:0;font-family:Montserrat;-inkscape-font-specification:Montserrat"><path
     d="M 1.6839585,144.94805 H 33.143943 v 10.41333 H 12.537287 v 9.23999 H 30.870611 V 175.0147 H 12.537287 v 10.85333 h 20.606656 v 10.41333 H 1.6839585 Z"
     style="font-size:32px;line-height:0.85;font-family:Fellix;-inkscape-font-specification:Fellix;text-align:end;text-anchor:end"
     id="path39074" /><path
     d="m 75.163817,196.28136 h -12.46666 l -6.819997,-9.75333 -6.819997,9.75333 H 36.737169 L 49.717163,177.72803 37.543835,160.27471 h 12.466661 l 5.939997,8.50666 6.013331,-8.50666 H 74.283818 L 62.11049,177.6547 Z"
     style="font-weight:bold;font-size:73.3333px;line-height:0.92;font-family:Fellix;-inkscape-font-specification:'Fellix Bold';text-align:end;text-anchor:end"
     id="path39076" /><path
     d="m 101.41706,159.54138 q 6.96666,0 11.80666,5.49999 4.91333,5.42667 4.91333,13.2 0,7.77333 -4.91333,13.27332 -4.84,5.5 -11.80666,5.5 -7.479997,0 -11.366662,-5.79333 v 16.93999 H 79.710403 v -47.88664 h 10.339995 v 5.06 q 3.886665,-5.79333 11.366662,-5.79333 z m -2.346666,27.57332 q 3.739996,0 6.379996,-2.56667 2.64,-2.56666 2.64,-6.30666 0,-3.66667 -2.64,-6.23333 -2.64,-2.64 -6.379996,-2.64 -3.813332,0 -6.45333,2.56666 -2.566666,2.56667 -2.566666,6.30667 0,3.81333 2.566666,6.37999 2.639998,2.49334 6.45333,2.49334 z"
     style="font-weight:bold;font-size:73.3333px;line-height:0.92;font-family:Fellix;-inkscape-font-specification:'Fellix Bold';text-align:end;text-anchor:end"
     id="path39078" /><path
     d="m 158.10354,176.70137 q 0,2.2 -0.29334,4.03333 h -25.88665 q 1.46666,7.48 9.23999,7.48 2.49334,0 4.69334,-1.02667 2.19999,-1.02667 3.15333,-2.64 l 8.06666,4.91333 q -1.98,3.59333 -6.23333,5.57333 -4.25333,1.98 -9.9,1.98 -7.91999,0 -13.41999,-5.42666 -5.5,-5.5 -5.5,-13.49333 0,-7.84666 5.42667,-13.19999 5.42666,-5.35333 13.27332,-5.35333 7.33333,0 12.32,4.98666 5.06,4.98667 5.06,12.17333 z m -26.03332,-2.56667 h 15.69332 q -0.29333,-2.71333 -2.49333,-4.47333 -2.2,-1.76 -5.06,-1.76 -6.6,0 -8.13999,6.23333 z"
     style="font-weight:bold;font-size:73.3333px;line-height:0.92;font-family:Fellix;-inkscape-font-specification:'Fellix Bold';text-align:end;text-anchor:end"
     id="path39080" /><path
     d="m 182.89013,159.54138 q 3.00666,0 4.76666,0.80666 l -1.17333,10.04666 q -2.05333,-0.87999 -4.62,-0.87999 -2.93333,0 -5.27999,2.34666 -2.34667,2.27333 -2.34667,6.67333 v 17.74666 h -10.34 v -36.00665 h 10.34 v 4.47333 q 1.1,-2.27333 3.66666,-3.74 2.56667,-1.46666 4.98667,-1.46666 z"
     style="font-weight:bold;font-size:73.3333px;line-height:0.92;font-family:Fellix;-inkscape-font-specification:'Fellix Bold';text-align:end;text-anchor:end"
     id="path39082" /><path
     d="m 215.89003,186.6747 0.51333,9.16666 q -2.05333,1.02667 -5.27999,1.02667 -6.45334,0 -10.41333,-3.88667 -3.96,-3.88666 -3.96,-10.77999 v -12.1 h -6.67333 v -9.82666 h 6.67333 v -9.46 h 10.33999 v 9.46 h 8.87333 v 9.82666 h -8.87333 v 11.58666 q 0,2.49333 1.61334,4.03333 1.61333,1.46667 3.95999,1.46667 1.83334,0 3.22667,-0.51333 z"
     style="font-weight:bold;font-size:73.3333px;line-height:0.92;font-family:Fellix;-inkscape-font-specification:'Fellix Bold';text-align:end;text-anchor:end"
     id="path39084" /><path
     d="m 269.35,182.7147 q -1.83334,6.30666 -8.14,10.33999 -6.30666,3.96 -14.37333,3.96 -10.99999,0 -18.47999,-7.62666 -7.40666,-7.62666 -7.40666,-18.77333 0,-11.21999 7.40666,-18.77332 7.48,-7.62666 18.47999,-7.62666 7.77333,0 13.86,3.74 6.15999,3.73999 8.06666,9.60666 l -9.68,4.62 q -1.46666,-3.37334 -4.69333,-5.35334 -3.22666,-2.05333 -7.55333,-2.05333 -6.52666,0 -10.63332,4.47333 -4.10667,4.47333 -4.10667,11.36666 0,6.82 4.10667,11.36667 4.17999,4.47333 10.63332,4.47333 4.62,0 7.92,-2.2 3.37333,-2.27333 4.62,-6.08667 z"
     style="font-weight:bold;font-size:73.3333px;line-height:0.92;font-family:Fellix;-inkscape-font-specification:'Fellix Bold';text-align:end;text-anchor:end"
     id="path39086" /><path
     d="m 293.9166,159.54138 q 3.00667,0 4.76667,0.80666 l -1.17334,10.04666 q -2.05333,-0.87999 -4.61999,-0.87999 -2.93334,0 -5.28,2.34666 -2.34667,2.27333 -2.34667,6.67333 v 17.74666 h -10.33999 v -36.00665 h 10.33999 v 4.47333 q 1.1,-2.27333 3.66667,-3.74 2.56666,-1.46666 4.98666,-1.46666 z"
     style="font-weight:bold;font-size:73.3333px;line-height:0.92;font-family:Fellix;-inkscape-font-specification:'Fellix Bold';text-align:end;text-anchor:end"
     id="path39088" /><path
     d="m 330.87644,144.87472 -8.94667,11.43999 h -9.53332 l 6.30666,-11.43999 z m 4.54666,31.82665 q 0,2.2 -0.29333,4.03333 h -25.88666 q 1.46667,7.48 9.24,7.48 2.49333,0 4.69333,-1.02667 2.2,-1.02667 3.15333,-2.64 l 8.06666,4.91333 q -1.97999,3.59333 -6.23333,5.57333 -4.25333,1.98 -9.89999,1.98 -7.92,0 -13.41999,-5.42666 -5.5,-5.5 -5.5,-13.49333 0,-7.84666 5.42666,-13.19999 5.42667,-5.35333 13.27333,-5.35333 7.33333,0 12.31999,4.98666 5.06,4.98667 5.06,12.17333 z m -26.03332,-2.56667 h 15.69333 q -0.29334,-2.71333 -2.49334,-4.47333 -2.2,-1.76 -5.05999,-1.76 -6.6,0 -8.14,6.23333 z"
     style="font-weight:bold;font-size:73.3333px;line-height:0.92;font-family:Fellix;-inkscape-font-specification:'Fellix Bold';text-align:end;text-anchor:end"
     id="path39090" /><path
     d="m 367.46963,144.94805 h 10.33999 v 51.33331 h -10.33999 v -5.13333 q -3.88667,5.86666 -11.44,5.86666 -6.96666,0 -11.87999,-5.5 -4.84,-5.49999 -4.84,-13.27332 0,-7.77333 4.84,-13.2 4.91333,-5.49999 11.87999,-5.49999 7.55333,0 11.44,5.86666 z m -9.02,42.16665 q 3.81333,0 6.38,-2.49334 2.64,-2.56666 2.64,-6.37999 0,-3.74 -2.64,-6.30667 -2.56667,-2.56666 -6.38,-2.56666 -3.74,0 -6.38,2.64 -2.63999,2.56666 -2.63999,6.23333 0,3.74 2.63999,6.30666 2.64,2.56667 6.38,2.56667 z"
     style="font-weight:bold;font-size:73.3333px;line-height:0.92;font-family:Fellix;-inkscape-font-specification:'Fellix Bold';text-align:end;text-anchor:end"
     id="path39092" /><path
     d="m 385.72952,144.65472 q 1.90666,-1.83334 4.47333,-1.83334 2.56667,0 4.4,1.83334 1.90666,1.83333 1.90666,4.4 0,2.56666 -1.90666,4.47333 -1.83333,1.83333 -4.4,1.83333 -2.56667,0 -4.47333,-1.83333 -1.83333,-1.90667 -1.83333,-4.47333 0,-2.56667 1.83333,-4.4 z m -0.66,15.61999 h 10.33999 v 36.00665 h -10.33999 z"
     style="font-weight:bold;font-size:73.3333px;line-height:0.92;font-family:Fellix;-inkscape-font-specification:'Fellix Bold';text-align:end;text-anchor:end"
     id="path39094" /><path
     d="m 425.54945,186.6747 0.51334,9.16666 q -2.05334,1.02667 -5.28,1.02667 -6.45333,0 -10.41333,-3.88667 -3.96,-3.88666 -3.96,-10.77999 v -12.1 h -6.67333 v -9.82666 h 6.67333 v -9.46 h 10.34 v 9.46 h 8.87333 v 9.82666 h -8.87333 v 11.58666 q 0,2.49333 1.61333,4.03333 1.61333,1.46667 3.96,1.46667 1.83333,0 3.22666,-0.51333 z"
     style="font-weight:bold;font-size:73.3333px;line-height:0.92;font-family:Fellix;-inkscape-font-specification:'Fellix Bold';text-align:end;text-anchor:end"
     id="path39096" /><path
     d="m 446.00944,197.01469 q -9.75333,0 -16.13333,-4.54666 l 3.08,-7.18667 q 5.13333,3.81334 12.17333,3.81334 2.41999,0 3.81333,-0.80667 1.46666,-0.80667 1.46666,-2.12667 0,-1.46666 -2.05333,-2.27333 -1.98,-0.88 -4.84,-1.46666 -2.86,-0.58667 -5.71999,-1.54 -2.86,-0.95334 -4.91333,-3.3 -1.98,-2.42 -2.05334,-6.08667 -0.0733,-5.13333 4.03333,-8.50666 4.10667,-3.44666 10.41333,-3.44666 8.58,0 13.71333,4.10666 l -2.93333,7.48 q -2.12667,-1.61333 -5.28,-2.64 -3.08,-1.1 -5.94,-1.1 -1.98,0 -3.22666,0.80667 -1.17334,0.80666 -1.17334,2.05333 0,1.39333 2.05334,2.34666 2.05333,0.88 4.91333,1.61334 2.86,0.73333 5.72,1.83333 2.93333,1.02666 4.98666,3.44666 2.05333,2.42 2.12667,6.01333 0,4.98667 -4.03334,8.28667 -3.95999,3.22666 -10.19332,3.22666 z"
     style="font-weight:bold;font-size:73.3333px;line-height:0.92;font-family:Fellix;-inkscape-font-specification:'Fellix Bold';text-align:end;text-anchor:end"
     id="path39098" /></g><g
   id="rect7553"><path
     style="color:#000000;fill:#02a95c;stroke-width:0.958;-inkscape-stroke:none"
     d="M -0.02100045,223.67409 H 294.52154 v 15.70692 H -0.02100045 Z"
     id="path39151" /><path
     style="color:#000000;fill:#02a95c;-inkscape-stroke:none"
     d="m -0.5,223.19531 v 0.47852 16.18554 H 295 v -16.66406 z m 0.95703125,0.95703 H 294.04297 v 14.75 H 0.45703125 Z"
     id="path39153" /></g><g
   aria-label="Comparez"
   id="text7713"
   style="font-size:34.6667px;font-family:Metropolis;-inkscape-font-specification:Metropolis;stroke:#000000"><g
     id="path39056"><path
       style="color:#000000;-inkscape-font-specification:Metropolis;fill:#000000;stroke:none"
       d="m 314.2146,242.01645 c 3.29334,0 6.34401,-1.42134 8.56268,-3.64 l -1.83734,-1.87201 c -1.73333,1.83734 -4.12533,3.01601 -6.72534,3.01601 -5.13067,0 -9.46401,-4.50667 -9.46401,-9.84535 0,-5.304 4.33334,-9.81067 9.46401,-9.81067 2.60001,0 4.99201,1.17867 6.72534,3.016 l 1.83734,-1.872 c -2.21867,-2.25334 -5.26934,-3.64 -8.56268,-3.64 -6.58667,0 -12.20268,5.616 -12.20268,12.30667 0,6.69068 5.61601,12.34135 12.20268,12.34135 z"
       id="path39103" /><path
       style="color:#000000;-inkscape-font-specification:Metropolis;fill:#000000;stroke:none"
       d="m 314.21484,216.86914 c -6.87087,0 -12.70312,5.83619 -12.70312,12.80664 0,6.97047 5.8305,12.83984 12.70312,12.83984 3.4372,0 6.61081,-1.47995 8.91602,-3.78515 l 0.34961,-0.35156 -2.54688,-2.59571 -0.35742,0.37891 c -1.64901,1.74796 -3.91243,2.85742 -6.36133,2.85742 -4.83787,0 -8.96484,-4.27564 -8.96484,-9.34375 0,-5.03166 4.12697,-9.31055 8.96484,-9.31055 2.4489,0 4.71232,1.10948 6.36133,2.85743 l 0.35742,0.3789 2.54493,-2.59375 -0.34571,-0.34961 c -2.30748,-2.34354 -5.48428,-3.78906 -8.91797,-3.78906 z m 0,1 c 2.97837,0 5.70162,1.25254 7.79493,3.20703 l -1.13282,1.1543 c -1.782,-1.7115 -4.09416,-2.86524 -6.66211,-2.86524 -5.42345,0 -9.96484,4.73423 -9.96484,10.31055 0,5.60924 4.54139,10.34375 9.96484,10.34375 2.56795,0 4.88011,-1.15372 6.66211,-2.86523 l 1.13086,1.15234 c -2.09527,1.93019 -4.81923,3.20898 -7.79297,3.20898 -6.3007,10e-6 -11.70312,-5.42896 -11.70312,-11.83984 0,-6.41087 5.40067,-11.80664 11.70312,-11.80664 z"
       id="path39105" /></g><g
     id="path39058"><path
       style="color:#000000;-inkscape-font-specification:Metropolis;fill:#000000;stroke:none"
       d="m 334.91056,242.01645 c 5.06134,0 9.22134,-4.22934 9.22134,-9.39468 0,-5.16533 -4.16,-9.36 -9.22134,-9.36 -5.096,0 -9.25601,4.19467 -9.25601,9.36 0,5.16534 4.16001,9.39468 9.25601,9.39468 z m 0,-2.32267 c -3.60533,0 -6.552,-3.18934 -6.552,-7.07201 0,-3.88267 2.94667,-7.03734 6.552,-7.03734 3.57067,0 6.51734,3.15467 6.51734,7.03734 0,3.88267 -2.94667,7.07201 -6.51734,7.07201 z"
       id="path39109" /><path
       style="color:#000000;-inkscape-font-specification:Metropolis;fill:#000000;stroke:none"
       d="m 334.91016,222.76172 c -5.37038,0 -9.75586,4.42559 -9.75586,9.85937 0,5.43379 4.38322,9.89454 9.75586,9.89453 5.33987,0 9.72265,-4.46074 9.72265,-9.89453 0,-5.43378 -4.38506,-9.85937 -9.72265,-9.85937 z m 0,1 c 4.78508,0 8.72265,3.96251 8.72265,8.85937 0,4.89688 -3.93986,8.89454 -8.72265,8.89453 -4.81935,10e-6 -8.75586,-3.99765 -8.75586,-8.89453 0,-4.89686 3.93424,-8.85937 8.75586,-8.85937 z m 0,1.32226 c -3.897,0 -7.05079,3.40147 -7.05079,7.53711 0,4.13565 3.15059,7.57227 7.05079,7.57227 3.8684,0 7.01757,-3.43662 7.01757,-7.57227 0,-4.13564 -3.15241,-7.53711 -7.01757,-7.53711 z m 0,1 c 3.27616,0 6.01757,2.90742 6.01757,6.53711 0,3.62969 -2.74464,6.57227 -6.01757,6.57227 -3.31046,0 -6.05079,-2.94258 -6.05079,-6.57227 0,-3.62969 2.73713,-6.53711 6.05079,-6.53711 z"
       id="path39111" /></g><g
     id="path39060"><path
       style="color:#000000;-inkscape-font-specification:Metropolis;fill:#000000;stroke:none"
       d="m 366.69988,223.26177 c -2.66934,0 -4.88801,1.10933 -6.24001,2.94666 -1.10933,-1.83733 -3.016,-2.94666 -5.33867,-2.94666 -2.35733,0 -4.29867,1.17866 -5.2,3.05066 v -2.63466 h -2.60001 v 17.92268 h 2.60001 V 230.1951 c 0,-2.704 2.01066,-4.61067 4.85333,-4.61067 2.42667,0 4.12534,2.04534 4.12534,4.95734 v 11.05868 h 2.6 V 230.1951 c 0,-2.704 2.01067,-4.61067 4.85334,-4.61067 2.42667,0 4.12534,2.04534 4.12534,4.95734 v 11.05868 h 2.6 V 230.1951 c 0,-4.056 -2.63467,-6.93333 -6.37867,-6.93333 z"
       id="path39115" /><path
       style="color:#000000;-inkscape-font-specification:Metropolis;fill:#000000;stroke:none"
       d="m 355.12109,222.76172 c -1.99058,0 -3.56356,0.96137 -4.69922,2.30469 v -1.88868 h -3.60156 v 18.92188 h 3.60156 v -11.9043 c 0,-2.45613 1.73443,-4.11133 4.35352,-4.11133 1.07286,0 1.94713,0.43659 2.58789,1.20704 0.64077,0.77044 1.03711,1.89122 1.03711,3.25 v 11.55859 H 362 v -11.9043 c 0,-2.45613 1.73443,-4.11133 4.35352,-4.11133 1.07285,0 1.94712,0.43659 2.58789,1.20704 0.64076,0.77044 1.03711,1.89122 1.03711,3.25 v 11.55859 h 3.5996 v -11.9043 c 0,-4.27252 -2.87873,-7.43359 -6.8789,-7.43359 -2.5934,0 -4.74462,1.0907 -6.21289,2.79687 -1.22859,-1.69186 -3.09113,-2.79687 -5.36524,-2.79687 z m 0,1 c 2.16347,0 3.88583,1.00853 4.91016,2.70508 l 0.38672,0.64062 0.44531,-0.60351 c 1.25418,-1.70439 3.30513,-2.74219 5.83594,-2.74219 3.48782,0 5.8789,2.59412 5.8789,6.43359 v 10.9043 h -1.5996 v -10.55859 c 0,-1.55323 -0.45235,-2.90845 -1.26758,-3.88868 -0.81524,-0.98022 -2.00361,-1.56836 -3.35742,-1.56836 -3.06625,0 -5.35352,2.15947 -5.35352,5.11133 v 10.9043 h -1.59961 v -10.55859 c 0,-1.55323 -0.45429,-2.90845 -1.26953,-3.88868 -0.81524,-0.98022 -2.00166,-1.56836 -3.35547,-1.56836 -3.06624,0 -5.35352,2.15947 -5.35352,5.11133 v 10.9043 h -1.60156 v -16.92188 h 1.60156 v 2.13477 l 0.94922,0.2168 c 0.81518,-1.69307 2.55934,-2.76758 4.75,-2.76758 z"
       id="path39117" /></g><g
     id="path39062"><path
       style="color:#000000;-inkscape-font-specification:Metropolis;fill:#000000;stroke:none"
       d="m 385.97451,223.26177 c -2.87733,0 -5.16533,1.42133 -6.51734,3.77867 v -3.36267 h -2.6 v 23.88535 h 2.6 v -9.32534 c 1.35201,2.35733 3.64001,3.77867 6.51734,3.77867 4.71467,0 8.25068,-3.88267 8.25068,-9.39468 0,-5.47733 -3.53601,-9.36 -8.25068,-9.36 z m -0.48533,16.43201 c -3.536,0 -6.03201,-2.94667 -6.03201,-7.07201 0,-4.12533 2.49601,-7.03734 6.03201,-7.03734 3.50134,0 5.99734,2.91201 5.99734,7.03734 0,4.12534 -2.496,7.07201 -5.99734,7.07201 z"
       id="path39121" /><path
       style="color:#000000;-inkscape-font-specification:Metropolis;fill:#000000;stroke:none"
       d="m 385.97461,222.76172 c -2.47931,0 -4.54934,1.05767 -6.01758,2.78515 v -2.36914 h -3.59961 v 24.88477 h 3.59961 v -8.33203 c 1.46824,1.72748 3.53826,2.78515 6.01758,2.78515 4.98917,0 8.75,-4.16869 8.75,-9.89453 0,-5.69251 -3.76083,-9.85937 -8.75,-9.85937 z m 0,1 c 4.44016,0 7.75,3.59724 7.75,8.85937 0,5.29817 -3.30984,8.89453 -7.75,8.89453 -2.71267,0 -4.80994,-1.30595 -6.08399,-3.52734 l -0.93359,-1.62695 v 10.70117 h -1.59961 v -22.88477 h 1.59961 v 4.74024 l 0.93359,-1.62891 c 1.27405,-2.22139 3.37132,-3.52734 6.08399,-3.52734 z m -0.48633,1.32226 c -1.90525,0 -3.56581,0.79912 -4.7207,2.14649 -1.15489,1.34737 -1.81055,3.22712 -1.81055,5.39062 0,2.16351 0.65446,4.05234 1.80859,5.40821 1.15414,1.35587 2.81577,2.16406 4.72266,2.16406 1.89093,0 3.54408,-0.81034 4.69336,-2.16602 1.14928,-1.35567 1.80469,-3.24274 1.80469,-5.40625 0,-2.1635 -0.65465,-4.04148 -1.80469,-5.38867 -1.15003,-1.34718 -2.80408,-2.14844 -4.69336,-2.14844 z m 0,1 c 1.61206,0 2.95834,0.65673 3.93164,1.79688 0.9733,1.14015 1.56641,2.77841 1.56641,4.74023 0,1.96183 -0.59235,3.61078 -1.56641,4.75977 -0.97405,1.14899 -2.32123,1.8125 -3.93164,1.8125 -1.62911,0 -2.98307,-0.6637 -3.96094,-1.8125 -0.97787,-1.1488 -1.57031,-2.79794 -1.57031,-4.75977 0,-1.96182 0.5932,-3.60027 1.57031,-4.74023 0.97712,-1.13997 2.3302,-1.79688 3.96094,-1.79688 z"
       id="path39123" /></g><g
     id="path39064"><path
       style="color:#000000;-inkscape-font-specification:Metropolis;fill:#000000;stroke:none"
       d="m 404.45181,223.26177 c -1.73334,0 -3.88267,0.45066 -6.44801,1.73333 l 1.04,2.11467 c 1.62934,-0.832 3.432,-1.62934 5.23467,-1.62934 3.88267,0 4.85334,2.77334 4.85334,5.20001 v 0.65867 c -1.83733,-0.58934 -3.88267,-1.00534 -5.824,-1.00534 -3.84801,0 -7.03734,2.392 -7.03734,5.96267 0,3.53601 2.77333,5.72001 6.552,5.72001 2.35734,0 5.02667,-1.10934 6.30934,-3.224 v 2.808 h 2.6 v -10.92001 c 0,-4.33334 -2.392,-7.41867 -7.28,-7.41867 z m -1.17867,16.46668 c -2.53067,0 -4.47201,-1.31734 -4.47201,-3.53601 0,-2.14933 2.25334,-3.67467 4.92268,-3.67467 1.94133,0 3.77867,0.27734 5.408,0.728 v 2.73867 c -0.69333,2.53067 -3.50134,3.74401 -5.85867,3.74401 z"
       id="path39127" /><path
       style="color:#000000;-inkscape-font-specification:Metropolis;fill:#000000;stroke:none"
       d="m 404.45117,222.76172 c -1.82,0 -4.04852,0.47543 -6.67187,1.78711 l -0.44336,0.2207 1.48242,3.01563 0.45312,-0.23047 c 1.61154,-0.82291 3.35259,-1.57422 5.00782,-1.57422 1.82228,0 2.84145,0.6122 3.47851,1.48437 0.63707,0.87218 0.87305,2.06818 0.87305,3.21485 v 0.0195 c -1.70535,-0.4973 -3.5336,-0.86524 -5.32227,-0.86524 -2.0276,0 -3.89932,0.62849 -5.27929,1.75586 -1.37998,1.12737 -2.25977,2.77283 -2.25977,4.70703 0,1.89873 0.76451,3.48778 2.03711,4.56641 1.2726,1.07864 3.02996,1.65234 5.01563,1.65234 2.06193,0 4.286,-0.81902 5.80859,-2.37304 v 1.95703 h 3.60156 v -11.41992 c 0,-2.25867 -0.62718,-4.24672 -1.93945,-5.67188 -1.31228,-1.42516 -3.2926,-2.24609 -5.8418,-2.24609 z m 0,1 c 2.3388,0 3.99975,0.72299 5.10547,1.92383 1.10572,1.20083 1.67578,2.91947 1.67578,4.99414 v 10.41992 h -1.60156 v -4.0957 l -0.92578,1.52929 c -1.16336,1.91796 -3.68234,2.98242 -5.88281,2.98242 -1.79301,0 -3.31041,-0.51669 -4.36915,-1.41406 -1.05873,-0.89736 -1.68359,-2.1674 -1.68359,-3.80469 0,-1.63646 0.71589,-2.97229 1.89258,-3.93359 1.17669,-0.96129 2.82608,-1.5293 4.64648,-1.5293 1.8699,0 3.8702,0.4032 5.66993,0.98047 l 0.65234,0.21094 v -1.3457 c 0,-1.28 -0.24747,-2.68353 -1.06641,-3.80469 -0.81893,-1.12116 -2.22477,-1.89453 -4.28515,-1.89453 -1.77697,0 -3.46288,0.71787 -4.99805,1.47851 l -0.58789,-1.19531 c 2.28172,-1.06551 4.223,-1.50195 5.75781,-1.50195 z m -0.72656,8.25586 c -1.42991,0 -2.75814,0.40397 -3.75586,1.12695 -0.99772,0.72298 -1.66797,1.79943 -1.66797,3.04883 0,1.25517 0.57572,2.30894 1.48633,2.99805 0.91061,0.6891 2.13424,1.03711 3.48633,1.03711 1.26445,0 2.62984,-0.31851 3.80078,-0.98829 1.17094,-0.66977 2.15232,-1.71144 2.53906,-3.12304 l 0.0176,-0.0664 v -3.18555 l -0.36524,-0.10156 c -1.67161,-0.46235 -3.55206,-0.74609 -5.54101,-0.74609 z m 0,1 c 1.76188,0 3.40337,0.27593 4.90625,0.66211 v 2.20898 c -0.31422,1.09774 -1.06958,1.92006 -2.05274,2.48242 -0.99573,0.56956 -2.2118,0.85743 -3.30468,0.85743 -1.17858,0 -2.19008,-0.30976 -2.88282,-0.83399 -0.69273,-0.52423 -1.08984,-1.23767 -1.08984,-2.20117 0,-0.89993 0.45762,-1.66322 1.25391,-2.24024 0.79628,-0.57701 1.93049,-0.93554 3.16992,-0.93554 z"
       id="path39129" /></g><g
     id="path39066"><path
       style="color:#000000;-inkscape-font-specification:Metropolis;fill:#000000;stroke:none"
       d="m 418.04113,227.1791 v -3.50133 h -2.6 v 17.92268 h 2.6 v -10.01868 c 0,-3.50133 2.87734,-5.99734 6.93334,-5.99734 v -2.32266 c -3.29334,0 -5.85867,1.52533 -6.93334,3.91733 z"
       id="path39133" /><path
       style="color:#000000;-inkscape-font-specification:Metropolis;fill:#000000;stroke:none"
       d="m 424.97461,222.76172 c -2.73845,0 -5.01342,1.05232 -6.43359,2.77148 v -2.35547 h -3.59961 v 18.92188 h 3.59961 v -10.51758 c 0,-1.6137 0.65007,-2.96107 1.77343,-3.93359 1.12337,-0.97253 2.73473,-1.56446 4.66016,-1.56446 h 0.5 v -3.32226 z m -0.5,1.05859 v 1.34375 c -1.90629,0.10056 -3.59747,0.67495 -4.81445,1.72852 -1.32931,1.15081 -2.11914,2.80182 -2.11914,4.68945 v 9.51758 h -1.59961 v -16.92188 h 1.59961 v 3.00196 l 0.95703,0.20508 c 0.92928,-2.0684 3.10229,-3.41314 5.97656,-3.56446 z"
       id="path39135" /></g><g
     id="path39068"><path
       style="color:#000000;-inkscape-font-specification:Metropolis;fill:#000000;stroke:none"
       d="m 435.09707,239.69378 c -3.536,0 -5.99734,-2.56534 -6.37867,-6.06667 h 14.66401 c 0,-6.27467 -3.08533,-10.36534 -8.49334,-10.36534 -4.81867,0 -8.84001,3.98667 -8.84001,9.32534 0,5.512 4.29868,9.42934 9.08268,9.42934 2.496,0 5.65067,-1.07467 7.21067,-2.77334 l -1.59467,-1.69867 c -1.10933,1.21334 -3.536,2.14934 -5.65067,2.14934 z m -0.104,-14.10935 c 3.57067,0 5.47734,2.49601 5.82401,5.72001 h -12.06401 c 0.48533,-3.46667 3.05067,-5.72001 6.24,-5.72001 z"
       id="path39139" /><path
       style="color:#000000;-inkscape-font-specification:Metropolis;fill:#000000;stroke:none"
       d="m 434.88867,222.76172 c -5.09444,0 -9.33984,4.23642 -9.33984,9.82617 0,5.77195 4.52509,9.92774 9.58203,9.92773 2.63952,10e-6 5.86399,-1.06496 7.58008,-2.93359 l 0.31445,-0.3418 -2.2832,-2.43164 -0.36328,0.39844 c -0.95072,1.03985 -3.31413,1.98633 -5.28125,1.98633 -3.09289,0 -5.18557,-2.08708 -5.73438,-5.06641 h 14.51953 v -0.5 c 0,-3.21928 -0.78917,-5.92626 -2.32812,-7.84765 -1.53896,-1.92139 -3.83595,-3.01758 -6.66602,-3.01758 z m 0,1 c 2.57794,0 4.52906,0.94997 5.88477,2.64258 1.2735,1.58997 1.95768,3.91934 2.04297,6.72265 h -14.65625 l 0.0605,0.55469 c 0.40356,3.70541 3.09913,6.51172 6.87696,6.51172 2.06356,0 4.21452,-0.82975 5.55664,-2.01758 l 0.91601,0.97656 c -1.50874,1.37038 -4.24211,2.36329 -6.43945,2.36328 -4.51105,0 -8.58203,-3.67569 -8.58203,-8.92773 0,-5.08758 3.79696,-8.82617 8.33984,-8.82617 z m 0.10352,1.32226 c -3.42484,0 -6.21963,2.4736 -6.73438,6.15039 l -0.0801,0.57032 h 13.19532 l -0.0586,-0.55274 c -0.18228,-1.69524 -0.77732,-3.2343 -1.83593,-4.35937 -1.05861,-1.12507 -2.58449,-1.8086 -4.48633,-1.8086 z m 0,1 c 1.66883,0 2.88375,0.56521 3.75781,1.49414 0.75981,0.80752 1.20762,1.94736 1.43359,3.22657 h -10.76172 c 0.64865,-2.89512 2.80731,-4.72071 5.57032,-4.72071 z"
       id="path39141" /></g><g
     id="path39070"><path
       style="color:#000000;-inkscape-font-specification:Metropolis;fill:#000000;stroke:none"
       d="m 445.70503,241.60045 h 14.14402 v -2.46134 H 449.1717 l 10.60801,-13.41601 v -2.04533 h -13.86668 v 2.46133 h 10.36535 l -10.57335,13.41601 z"
       id="path39145" /><path
       style="color:#000000;-inkscape-font-specification:Metropolis;fill:#000000;stroke:none"
       d="m 445.41211,223.17773 v 3.46094 h 9.83594 l -10.04297,12.74219 v 2.71875 h 0.5 14.64453 v -3.46094 h -10.14453 l 10.07422,-12.74219 v -2.71875 z m 1,1 h 12.86719 v 1.3711 l -11.14063,14.08984 h 11.21094 v 1.46094 h -13.14453 v -1.37109 l 11.10351,-14.08985 h -10.89648 z"
       id="path39147" /></g></g></g>
	
</g>
</svg>
