<?xml version="1.0" encoding="utf-8"?>
<!-- Generator: Adobe Illustrator 24.0.0, SVG Export Plug-In . SVG Version: 6.00 Build 0)  -->
<svg version="1.1" id="Calque_1" xmlns="http://www.w3.org/2000/svg" xmlns:xlink="http://www.w3.org/1999/xlink" x="0px" y="0px"
	 viewBox="0 0 380 170" style="enable-background:new 0 0 380 170;" xml:space="preserve">
<style type="text/css">
	.st0{fill:#349839;}
	.st1{fill:#00340B;}
</style>
<g>
	<path class="st0" d="M218.99,111.052c-2.901,0-5.254-2.348-5.254-5.249V37.726c0-2.899,2.353-5.249,5.254-5.249
		c2.901,0,5.254,2.35,5.254,5.249v68.078C224.244,108.705,221.891,111.052,218.99,111.052"/>
	<path class="st0" d="M364.998,77.706c-0.03-11.678-9.547-21.19-21.243-21.19c-6.379,0-12.095,2.83-15.992,7.291
		c-3.897-4.46-9.611-7.291-15.989-7.291c-11.706,0-21.23,9.512-21.245,21.202v28.089c0,2.901,2.35,5.249,5.254,5.249
		c2.901,0,5.251-2.348,5.251-5.249l0.002-28.066c0-5.913,4.819-10.733,10.738-10.733c5.918,0,10.738,4.819,10.738,10.733v28.066
		c0,2.901,2.35,5.249,5.251,5.249c2.904,0,5.256-2.348,5.256-5.249l-0.002-28.079c0.005-5.908,4.822-10.72,10.738-10.72
		c5.918,0,10.735,4.824,10.735,10.74v28.058c0,2.901,2.353,5.249,5.256,5.249c2.904,0,5.254-2.348,5.254-5.249L364.998,77.706z"/>
	<path class="st0" d="M147.887,100.557c-5.919,0-10.199-4.809-10.199-10.723V67.098h10.909c2.643,0,4.786-2.138,4.786-4.784
		c0-2.643-2.143-4.784-4.786-4.784h-10.909V45.835c0-2.901-2.35-5.251-5.254-5.251c-2.904,0-5.251,2.35-5.251,5.251v43.999
		c0,11.701,8.989,21.22,20.705,21.22c2.901,0,5.254-2.348,5.254-5.249C153.141,102.905,150.788,100.557,147.887,100.557"/>
	<path class="st0" d="M284.178,81.553c0-14.978-13.379-25.041-25.878-25.041c-15.001,0-27.202,12.188-27.202,27.169
		c0,15.61,11.91,27.371,27.71,27.371c8.377,0,14.637-2.997,17.594-4.776c1.408-0.824,2.575-2.497,2.575-4.39
		c0-2.391-1.941-4.685-4.799-4.685c-0.826,0-1.857,0.311-2.671,0.718c-3.242,1.804-7.609,3.755-12.704,3.755
		c-8.132,0-15.276-4.908-16.944-13.032h35.728C281.097,88.642,284.178,85.329,284.178,81.553 M241.849,79.079
		c1.334-7.826,8.62-13.394,16.451-13.394c8.34,0,14.738,7.068,15.926,13.394H241.849z"/>
	<path class="st0" d="M120.827,81.553c0-14.978-13.381-25.041-25.878-25.041c-15.001,0-27.204,12.188-27.204,27.169
		c0,15.61,11.913,27.371,27.71,27.371c8.377,0,14.637-2.997,17.596-4.776c1.408-0.824,2.575-2.497,2.575-4.39
		c0-2.391-1.941-4.685-4.796-4.685c-0.831,0-1.862,0.311-2.674,0.718c-3.242,1.804-7.609,3.755-12.701,3.755
		c-8.135,0-15.279-4.908-16.949-13.032h35.733C117.748,88.642,120.827,85.329,120.827,81.553 M78.498,79.079
		c1.334-7.826,8.62-13.394,16.451-13.394c8.337,0,14.736,7.068,15.923,13.394H78.498z"/>
	<path class="st0" d="M207.712,81.553c0-14.978-13.379-25.041-25.878-25.041c-15.001,0-27.202,12.188-27.202,27.169
		c0,15.61,11.91,27.371,27.707,27.371c8.38,0,14.637-2.997,17.596-4.776c1.408-0.824,2.573-2.497,2.573-4.39
		c0-2.391-1.941-4.685-4.796-4.685c-0.826,0-1.858,0.311-2.676,0.718c-3.237,1.804-7.607,3.755-12.696,3.755
		c-8.135,0-15.281-4.908-16.949-13.032h35.731C204.632,88.642,207.712,85.329,207.712,81.553 M165.383,79.079
		c1.334-7.826,8.62-13.394,16.451-13.394c8.337,0,14.738,7.068,15.926,13.394H165.383z"/>
	<path class="st0" d="M42.259,111.052c-6.985,0-13.967-2.656-19.282-7.97c-10.637-10.639-10.637-27.942,0-38.579
		c5.145-5.153,11.996-7.991,19.282-7.991c7.286,0,14.139,2.838,19.287,7.991c2.052,2.055,2.052,5.383-0.003,7.437
		c-2.049,2.044-5.378,2.044-7.427,0c-3.166-3.174-7.379-4.91-11.857-4.91c-4.481,0-8.691,1.736-11.855,4.91
		c-6.538,6.53-6.538,17.174-0.003,23.707c6.543,6.535,17.174,6.535,23.714,0c2.052-2.047,5.378-2.047,7.43,0
		c2.052,2.055,2.052,5.38-0.003,7.435C56.227,108.396,49.247,111.052,42.259,111.052"/>
	<path class="st0" d="M59.255,128.723H23.034c-2.643,0-4.786-2.14-4.786-4.781c0-2.638,2.143-4.779,4.786-4.779h36.221
		c2.643,0,4.789,2.14,4.789,4.779C64.044,126.583,61.899,128.723,59.255,128.723"/>
	<path class="st1" d="M74.752,119.159h5.901c3.487,0,5.686,1.984,5.686,4.994v0.051c0,3.346-2.691,5.1-5.984,5.1h-2.972v4.804
		h-2.631V119.159z M80.441,126.93c1.986,0,3.227-1.109,3.227-2.669v-0.043c0-1.751-1.261-2.669-3.227-2.669h-3.058v5.38H80.441z"/>
	<rect x="87.791" y="118.518" class="st1" width="2.588" height="15.587"/>
	<path class="st1" d="M93.227,130.007v-7.177h2.59v6.406c0,1.751,0.874,2.755,2.411,2.755c1.496,0,2.545-1.046,2.545-2.792v-6.368
		h2.585v11.281h-2.585v-1.756c-0.725,1.069-1.777,1.986-3.528,1.986C94.703,134.341,93.227,132.632,93.227,130.007"/>
	<path class="st1" d="M105.276,132.633l1.155-1.751c1.218,0.92,2.542,1.387,3.7,1.387c1.109,0,1.751-0.468,1.751-1.216v-0.045
		c0-0.874-1.195-1.175-2.522-1.579c-1.668-0.47-3.528-1.152-3.528-3.308v-0.045c0-2.135,1.774-3.434,4.018-3.434
		c1.413,0,2.952,0.49,4.147,1.284l-1.023,1.832c-1.092-0.66-2.247-1.069-3.187-1.069c-1.006,0-1.582,0.473-1.582,1.135v0.038
		c0,0.816,1.218,1.157,2.545,1.587c1.645,0.508,3.505,1.256,3.505,3.285v0.04c0,2.373-1.837,3.546-4.19,3.546
		C108.462,134.319,106.686,133.748,105.276,132.633"/>
	<path class="st1" d="M122.482,122.831h2.59v2.54c0.7-1.683,2.004-2.838,3.995-2.752v2.732h-0.149c-2.267,0-3.846,1.478-3.846,4.468
		v4.288h-2.59V122.831z"/>
	<path class="st1" d="M129.76,128.509v-0.038c0-3.227,2.29-5.873,5.517-5.873c3.591,0,5.411,2.815,5.411,6.063
		c0,0.238-0.023,0.47-0.046,0.725h-8.291c0.273,1.837,1.579,2.861,3.247,2.861c1.261,0,2.158-0.465,3.058-1.344l1.519,1.344
		c-1.072,1.281-2.547,2.113-4.62,2.113C132.285,134.36,129.76,131.997,129.76,128.509 M138.12,127.678
		c-0.169-1.663-1.155-2.969-2.863-2.969c-1.582,0-2.694,1.218-2.931,2.969H138.12z"/>
	<path class="st1" d="M142.194,132.633l1.155-1.751c1.223,0.92,2.542,1.387,3.702,1.387c1.107,0,1.751-0.468,1.751-1.216v-0.045
		c0-0.874-1.198-1.175-2.52-1.579c-1.673-0.47-3.53-1.152-3.53-3.308v-0.045c0-2.135,1.772-3.434,4.018-3.434
		c1.413,0,2.949,0.49,4.147,1.284l-1.023,1.832c-1.092-0.66-2.244-1.069-3.184-1.069c-1.011,0-1.585,0.473-1.585,1.135v0.038
		c0,0.816,1.218,1.157,2.545,1.587c1.645,0.508,3.505,1.256,3.505,3.285v0.04c0,2.373-1.837,3.546-4.192,3.546
		C145.381,134.319,143.607,133.748,142.194,132.633"/>
	<path class="st1" d="M153.442,122.83h2.588v1.878c0.834-1.173,2.012-2.113,3.826-2.113c2.674,0,5.261,2.113,5.261,5.853v0.04
		c0,3.74-2.568,5.853-5.261,5.853c-1.86,0-3.035-0.94-3.826-1.986v5.168h-2.588V122.83z M162.487,128.488v-0.04
		c0-2.178-1.476-3.609-3.227-3.609c-1.754,0-3.293,1.453-3.293,3.609v0.04c0,2.183,1.539,3.609,3.293,3.609
		C161.034,132.097,162.487,130.71,162.487,128.488"/>
	<path class="st1" d="M166.605,128.533v-0.045c0-3.217,2.565-5.888,6.027-5.888c3.465,0,6.009,2.623,6.009,5.853v0.035
		c0,3.204-2.568,5.873-6.052,5.873C169.149,134.361,166.605,131.735,166.605,128.533 M176.053,128.533v-0.045
		c0-1.984-1.435-3.629-3.465-3.629c-2.072,0-3.399,1.622-3.399,3.594v0.035c0,1.966,1.433,3.631,3.442,3.631
		C174.724,132.119,176.053,130.477,176.053,128.533"/>
	<path class="st1" d="M180.358,122.831h2.588v1.754c0.723-1.066,1.774-1.989,3.525-1.989c2.545,0,4.021,1.708,4.021,4.339v7.172
		h-2.588V127.7c0-1.751-0.877-2.757-2.416-2.757c-1.496,0-2.542,1.049-2.542,2.8v6.363h-2.588V122.831z"/>
	<path class="st1" d="M192.242,132.633l1.152-1.751c1.221,0.92,2.542,1.387,3.702,1.387c1.107,0,1.749-0.468,1.749-1.216v-0.045
		c0-0.874-1.195-1.175-2.522-1.579c-1.668-0.47-3.525-1.152-3.525-3.308v-0.045c0-2.135,1.771-3.434,4.018-3.434
		c1.413,0,2.952,0.49,4.147,1.284l-1.024,1.832c-1.094-0.66-2.247-1.069-3.187-1.069c-1.008,0-1.582,0.473-1.582,1.135v0.038
		c0,0.816,1.215,1.157,2.545,1.587c1.645,0.508,3.505,1.256,3.505,3.285v0.04c0,2.373-1.84,3.546-4.192,3.546
		C195.426,134.319,193.652,133.748,192.242,132.633"/>
	<path class="st1" d="M210.395,134.107v-1.387c-0.768,0.915-1.948,1.625-3.657,1.625c-2.138,0-4.018-1.221-4.018-3.485v-0.038
		c0-2.504,1.941-3.7,4.574-3.7c1.367,0,2.244,0.192,3.118,0.473v-0.215c0-1.559-0.978-2.413-2.78-2.413
		c-1.261,0-2.201,0.278-3.225,0.705l-0.708-2.075c1.243-0.551,2.456-0.935,4.296-0.935c3.338,0,4.963,1.754,4.963,4.761v6.684
		H210.395z M210.458,129.386c-0.665-0.255-1.579-0.447-2.59-0.447c-1.622,0-2.585,0.662-2.585,1.751v0.04
		c0,1.069,0.963,1.668,2.181,1.668c1.713,0,2.995-0.96,2.995-2.373V129.386z"/>
	<path class="st1" d="M218.354,132.355v1.751h-2.585v-15.59h2.585v6.191c0.834-1.173,2.014-2.113,3.829-2.113
		c2.674,0,5.256,2.113,5.256,5.853v0.04c0,3.74-2.565,5.853-5.256,5.853C220.32,134.341,219.144,133.401,218.354,132.355
		 M224.813,128.488v-0.04c0-2.178-1.476-3.609-3.232-3.609c-1.749,0-3.29,1.453-3.29,3.609v0.04c0,2.183,1.542,3.609,3.29,3.609
		C223.357,132.097,224.813,130.71,224.813,128.488"/>
	<rect x="229.332" y="118.518" class="st1" width="2.59" height="15.587"/>
	<path class="st1" d="M233.762,128.509v-0.038c0-3.227,2.29-5.873,5.519-5.873c3.591,0,5.405,2.815,5.405,6.063
		c0,0.238-0.023,0.47-0.043,0.725h-8.296c0.28,1.837,1.584,2.861,3.255,2.861c1.259,0,2.156-0.465,3.053-1.344l1.521,1.344
		c-1.069,1.281-2.545,2.113-4.622,2.113C236.286,134.36,233.762,131.997,233.762,128.509 M242.124,127.678
		c-0.172-1.663-1.155-2.969-2.866-2.969c-1.582,0-2.694,1.218-2.931,2.969H242.124z"/>
	<path class="st1" d="M245.831,132.633l1.155-1.751c1.221,0.92,2.545,1.387,3.7,1.387c1.109,0,1.754-0.468,1.754-1.216v-0.045
		c0-0.874-1.198-1.175-2.522-1.579c-1.67-0.47-3.53-1.152-3.53-3.308v-0.045c0-2.135,1.774-3.434,4.021-3.434
		c1.41,0,2.949,0.49,4.147,1.284l-1.026,1.832c-1.089-0.66-2.244-1.069-3.187-1.069c-1.003,0-1.582,0.473-1.582,1.135v0.038
		c0,0.816,1.221,1.157,2.545,1.587c1.648,0.508,3.505,1.256,3.505,3.285v0.04c0,2.373-1.837,3.546-4.19,3.546
		C249.017,134.319,247.241,133.748,245.831,132.633"/>
	<path class="st1" d="M256.181,136.112c1.304-0.255,1.923-0.915,1.817-2.007h-1.089v-2.926h2.843v2.479
		c0,2.37-1.132,3.371-3.295,3.548L256.181,136.112z"/>
	<path class="st1" d="M267.349,128.509v-0.038c0-3.227,2.287-5.873,5.517-5.873c3.591,0,5.411,2.815,5.411,6.063
		c0,0.238-0.025,0.47-0.046,0.725h-8.294c0.278,1.837,1.582,2.861,3.25,2.861c1.259,0,2.158-0.465,3.058-1.344l1.516,1.344
		c-1.069,1.281-2.545,2.113-4.617,2.113C269.871,134.36,267.349,131.997,267.349,128.509 M275.708,127.678
		c-0.172-1.663-1.155-2.969-2.866-2.969c-1.579,0-2.691,1.218-2.929,2.969H275.708z"/>
	<path class="st1" d="M280.703,122.831h2.59v1.754c0.72-1.066,1.771-1.989,3.525-1.989c2.545,0,4.018,1.708,4.018,4.339v7.172
		h-2.588V127.7c0-1.751-0.877-2.757-2.413-2.757c-1.496,0-2.542,1.049-2.542,2.8v6.363h-2.59V122.831z"/>
	<path class="st1" d="M292.677,132.633l1.155-1.751c1.221,0.92,2.545,1.387,3.702,1.387c1.107,0,1.751-0.468,1.751-1.216v-0.045
		c0-0.874-1.198-1.175-2.522-1.579c-1.67-0.47-3.528-1.152-3.528-3.308v-0.045c0-2.135,1.772-3.434,4.018-3.434
		c1.41,0,2.949,0.49,4.147,1.284l-1.023,1.832c-1.092-0.66-2.249-1.069-3.187-1.069c-1.008,0-1.582,0.473-1.582,1.135v0.038
		c0,0.816,1.216,1.157,2.545,1.587c1.645,0.508,3.505,1.256,3.505,3.285v0.04c0,2.373-1.84,3.546-4.192,3.546
		C295.863,134.319,294.089,133.748,292.677,132.633"/>
	<path class="st1" d="M303.121,128.509v-0.038c0-3.227,2.287-5.873,5.517-5.873c3.591,0,5.411,2.815,5.411,6.063
		c0,0.238-0.025,0.47-0.046,0.725h-8.294c0.278,1.837,1.582,2.861,3.25,2.861c1.261,0,2.158-0.465,3.058-1.344l1.516,1.344
		c-1.069,1.281-2.545,2.113-4.617,2.113C305.643,134.36,303.121,131.997,303.121,128.509 M311.481,127.678
		c-0.169-1.663-1.155-2.969-2.863-2.969c-1.582,0-2.694,1.218-2.931,2.969H311.481z"/>
	<path class="st1" d="M316.111,122.831h2.588v1.708c0.725-1.003,1.711-1.943,3.442-1.943c1.62,0,2.757,0.791,3.353,1.989
		c0.917-1.198,2.118-1.989,3.829-1.989c2.459,0,3.955,1.562,3.955,4.316v7.195h-2.588V127.7c0-1.794-0.836-2.757-2.284-2.757
		c-1.415,0-2.421,0.983-2.421,2.8v6.363h-2.583v-6.424c0-1.756-0.854-2.739-2.29-2.739c-1.43,0-2.413,1.069-2.413,2.82v6.343h-2.588
		V122.831z"/>
	<path class="st1" d="M338.648,132.355v1.751h-2.588v-15.59h2.588v6.191c0.832-1.173,2.012-2.113,3.826-2.113
		c2.671,0,5.256,2.113,5.256,5.853v0.04c0,3.74-2.565,5.853-5.256,5.853C340.612,134.341,339.437,133.401,338.648,132.355
		 M345.105,128.488v-0.04c0-2.178-1.476-3.609-3.232-3.609c-1.749,0-3.29,1.453-3.29,3.609v0.04c0,2.183,1.542,3.609,3.29,3.609
		C343.649,132.097,345.105,130.71,345.105,128.488"/>
	<rect x="349.677" y="118.518" class="st1" width="2.588" height="15.587"/>
	<path class="st1" d="M354.054,128.509v-0.038c0-3.227,2.287-5.873,5.517-5.873c3.591,0,5.41,2.815,5.41,6.063
		c0,0.238-0.025,0.47-0.046,0.725h-8.294c0.278,1.837,1.582,2.861,3.25,2.861c1.259,0,2.158-0.465,3.058-1.344l1.516,1.344
		c-1.069,1.281-2.545,2.113-4.617,2.113C356.576,134.36,354.054,131.997,354.054,128.509 M362.414,127.678
		c-0.169-1.663-1.155-2.969-2.866-2.969c-1.579,0-2.691,1.218-2.929,2.969H362.414z"/>
</g>
</svg>
