<?xml version="1.0" encoding="UTF-8" standalone="no"?>
<svg
   xmlns:dc="http://purl.org/dc/elements/1.1/"
   xmlns:cc="http://creativecommons.org/ns#"
   xmlns:rdf="http://www.w3.org/1999/02/22-rdf-syntax-ns#"
   xmlns:svg="http://www.w3.org/2000/svg"
   xmlns="http://www.w3.org/2000/svg"
   viewBox="0 0 769.99999 450"
   height="450"
   width="770"
   xml:space="preserve"
   version="1.1"
   id="svg2"><metadata
     id="metadata8"><rdf:RDF><cc:Work
         rdf:about=""><dc:format>image/svg+xml</dc:format><dc:type
           rdf:resource="http://purl.org/dc/dcmitype/StillImage" /><dc:title></dc:title></cc:Work></rdf:RDF></metadata><defs
     id="defs6" /><g
     transform="matrix(1.25,0,0,-1.25,0,450.00002)"
     id="g10"><g
       id="g4353"><path
         id="path34"
         style="fill:#00e094;fill-opacity:1;fill-rule:nonzero;stroke:none"
         d="m 615.95327,202.06627 0,21.702 c 0.25199,39.42575 0.48299,76.67013 -30.40791,107.52415 -18.80194,18.7795 -46.14385,28.7076 -79.07175,28.7076 l -111.29965,0 0,-56.83489 -125.11061,0 0,-63.05044 125.11061,0 0,-56.82791 -125.11061,0 0,-63.05045 125.11061,0 0,-56.827904 111.29965,0 c 32.9279,0 60.26981,9.92112 79.07175,28.70061 30.9049,30.868014 30.6669,69.286974 30.40791,109.957234 M 541.3895,137.00225 c -9.56897,-11.54317 -21.85393,-16.696 -39.83687,-16.696 l -43.23187,0 0,182.87985 43.23187,0 c 17.98294,0 30.2679,-5.15283 39.81587,-16.67502 8.46997,-10.41752 11.47996,-23.09333 11.47996,-73.53787 0,-43.63471 -1.59599,-63.8405 -11.45896,-75.97096" /><path
         d="m 155.73551,63.407736 70.74878,0 -60.50081,119.640624 c 32.6269,13.58473 52.87083,47.64091 52.87083,83.80857 0,54.98911 -41.62887,93.10743 -99.86868,93.10743 L 0,359.99936 0.028,63.407776 l 63.118802,0 0,108.740694 37.582878,0 55.00583,-108.740694 z m -92.588708,239.756694 53.010838,0 c 23.66692,0 39.57087,-14.95509 39.57087,-36.84585 0,-24.30987 -15.90395,-37.33526 -39.57087,-37.33526 l -53.010838,0 0,74.18111 z"
         style="fill:#00e094;fill-opacity:1;fill-rule:nonzero;stroke:none"
         id="path38" /></g><g
       id="g4357"><path
         id="path42"
         style="fill:#00e094;fill-opacity:1;fill-rule:nonzero;stroke:none"
         d="m 413.8772,16.951206 c 1.97399,0.89492 2.86999,1.60807 3.72399,2.87356 0.889,1.36336 1.41399,3.15322 1.41399,4.95006 0,2.82461 -1.22499,5.08291 -3.38799,6.2575 -1.37899,0.69916 -3.22699,0.97883 -6.56597,0.97883 l -10.02397,0 -3.86399,-31.38539038 12.48796,0 c 3.61899,0 5.45998,0.32162 7.30098,1.36335998 3.06599,1.74092 4.75998,4.70537 4.75998,8.2291504 0,2.0835 -0.798,3.96425 -2.12099,5.13184 -0.987,0.80404 -1.834,1.18858 -3.72399,1.60109 m -7.68598,8.80944 1.47,0 c 1.59599,0 2.12099,-0.0909 2.63899,-0.37755 0.693,-0.37755 1.176,-1.32142 1.176,-2.45405 0,-2.44008 -1.47,-3.48882 -4.90699,-3.48882 l -1.13399,0 0.75599,6.32042 z m 4.05999,-17.9335004 c -0.896,-0.7551 -1.79899,-0.94388 -4.19999,-0.94388 l -2.16299,0 0.847,6.8657804 2.40099,0 c 1.925,0 2.58999,-0.0909 3.19899,-0.41251 0.763,-0.43348 1.232,-1.37036 1.232,-2.503 0,-1.2654904 -0.469,-2.3561804 -1.316,-3.0063904" /><path
         d="m 444.02191,24.200816 c -0.707,-0.98582 -1.134,-1.69197 -1.547,-2.48902 -0.525,1.64304 -0.567,1.83181 -1.75699,4.56553 l -0.266,0.70616 -2.17,5.02697 -8.81297,0 8.00098,-17.40914 -1.736,-13.96926038 7.96598,0 1.69399,13.73853038 13.70596,17.63987 -9.70897,0 -5.36898,-7.80964 z"
         style="fill:#00e094;fill-opacity:1;fill-rule:nonzero;stroke:none"
         id="path46" /><path
         id="path50"
         style="fill:#00e094;fill-opacity:1;fill-rule:nonzero;stroke:none"
         d="m 491.44396,26.036816 c 1.65199,0 3.39499,-0.7551 5.45998,-2.30723 l 3.49299,6.02678 c -3.10799,1.97163 -5.93598,2.87355 -9.13497,2.87355 -6.74798,0 -11.54997,-4.18798 -11.54997,-10.02599 0,-4.04815 1.694,-6.16661 7.26598,-8.94228 2.91199,-1.46125 3.66799,-2.16741 3.66799,-3.57971 0,-1.9366904 -1.708,-3.1462304 -4.29799,-3.1462304 -2.02299,0 -3.75899,0.65022 -6.54498,2.53796 l -3.57699,-6.02678 c 4.23499,-2.59388998 6.83198,-3.446869975 10.60497,-3.446869975 3.66799,0 6.50298,0.985819995 8.71497,3.111269975 2.121,1.98562 3.29699,4.71935 3.29699,7.6278604 0,4.19497 -1.73599,6.40433 -6.97197,8.80945 -3.24799,1.50319 -3.99699,2.25829 -3.99699,3.80344 0,1.65701 1.40699,2.68478 3.56999,2.68478" /><path
         d="m 509.7118,0.62856562 7.95897,0 1.505,12.22834038 9.06497,0 0.84,6.92171 -9.05097,0 0.66499,5.32062 9.93997,0 0.854,6.91472 -17.91294,0 -3.86399,-31.38539038 z"
         style="fill:#00e094;fill-opacity:1;fill-rule:nonzero;stroke:none"
         id="path56" /><path
         id="path68"
         style="fill:#00e094;fill-opacity:1;fill-rule:nonzero;stroke:none"
         d="m 562.04994,15.308166 c 1.70099,1.78986 2.54799,4.18799 2.54799,6.97065 0,3.48183 -1.232,6.39734 -3.44399,7.90054 -1.743,1.27946 -4.13699,1.8318 -7.68598,1.8318 l -10.21297,0 -3.86398,-31.38539038 7.95897,0 1.505,12.47305038 7.53897,-12.47305038 9.24697,0 -7.73497,12.18640038 c 2.12099,0.7481 3.06599,1.32142 4.14399,2.496 m -11.21397,2.35618 -1.407,0 0.994,8.0963 1.498,0 c 3.44399,0 4.52198,-0.94387 4.52198,-3.81743 0,-2.87355 -1.83399,-4.27887 -5.60698,-4.27887" /></g></g></svg>