<?xml version="1.0" encoding="UTF-8" standalone="no"?>
<svg
   inkscape:version="1.1 (c4e8f9e, 2021-05-24)"
   height="121"
   width="504"
   sodipodi:docname="logo_black.svg"
   xml:space="preserve"
   viewBox="0 0 504 121"
   y="0px"
   x="0px"
   id="Layer_1"
   version="1.1"
   xmlns:inkscape="http://www.inkscape.org/namespaces/inkscape"
   xmlns:sodipodi="http://sodipodi.sourceforge.net/DTD/sodipodi-0.dtd"
   xmlns="http://www.w3.org/2000/svg"
   xmlns:svg="http://www.w3.org/2000/svg"
   xmlns:rdf="http://www.w3.org/1999/02/22-rdf-syntax-ns#"
   xmlns:cc="http://creativecommons.org/ns#"
   xmlns:dc="http://purl.org/dc/elements/1.1/"><metadata
   id="metadata57"><rdf:RDF><cc:Work
       rdf:about=""><dc:format>image/svg+xml</dc:format><dc:type
         rdf:resource="http://purl.org/dc/dcmitype/StillImage" /></cc:Work></rdf:RDF></metadata><defs
   id="defs55" /><sodipodi:namedview
   inkscape:current-layer="text5112"
   inkscape:window-maximized="1"
   inkscape:window-y="25"
   inkscape:window-x="0"
   inkscape:cy="206.46369"
   inkscape:cx="290.42767"
   inkscape:zoom="1.5959223"
   showgrid="false"
   id="namedview53"
   inkscape:window-height="1023"
   inkscape:window-width="2048"
   inkscape:pageshadow="2"
   inkscape:pageopacity="0"
   guidetolerance="10"
   gridtolerance="10"
   objecttolerance="10"
   borderopacity="1"
   bordercolor="#666666"
   pagecolor="#ffffff"
   inkscape:pagecheckerboard="0"
   showguides="true"
   inkscape:guide-bbox="true"><sodipodi:guide
     position="333.34956,27.010462"
     orientation="0,-1"
     id="guide14760" /><sodipodi:guide
     position="57.646917,96.56272"
     orientation="0,-1"
     id="guide19425" /></sodipodi:namedview>
<style
   id="style10"
   type="text/css">
	.st0{fill:none;}
	.st1{fill:#3CA7FC;}
	.st2{fill-rule:evenodd;clip-rule:evenodd;}
	.st3{fill-rule:evenodd;clip-rule:evenodd;fill:#3CA7FC;}
</style>
<g
   id="g50">
	<g
   id="g38"
   transform="translate(4.3861784,-137.22473)">
		
		
	<g
   aria-label="TOP6"
   id="text1570"
   style="font-size:96px;font-family:Montserrat;-inkscape-font-specification:Montserrat"><path
     style="color:#000000;-inkscape-font-specification:'Fellix Semi-Bold';fill:#000000;-inkscape-stroke:none"
     d="m 49.75764,162.74231 v 10.78125 h -20.625 v 56.4375 H 17.929515 v -56.4375 H -2.7423601 v -10.78125 z"
     id="path7217" /><path
     style="color:#000000;-inkscape-font-specification:'Fellix Semi-Bold';fill:#000000;-inkscape-stroke:none"
     d="m 69.492015,166.30481 q 7.828125,-4.5 17.390625,-4.5 9.5625,0 17.34375,4.5 7.82812,4.5 12.28125,12.42187 4.45312,7.875 4.45312,17.53125 0,9.70313 -4.45312,17.67188 -4.45313,7.92187 -12.28125,12.46875 -7.78125,4.5 -17.34375,4.5 -9.5625,0 -17.390625,-4.5 -7.828125,-4.54688 -12.328125,-12.46875 -4.453125,-7.96875 -4.453125,-17.67188 0,-9.65625 4.453125,-17.53125 4.5,-7.92187 12.328125,-12.42187 z m 17.390625,6.42187 q -9.609375,0 -16.078125,6.75 -6.46875,6.75 -6.46875,16.78125 0,10.07813 6.46875,16.92188 6.46875,6.79687 16.078125,6.79687 9.5625,0 16.03125,-6.79687 6.51562,-6.84375 6.51562,-16.92188 0,-10.03125 -6.51562,-16.78125 -6.46875,-6.75 -16.03125,-6.75 z"
     id="path7219" /><path
     style="color:#000000;-inkscape-font-specification:'Fellix Semi-Bold';fill:#000000;-inkscape-stroke:none"
     d="m 156.67951,162.74231 q 9.28125,0 15.375,5.85937 6.14063,5.85938 6.14063,14.71875 0,9 -6.14063,14.85938 -6.09375,5.85937 -15.375,5.85937 h -14.48437 v 25.92188 h -11.25 v -67.21875 z m 0,30.5625 q 4.35938,0 7.26563,-2.85938 2.90625,-2.85937 2.90625,-7.125 0,-4.17187 -2.90625,-6.98437 -2.90625,-2.8125 -7.26563,-2.8125 h -14.48437 v 19.78125 z"
     id="path7221" /><path
     style="color:#000000;-inkscape-font-specification:Montserrat;fill:#02a95c;fill-opacity:1;-inkscape-stroke:none"
     d="m 208.99201,185.80481 q 9.23438,0 15.375,6.32812 6.14063,6.28125 6.14063,15.84375 0,6.1875 -3.1875,11.48438 -3.14063,5.25 -8.53125,8.34375 -5.39063,3.09375 -11.71875,3.09375 -6.32813,0 -11.71875,-3.09375 -5.39063,-3.09375 -8.57813,-8.34375 -3.14062,-5.29688 -3.14062,-11.48438 0,-7.875 5.39062,-16.5 l 17.85938,-28.73437 h 12.84375 l -15.04688,23.71875 q 2.53125,-0.65625 4.3125,-0.65625 z m -1.92187,34.45312 q 5.34375,0 8.95312,-3.5625 3.60938,-3.60937 3.60938,-8.8125 0,-5.29687 -3.65625,-8.90625 -3.65625,-3.65625 -9,-3.65625 -5.15625,0 -8.76563,3.65625 -3.60937,3.65625 -3.60937,8.90625 0,5.20313 3.60937,8.8125 3.60938,3.5625 8.85938,3.5625 z"
     id="path7223" /></g><g
   aria-label="COMPARATIF BOURSE"
   id="text5112"
   style="font-size:40px;font-family:Montserrat;-inkscape-font-specification:Montserrat"><path
     style="color:#000000;-inkscape-font-specification:Fellix;fill:#000000;-inkscape-stroke:none"
     d="m 324.76813,180.24435 q -0.9375,2.59375 -3.59375,4.1875 -2.64063,1.59375 -5.98438,1.59375 -2.39062,0 -4.48437,-0.89062 -2.07813,-0.89063 -3.5625,-2.42188 -1.46875,-1.53125 -2.3125,-3.67187 -0.84375,-2.15625 -0.84375,-4.59375 0,-2.40625 0.84375,-4.51563 0.84375,-2.125 2.3125,-3.64062 1.48437,-1.53125 3.5625,-2.40625 2.09375,-0.89063 4.48437,-0.89063 3.17188,0 5.73438,1.45313 2.57812,1.4375 3.57812,3.79687 l -2.14062,1.04688 q -0.89063,-1.8125 -2.82813,-2.89063 -1.9375,-1.07812 -4.34375,-1.07812 -3.8125,0 -6.26562,2.59375 -2.4375,2.59375 -2.4375,6.53125 0,3.98437 2.4375,6.625 2.45312,2.625 6.26562,2.625 2.54688,0 4.5625,-1.20313 2.01563,-1.21875 2.82813,-3.25 z"
     id="path7184" /><path
     style="color:#000000;-inkscape-font-specification:Fellix;fill:#000000;-inkscape-stroke:none"
     d="m 334.45563,163.88498 q 2.09375,-0.89063 4.45312,-0.89063 2.35938,0 4.45313,0.89063 2.09375,0.875 3.59375,2.40625 1.5,1.51562 2.375,3.64062 0.875,2.125 0.875,4.51563 0,3.21875 -1.48438,5.875 -1.48437,2.65625 -4.07812,4.1875 -2.59375,1.51562 -5.73438,1.51562 -3.14062,0 -5.73437,-1.51562 -2.59375,-1.53125 -4.07813,-4.1875 -1.48437,-2.65625 -1.48437,-5.875 0,-2.39063 0.875,-4.51563 0.875,-2.125 2.375,-3.64062 1.5,-1.53125 3.59375,-2.40625 z m 7.90625,2.14062 q -1.625,-0.70312 -3.45313,-0.70312 -1.82812,0 -3.46875,0.70312 -1.625,0.70313 -2.79687,1.92188 -1.17188,1.20312 -1.85938,2.90625 -0.67187,1.6875 -0.67187,3.59375 0,2.5625 1.15625,4.6875 1.15625,2.125 3.17187,3.34375 2.03125,1.21875 4.46875,1.21875 2.4375,0 4.45313,-1.21875 2.03125,-1.21875 3.1875,-3.34375 1.15625,-2.125 1.15625,-4.6875 0,-1.90625 -0.6875,-3.59375 -0.67188,-1.70313 -1.84375,-2.90625 -1.17188,-1.21875 -2.8125,-1.92188 z"
     id="path7186" /><path
     style="color:#000000;-inkscape-font-specification:Fellix;fill:#000000;-inkscape-stroke:none"
     d="m 354.33063,185.7131 v -22.40625 h 2.84375 l 8.51562,18.85938 8.67188,-18.85938 h 2.46875 v 22.40625 h -2.4375 v -17.53125 l -7.9375,17.53125 h -1.82813 l -7.90625,-17.53125 v 17.53125 z"
     id="path7188" /><path
     style="color:#000000;-inkscape-font-specification:Fellix;fill:#000000;-inkscape-stroke:none"
     d="m 390.5025,163.30685 q 2.82813,0 4.71875,1.85938 1.90625,1.84375 1.90625,4.57812 0,2.76563 -1.90625,4.625 -1.89062,1.84375 -4.71875,1.84375 h -6.21875 v 9.5 h -2.39062 v -22.40625 z m 0,10.59375 q 1.78125,0 2.98438,-1.1875 1.20312,-1.20312 1.20312,-2.96875 0,-1.75 -1.20312,-2.9375 -1.20313,-1.1875 -2.98438,-1.1875 h -6.21875 v 8.28125 z"
     id="path7190" /><path
     style="color:#000000;-inkscape-font-specification:Fellix;fill:#000000;-inkscape-stroke:none"
     d="m 412.97125,185.7131 -2.17187,-5.46875 h -10.59375 l -2.1875,5.46875 h -2.54688 l 8.95313,-22.40625 h 2.17187 l 9,22.40625 z m -11.84375,-7.78125 h 8.76563 l -4.375,-11.0625 z"
     id="path7192" /><path
     style="color:#000000;-inkscape-font-specification:Fellix;fill:#000000;-inkscape-stroke:none"
     d="m 434.51813,185.7131 h -2.92188 l -6.26562,-9.59375 h -4.42188 v 9.59375 h -2.39062 v -22.40625 h 8.09375 q 2.79687,0 4.70312,1.82813 1.92188,1.8125 1.92188,4.51562 0,2.53125 -1.4375,4.25 -1.42188,1.70313 -3.8125,2.10938 z m -13.60938,-20.09375 v 8.1875 h 5.64063 q 1.84375,0 3.04687,-1.17187 1.20313,-1.17188 1.20313,-2.98438 0,-1.75 -1.20313,-2.89062 -1.1875,-1.14063 -3.04687,-1.14063 z"
     id="path7194" /><path
     style="color:#000000;-inkscape-font-specification:Fellix;fill:#000000;-inkscape-stroke:none"
     d="m 453.40875,185.7131 -2.17187,-5.46875 h -10.59375 l -2.1875,5.46875 h -2.54688 l 8.95313,-22.40625 h 2.17187 l 9,22.40625 z M 441.565,177.93185 h 8.76563 l -4.375,-11.0625 z"
     id="path7196" /><path
     style="color:#000000;-inkscape-font-specification:Fellix;fill:#000000;-inkscape-stroke:none"
     d="m 474.47125,163.30685 v 2.3125 h -7.35937 v 20.09375 h -2.40625 v -20.09375 h -7.35938 v -2.3125 z"
     id="path7198" /><path
     style="color:#000000;-inkscape-font-specification:Fellix;fill:#000000;-inkscape-stroke:none"
     d="m 477.95563,163.30685 h 2.39062 v 22.40625 h -2.39062 z"
     id="path7200" /><path
     style="color:#000000;-inkscape-font-specification:Fellix;fill:#000000;-inkscape-stroke:none"
     d="m 485.39313,163.30685 h 12.51562 v 2.3125 h -10.125 v 7.23438 h 9.03125 v 2.29687 h -9.03125 v 10.5625 h -2.39062 z"
     id="path7202" /><path
     style="color:#000000;-inkscape-font-specification:'Fellix Bold';fill:#02a95c;-inkscape-stroke:none;fill-opacity:1"
     d="m 306.86788,228.0562 v -36.4 h 13.676 q 4.68,0 8.008,2.86 3.328,2.86 3.328,6.812 0,2.444 -1.456,4.628 -1.404,2.132 -3.588,2.86 2.912,0.572 4.784,3.068 1.924,2.444 1.924,5.772 0,4.368 -3.38,7.384 -3.328,3.016 -8.06,3.016 z m 7.696,-21.736 h 5.616 q 1.612,0 2.756,-1.092 1.144,-1.092 1.144,-2.6 0,-1.508 -1.144,-2.548 -1.092,-1.04 -2.756,-1.04 h -5.616 z m 0,14.352 h 6.864 q 1.768,0 3.016,-1.196 1.248,-1.248 1.248,-3.016 0,-1.768 -1.248,-3.016 -1.196,-1.248 -2.912,-1.248 h -6.968 z"
     id="path7204" /><path
     style="color:#000000;-inkscape-font-specification:'Fellix Bold';fill:#02a95c;-inkscape-stroke:none;fill-opacity:1"
     d="m 341.85575,196.4922 q 5.304,-5.356 13.26,-5.356 7.956,0 13.26,5.356 5.356,5.356 5.356,13.364 0,8.008 -5.356,13.364 -5.304,5.356 -13.26,5.356 -7.956,0 -13.26,-5.356 -5.304,-5.356 -5.304,-13.364 0,-8.008 5.304,-13.364 z m 20.852,5.356 q -3.016,-3.224 -7.592,-3.224 -4.576,0 -7.644,3.224 -3.016,3.224 -3.016,8.008 0,4.784 3.016,8.008 3.068,3.224 7.644,3.224 4.576,0 7.592,-3.224 3.068,-3.224 3.068,-8.008 0,-4.784 -3.068,-8.008 z"
     id="path7206" /><path
     style="color:#000000;-inkscape-font-specification:'Fellix Bold';fill:#02a95c;-inkscape-stroke:none;fill-opacity:1"
     d="m 392.62075,228.5242 q -6.24,0 -10.348,-4.108 -4.108,-4.16 -4.108,-10.452 v -22.308 h 7.696 v 22.308 q 0,3.016 1.924,5.044 1.924,2.028 4.836,2.028 2.86,0 4.784,-1.976 1.924,-2.028 1.924,-5.096 v -22.308 h 7.696 v 22.308 q 0,6.292 -4.108,10.452 -4.108,4.108 -10.296,4.108 z"
     id="path7208" /><path
     style="color:#000000;-inkscape-font-specification:'Fellix Bold';fill:#02a95c;-inkscape-stroke:none;fill-opacity:1"
     d="m 441.71688,228.0562 h -9.36 l -8.216,-13.884 h -3.952 v 13.884 h -7.696 v -36.4 h 14.04 q 4.628,0 8.06,3.328 3.432,3.276 3.432,7.904 0,3.484 -1.56,6.136 -1.56,2.6 -4.264,3.952 z m -21.528,-28.964 v 8.424 h 5.564 q 1.872,0 3.172,-1.196 1.3,-1.248 1.3,-3.068 0,-1.768 -1.3,-2.964 -1.3,-1.196 -3.172,-1.196 z"
     id="path7210" /><path
     style="color:#000000;-inkscape-font-specification:'Fellix Bold';fill:#02a95c;-inkscape-stroke:none;fill-opacity:1"
     d="m 456.87325,191.1362 q 3.536,0 7.228,1.612 3.744,1.56 5.824,3.952 l -4.472,6.084 q -2.028,-1.976 -4.524,-3.068 -2.444,-1.144 -4.68,-1.144 -1.976,0 -3.172,0.832 -1.196,0.832 -1.196,2.132 0,1.404 1.352,2.392 1.404,0.988 3.484,1.508 2.08,0.468 4.472,1.3 2.392,0.832 4.472,1.924 2.08,1.04 3.432,3.276 1.404,2.184 1.404,5.304 0,4.576 -3.64,7.956 -3.64,3.38 -9.776,3.38 -4.212,0 -8.476,-1.976 -4.264,-1.976 -6.604,-4.94 l 4.94,-5.616 q 4.836,5.044 10.14,5.044 2.496,0 4.004,-1.04 1.508,-1.04 1.508,-2.756 0,-1.404 -1.404,-2.34 -1.352,-0.936 -3.38,-1.404 -2.028,-0.468 -4.472,-1.248 -2.392,-0.78 -4.42,-1.768 -2.028,-1.04 -3.432,-3.172 -1.352,-2.184 -1.352,-5.252 0,-4.68 3.588,-7.8 3.588,-3.172 9.152,-3.172 z"
     id="path7212" /><path
     style="color:#000000;-inkscape-font-specification:'Fellix Bold';fill:#02a95c;-inkscape-stroke:none;fill-opacity:1"
     d="m 474.85225,191.6562 h 22.308 v 7.384 h -14.612 v 6.552 h 13 v 7.384 h -13 v 7.696 h 14.612 v 7.384 h -22.308 z"
     id="path7214" /></g></g>
	<g
   transform="translate(-4,1.8682331)"
   id="g48">
		<path
   id="path40"
   d="m 264.22113,74.363254 c 10.78586,7.449979 25.57462,6.226848 35.02607,-3.113424 10.67458,-10.674595 10.67458,-28.132011 0,-38.806608 -10.67458,-10.674591 -28.13201,-10.674591 -38.80658,0 -9.45146,9.451469 -10.67459,24.240231 -3.11351,35.026022 l -16.23422,16.234282 c -1.89027,1.890293 -1.89027,5.003718 0,6.894012 1.89026,1.890293 5.00364,1.890293 6.89404,0 z m 3.11345,-10.007436 c -6.89396,-6.894007 -6.89396,-18.124575 0,-24.907391 6.89399,-6.894011 18.12456,-6.894011 24.90741,0 6.89403,6.894009 6.89403,18.124576 0,24.907391 -6.78285,6.894012 -18.01342,6.894012 -24.90741,0 z"
   class="st2"
   style="stroke-width:1.11196" />
		<g
   id="g46">
			
			
		</g>
	</g>
</g>
</svg>
