<?xml version="1.0" encoding="UTF-8" standalone="no"?>
<svg
   inkscape:version="1.2 (dc2aeda, 2022-05-15)"
   height="113"
   width="513"
   sodipodi:docname="logo_compare_banque_white.svg"
   xml:space="preserve"
   viewBox="0 0 513 113"
   y="0px"
   x="0px"
   id="Layer_1"
   version="1.1"
   xmlns:inkscape="http://www.inkscape.org/namespaces/inkscape"
   xmlns:sodipodi="http://sodipodi.sourceforge.net/DTD/sodipodi-0.dtd"
   xmlns="http://www.w3.org/2000/svg"
   xmlns:svg="http://www.w3.org/2000/svg"
   xmlns:rdf="http://www.w3.org/1999/02/22-rdf-syntax-ns#"
   xmlns:cc="http://creativecommons.org/ns#"
   xmlns:dc="http://purl.org/dc/elements/1.1/"><metadata
   id="metadata57"><rdf:RDF><cc:Work
       rdf:about=""><dc:format>image/svg+xml</dc:format><dc:type
         rdf:resource="http://purl.org/dc/dcmitype/StillImage" /></cc:Work></rdf:RDF></metadata><defs
   id="defs55" /><sodipodi:namedview
   inkscape:current-layer="g38"
   inkscape:window-maximized="0"
   inkscape:window-y="86"
   inkscape:window-x="1572"
   inkscape:cy="208.97007"
   inkscape:cx="268.81008"
   inkscape:zoom="1.5959223"
   showgrid="false"
   id="namedview53"
   inkscape:window-height="1205"
   inkscape:window-width="1463"
   inkscape:pageshadow="2"
   inkscape:pageopacity="0"
   guidetolerance="10"
   gridtolerance="10"
   objecttolerance="10"
   borderopacity="1"
   bordercolor="#666666"
   pagecolor="#ffffff"
   inkscape:pagecheckerboard="0"
   showguides="true"
   inkscape:guide-bbox="true"
   inkscape:showpageshadow="2"
   inkscape:deskcolor="#d1d1d1" />
<style
   id="style10"
   type="text/css">
	.st0{fill:none;}
	.st1{fill:#3CA7FC;}
	.st2{fill-rule:evenodd;clip-rule:evenodd;}
	.st3{fill-rule:evenodd;clip-rule:evenodd;fill:#3CA7FC;}
</style>
<g
   id="g50">
	<g
   id="g38"
   transform="translate(4.3861784,-137.22473)"><g
   aria-label="Comparez"
   id="text7713"
   style="font-size:34.6667px;font-family:Metropolis;-inkscape-font-specification:Metropolis;stroke:#000000;fill:#ffffff"><g
     id="path23746"
     style="fill:#ffffff"><path
       style="color:#000000;-inkscape-font-specification:Metropolis;fill:#ffffff;stroke:none"
       d="m 356.1966,242.01645 c 3.29333,0 6.344,-1.42134 8.56267,-3.64 l -1.83733,-1.87201 c -1.73334,1.83734 -4.12534,3.01601 -6.72534,3.01601 -5.13067,0 -9.46401,-4.50667 -9.46401,-9.84535 0,-5.304 4.33334,-9.81067 9.46401,-9.81067 2.6,0 4.992,1.17867 6.72534,3.016 l 1.83733,-1.872 c -2.21867,-2.25334 -5.26934,-3.64 -8.56267,-3.64 -6.58668,0 -12.20268,5.616 -12.20268,12.30667 0,6.69068 5.616,12.34135 12.20268,12.34135 z"
       id="path23765" /><path
       style="color:#000000;-inkscape-font-specification:Metropolis;fill:#ffffff;stroke:none"
       d="m 356.19727,216.86914 c -6.87089,0 -12.70313,5.83619 -12.70313,12.80664 0,6.97047 5.83049,12.83984 12.70313,12.83984 3.43718,0 6.6108,-1.47995 8.91601,-3.78515 l 0.34961,-0.35156 -2.54883,-2.59571 -0.35547,0.37891 c -1.64902,1.74796 -3.91244,2.85742 -6.36132,2.85742 -4.83788,0 -8.96485,-4.27564 -8.96485,-9.34375 0,-5.03166 4.12697,-9.31055 8.96485,-9.31055 2.44888,0 4.7123,1.10947 6.36132,2.85743 l 0.35547,0.3789 2.54688,-2.59375 -0.34571,-0.34961 c -2.30748,-2.34354 -5.48429,-3.78906 -8.91796,-3.78906 z m 0,1 c 2.97885,0 5.70149,1.25195 7.79492,3.20703 l -1.13282,1.15235 c -1.78191,-1.71104 -4.09456,-2.86329 -6.6621,-2.86329 -5.42346,0 -9.96485,4.73423 -9.96485,10.31055 0,5.60924 4.54139,10.34375 9.96485,10.34375 2.56754,0 4.88019,-1.15223 6.6621,-2.86328 l 1.13086,1.15039 c -2.09527,1.93019 -4.81924,3.20898 -7.79296,3.20898 -6.30071,10e-6 -11.70313,-5.42896 -11.70313,-11.83984 0,-6.41087 5.40066,-11.80664 11.70313,-11.80664 z"
       id="path23767" /></g><g
     id="path23748"
     style="fill:#ffffff"><path
       style="color:#000000;-inkscape-font-specification:Metropolis;fill:#ffffff;stroke:none"
       d="m 376.89256,242.01645 c 5.06133,0 9.22134,-4.22934 9.22134,-9.39468 0,-5.16533 -4.16001,-9.36 -9.22134,-9.36 -5.09601,0 -9.25601,4.19467 -9.25601,9.36 0,5.16534 4.16,9.39468 9.25601,9.39468 z m 0,-2.32267 c -3.60534,0 -6.55201,-3.18934 -6.55201,-7.07201 0,-3.88267 2.94667,-7.03734 6.55201,-7.03734 3.57067,0 6.51734,3.15467 6.51734,7.03734 0,3.88267 -2.94667,7.07201 -6.51734,7.07201 z"
       id="path23771" /><path
       style="color:#000000;-inkscape-font-specification:Metropolis;fill:#ffffff;stroke:none"
       d="m 376.89258,222.76172 c -5.37038,0 -9.75586,4.42559 -9.75586,9.85937 0,5.43379 4.38321,9.89454 9.75586,9.89453 5.33986,0 9.7207,-4.46074 9.7207,-9.89453 0,-5.43378 -4.38312,-9.85937 -9.7207,-9.85937 z m 0,1 c 4.78507,0 8.7207,3.96251 8.7207,8.85937 0,4.89688 -3.93792,8.89454 -8.7207,8.89453 -4.81936,10e-6 -8.75586,-3.99765 -8.75586,-8.89453 0,-4.89686 3.93423,-8.85937 8.75586,-8.85937 z m 0,1.32226 c -3.897,0 -7.05274,3.40147 -7.05274,7.53711 0,4.13565 3.15253,7.57227 7.05274,7.57227 3.8684,0 7.01758,-3.43662 7.01758,-7.57227 0,-4.13564 -3.15242,-7.53711 -7.01758,-7.53711 z m 0,1 c 3.27617,0 6.01758,2.90742 6.01758,6.53711 0,3.62969 -2.74465,6.57227 -6.01758,6.57227 -3.31047,0 -6.05274,-2.94258 -6.05274,-6.57227 0,-3.62969 2.73907,-6.53711 6.05274,-6.53711 z"
       id="path23773" /></g><g
     id="path23750"
     style="fill:#ffffff"><path
       style="color:#000000;-inkscape-font-specification:Metropolis;fill:#ffffff;stroke:none"
       d="m 408.68187,223.26177 c -2.66933,0 -4.888,1.10933 -6.24,2.94666 -1.10934,-1.83733 -3.01601,-2.94666 -5.33867,-2.94666 -2.35734,0 -4.29868,1.17866 -5.20001,3.05066 v -2.63466 h -2.6 v 17.92268 h 2.6 V 230.1951 c 0,-2.704 2.01067,-4.61067 4.85334,-4.61067 2.42667,0 4.12534,2.04534 4.12534,4.95734 v 11.05868 h 2.6 V 230.1951 c 0,-2.704 2.01067,-4.61067 4.85334,-4.61067 2.42666,0 4.12533,2.04534 4.12533,4.95734 v 11.05868 h 2.60001 V 230.1951 c 0,-4.056 -2.63467,-6.93333 -6.37868,-6.93333 z"
       id="path23777" /><path
       style="color:#000000;-inkscape-font-specification:Metropolis;fill:#ffffff;stroke:none"
       d="m 397.10352,222.76172 c -1.99088,0 -3.56554,0.96101 -4.70118,2.30469 v -1.88868 h -3.59961 v 18.92188 h 3.59961 v -11.9043 c 0,-2.45613 1.73443,-4.11133 4.35352,-4.11133 1.07286,0 1.94908,0.43659 2.58984,1.20704 0.64077,0.77044 1.03711,1.89122 1.03711,3.25 v 11.55859 h 3.59961 v -11.9043 c 0,-2.45613 1.73443,-4.11133 4.35352,-4.11133 1.07285,0 1.94713,0.43659 2.58789,1.20704 0.64076,0.77044 1.03711,1.89122 1.03711,3.25 v 11.55859 h 3.59961 v -11.9043 c 0,-4.27252 -2.87873,-7.43359 -6.87891,-7.43359 -2.59339,0 -4.74462,1.0907 -6.21289,2.79687 -1.22855,-1.69255 -3.09062,-2.79687 -5.36523,-2.79687 z m 0,1 c 2.16345,0 3.88581,1.00853 4.91015,2.70508 l 0.38672,0.64062 0.44336,-0.60351 c 1.25418,-1.70439 3.30709,-2.74219 5.83789,-2.74219 3.48784,0 5.87891,2.59412 5.87891,6.43359 v 10.9043 h -1.59961 v -10.55859 c 0,-1.55323 -0.4543,-2.90845 -1.26953,-3.88868 -0.81524,-0.98022 -2.00167,-1.56836 -3.35547,-1.56836 -3.06625,0 -5.35352,2.15947 -5.35352,5.11133 v 10.9043 h -1.59961 v -10.55859 c 0,-1.55323 -0.45429,-2.90845 -1.26953,-3.88868 -0.81524,-0.98022 -2.00361,-1.56836 -3.35742,-1.56836 -3.06624,0 -5.35352,2.15947 -5.35352,5.11133 v 10.9043 h -1.59961 v -16.92188 h 1.59961 v 2.13477 l 0.95118,0.2168 c 0.81517,-1.69307 2.55932,-2.76758 4.75,-2.76758 z"
       id="path23779" /></g><g
     id="path23752"
     style="fill:#ffffff"><path
       style="color:#000000;-inkscape-font-specification:Metropolis;fill:#ffffff;stroke:none"
       d="m 427.95651,223.26177 c -2.87734,0 -5.16534,1.42133 -6.51734,3.77867 v -3.36267 h -2.6 v 23.88535 h 2.6 v -9.32534 c 1.352,2.35733 3.64,3.77867 6.51734,3.77867 4.71467,0 8.25067,-3.88267 8.25067,-9.39468 0,-5.47733 -3.536,-9.36 -8.25067,-9.36 z m -0.48534,16.43201 c -3.536,0 -6.032,-2.94667 -6.032,-7.07201 0,-4.12533 2.496,-7.03734 6.032,-7.03734 3.50134,0 5.99734,2.91201 5.99734,7.03734 0,4.12534 -2.496,7.07201 -5.99734,7.07201 z"
       id="path23783" /><path
       style="color:#000000;-inkscape-font-specification:Metropolis;fill:#ffffff;stroke:none"
       d="m 427.95703,222.76172 c -2.47932,0 -4.54934,1.05767 -6.01758,2.78515 v -2.36914 h -3.59961 v 24.88477 h 3.59961 v -8.33203 c 1.46824,1.72748 3.53826,2.78515 6.01758,2.78515 4.98918,0 8.75,-4.16869 8.75,-9.89453 0,-5.69251 -3.76082,-9.85937 -8.75,-9.85937 z m 0,1 c 4.44016,0 7.75,3.59724 7.75,8.85937 0,5.29817 -3.30984,8.89454 -7.75,8.89453 -2.71268,0 -4.80995,-1.30595 -6.08398,-3.52734 l -0.9336,-1.62695 v 10.70117 h -1.59961 v -22.88477 h 1.59961 v 4.74024 l 0.9336,-1.62891 c 1.27403,-2.22139 3.3713,-3.52734 6.08398,-3.52734 z m -0.48633,1.32226 c -1.90525,0 -3.56581,0.79912 -4.7207,2.14649 -1.15489,1.34737 -1.81055,3.22712 -1.81055,5.39062 0,2.16351 0.65447,4.05234 1.8086,5.40821 1.15413,1.35587 2.81577,2.16406 4.72265,2.16406 1.89094,0 3.54409,-0.81034 4.69336,-2.16602 1.14928,-1.35567 1.80469,-3.24274 1.80469,-5.40625 0,-2.1635 -0.65465,-4.04148 -1.80469,-5.38867 -1.15003,-1.34718 -2.80407,-2.14844 -4.69336,-2.14844 z m 0,1 c 1.61206,0 2.95835,0.65673 3.93164,1.79688 0.9733,1.14015 1.56641,2.77841 1.56641,4.74023 0,1.96183 -0.59235,3.61078 -1.56641,4.75977 -0.97405,1.14899 -2.32123,1.8125 -3.93164,1.8125 -1.62911,0 -2.98307,-0.6637 -3.96093,-1.8125 -0.97787,-1.1488 -1.57032,-2.79794 -1.57032,-4.75977 0,-1.96182 0.5932,-3.60027 1.57032,-4.74023 0.97711,-1.13996 2.33019,-1.79688 3.96093,-1.79688 z"
       id="path23785" /></g><g
     id="path23754"
     style="fill:#ffffff"><path
       style="color:#000000;-inkscape-font-specification:Metropolis;fill:#ffffff;stroke:none"
       d="m 446.4338,223.26177 c -1.73333,0 -3.88267,0.45066 -6.448,1.73333 l 1.04,2.11467 c 1.62933,-0.832 3.432,-1.62934 5.23467,-1.62934 3.88267,0 4.85334,2.77334 4.85334,5.20001 v 0.65867 c -1.83734,-0.58934 -3.88267,-1.00534 -5.82401,-1.00534 -3.848,0 -7.03734,2.392 -7.03734,5.96267 0,3.53601 2.77334,5.72001 6.55201,5.72001 2.35733,0 5.02667,-1.10934 6.30934,-3.224 v 2.808 h 2.6 v -10.92001 c 0,-4.33334 -2.392,-7.41867 -7.28001,-7.41867 z m -1.17867,16.46668 c -2.53067,0 -4.472,-1.31734 -4.472,-3.53601 0,-2.14933 2.25333,-3.67467 4.92267,-3.67467 1.94134,0 3.77867,0.27734 5.40801,0.728 v 2.73867 c -0.69334,2.53067 -3.50134,3.74401 -5.85868,3.74401 z"
       id="path23789" /><path
       style="color:#000000;-inkscape-font-specification:Metropolis;fill:#ffffff;stroke:none"
       d="m 446.43359,222.76172 c -1.81999,0 -4.04853,0.47543 -6.67187,1.78711 l -0.44336,0.2207 1.48242,3.01563 0.45313,-0.23047 c 1.61152,-0.82291 3.35062,-1.57422 5.00586,-1.57422 1.82228,0 2.8434,0.6122 3.48046,1.48437 0.63707,0.87218 0.87305,2.06818 0.87305,3.21485 v 0.0195 c -1.70574,-0.49752 -3.53506,-0.86524 -5.32422,-0.86524 -2.0276,0 -3.89736,0.62849 -5.27734,1.75586 -1.37998,1.12737 -2.25977,2.77283 -2.25977,4.70703 0,1.89873 0.76451,3.48778 2.03711,4.56641 1.2726,1.07864 3.02996,1.65234 5.01563,1.65234 2.06268,0 4.28599,-0.81983 5.80859,-2.375 v 1.95899 h 3.59961 v -11.41992 c 0,-2.25867 -0.62522,-4.24672 -1.9375,-5.67188 -1.31228,-1.42516 -3.29259,-2.24609 -5.8418,-2.24609 z m 0,1 c 2.33881,0 3.99975,0.72299 5.10547,1.92383 1.10573,1.20083 1.67383,2.91947 1.67383,4.99414 v 10.41992 h -1.59961 v -4.0957 l -0.92773,1.52929 c -1.16336,1.91796 -3.6804,2.98242 -5.88086,2.98242 -1.79301,0 -3.31041,-0.51669 -4.36914,-1.41406 -1.05874,-0.89736 -1.6836,-2.1674 -1.6836,-3.80469 0,-1.63646 0.71589,-2.97229 1.89258,-3.93359 1.17669,-0.96129 2.82414,-1.5293 4.64453,-1.5293 1.86991,0 3.87214,0.40319 5.67188,0.98047 l 0.65234,0.21094 v -1.3457 c 0,-1.28 -0.24747,-2.68353 -1.06641,-3.80469 -0.81893,-1.12116 -2.22672,-1.89453 -4.2871,-1.89453 -1.77697,0 -3.46094,0.71787 -4.9961,1.47851 l -0.58984,-1.19531 c 2.28252,-1.06617 4.22456,-1.50195 5.75976,-1.50195 z m -0.72851,8.25586 c -1.42991,0 -2.75815,0.40397 -3.75586,1.12695 -0.99772,0.72298 -1.66602,1.79943 -1.66602,3.04883 0,1.25517 0.57377,2.30894 1.48438,2.99805 0.9106,0.6891 2.13619,1.03711 3.48828,1.03711 1.26445,0 2.62984,-0.31851 3.80078,-0.98829 1.17094,-0.66977 2.15232,-1.71144 2.53906,-3.12304 l 0.0176,-0.0664 v -3.18555 l -0.36523,-0.10156 c -1.67162,-0.46235 -3.55401,-0.74609 -5.54297,-0.74609 z m 0,1 c 1.76194,0 3.40528,0.27591 4.9082,0.66211 v 2.20508 c -0.31344,1.09995 -1.06827,1.92321 -2.05273,2.48632 -0.99573,0.56956 -2.21181,0.85743 -3.30469,0.85743 -1.17858,0 -2.19204,-0.30976 -2.88477,-0.83399 -0.69272,-0.52423 -1.08789,-1.23767 -1.08789,-2.20117 0,-0.89993 0.45763,-1.66322 1.25391,-2.24024 0.79628,-0.57701 1.92854,-0.93554 3.16797,-0.93554 z"
       id="path23791" /></g><g
     id="path23756"
     style="fill:#ffffff"><path
       style="color:#000000;-inkscape-font-specification:Metropolis;fill:#ffffff;stroke:none"
       d="m 460.02312,227.1791 v -3.50133 h -2.6 v 17.92268 h 2.6 v -10.01868 c 0,-3.50133 2.87734,-5.99734 6.93334,-5.99734 v -2.32266 c -3.29333,0 -5.85867,1.52533 -6.93334,3.91733 z"
       id="path23795" /><path
       style="color:#000000;-inkscape-font-specification:Metropolis;fill:#ffffff;stroke:none"
       d="m 466.95703,222.76172 c -2.73769,0 -5.01331,1.05122 -6.43359,2.76953 v -2.35352 h -3.59961 v 18.92188 h 3.59961 v -10.51758 c 0,-1.6137 0.65007,-2.96107 1.77343,-3.93359 1.12337,-0.97253 2.73473,-1.56446 4.66016,-1.56446 h 0.5 v -3.32226 z m -0.5,1.05859 v 1.34375 c -1.90628,0.10056 -3.59942,0.67495 -4.81641,1.72852 -1.3293,1.15081 -2.11718,2.80182 -2.11718,4.68945 v 9.51758 h -1.59961 v -16.92188 h 1.59961 v 3.00196 l 0.95508,0.20508 c 0.92932,-2.0685 3.10402,-3.41326 5.97851,-3.56446 z"
       id="path23797" /></g><g
     id="path23758"
     style="fill:#ffffff"><path
       style="color:#000000;-inkscape-font-specification:Metropolis;fill:#ffffff;stroke:none"
       d="m 477.07907,239.69378 c -3.53601,0 -5.99734,-2.56534 -6.37867,-6.06667 h 14.66401 c 0,-6.27467 -3.08534,-10.36534 -8.49334,-10.36534 -4.81867,0 -8.84001,3.98667 -8.84001,9.32534 0,5.512 4.29867,9.42934 9.08267,9.42934 2.49601,0 5.65068,-1.07467 7.21068,-2.77334 l -1.59467,-1.69867 c -1.10933,1.21334 -3.536,2.14934 -5.65067,2.14934 z m -0.104,-14.10935 c 3.57067,0 5.47734,2.49601 5.824,5.72001 h -12.06401 c 0.48534,-3.46667 3.05067,-5.72001 6.24001,-5.72001 z"
       id="path23801" /><path
       style="color:#000000;-inkscape-font-specification:Metropolis;fill:#ffffff;stroke:none"
       d="m 476.87109,222.76172 c -5.09444,0 -9.33984,4.23642 -9.33984,9.82617 0,5.77195 4.52509,9.92774 9.58203,9.92773 2.63953,10e-6 5.864,-1.06496 7.58008,-2.93359 l 0.3125,-0.3418 -2.28125,-2.43164 -0.36328,0.39844 c -0.95071,1.03985 -3.31608,1.98633 -5.28321,1.98633 -3.09289,0 -5.18361,-2.08708 -5.73242,-5.06641 h 14.51953 v -0.5 c 0,-3.21928 -0.79112,-5.92626 -2.33007,-7.84765 -1.53896,-1.92139 -3.834,-3.01758 -6.66407,-3.01758 z m 0,1 c 2.57793,0 4.52906,0.94997 5.88477,2.64258 1.2735,1.58997 1.95768,3.91934 2.04297,6.72265 h -14.65625 l 0.0605,0.55469 c 0.40356,3.70541 3.09717,6.51172 6.875,6.51172 2.06367,0 4.21651,-0.82965 5.5586,-2.01758 l 0.91601,0.97656 c -1.50874,1.37038 -4.2421,2.36329 -6.43945,2.36328 -4.51105,0 -8.58203,-3.67569 -8.58203,-8.92773 0,-5.08758 3.79696,-8.82617 8.33984,-8.82617 z m 0.10352,1.32226 c -3.42484,0 -6.21962,2.4736 -6.73438,6.15039 l -0.0801,0.57032 h 13.19531 l -0.0586,-0.55274 c -0.18228,-1.69524 -0.77732,-3.2343 -1.83593,-4.35937 -1.05861,-1.12507 -2.58449,-1.8086 -4.48633,-1.8086 z m 0,1 c 1.66883,0 2.88376,0.56521 3.75781,1.49414 0.75981,0.80752 1.20763,1.94736 1.4336,3.22657 H 471.4043 c 0.64865,-2.89512 2.80729,-4.72071 5.57031,-4.72071 z"
       id="path23803" /></g><g
     id="path23760"
     style="fill:#ffffff"><path
       style="color:#000000;-inkscape-font-specification:Metropolis;fill:#ffffff;stroke:none"
       d="m 487.68703,241.60045 h 14.14401 v -2.46134 H 491.1537 l 10.60801,-13.41601 v -2.04533 h -13.86668 v 2.46133 h 10.36534 l -10.57334,13.41601 z"
       id="path23807" /><path
       style="color:#000000;-inkscape-font-specification:Metropolis;fill:#ffffff;stroke:none"
       d="m 487.39453,223.17773 v 3.46094 h 9.83594 l -10.04297,12.74219 v 2.71875 h 0.5 14.64258 v -3.46094 H 492.1875 l 10.07422,-12.74219 v -2.71875 z m 1,1 h 12.86719 v 1.3711 l -11.14063,14.08984 h 11.20899 v 1.46094 H 488.1875 v -1.37109 l 11.10352,-14.08985 h -10.89649 z"
       id="path23809" /></g></g>
		
		
	<g
   aria-label="
ExpertBanques"
   id="text5112"
   style="font-size:40px;font-family:Montserrat;-inkscape-font-specification:Montserrat;fill:#ffffff"><path
     d="M -0.32738987,145.57465 H 31.132595 v 10.41333 H 10.525938 v 9.24 H 28.859263 V 175.6413 H 10.525938 v 10.85333 h 20.606657 v 10.41333 H -0.32738987 Z"
     style="-inkscape-font-specification:Fellix;fill:#ffffff"
     id="path23817" /><path
     d="M 73.152469,196.90796 H 60.685808 l -6.819996,-9.75333 -6.819997,9.75333 H 34.725821 L 47.705815,178.35464 35.532487,160.90131 h 12.466661 l 5.939997,8.50666 6.01333,-8.50666 H 72.272469 L 60.099142,178.2813 Z"
     style="-inkscape-font-specification:'Fellix Bold';fill:#ffffff"
     id="path23819" /><path
     d="m 99.405711,160.16798 q 6.966659,0 11.806659,5.5 4.91333,5.42666 4.91333,13.19999 0,7.77333 -4.91333,13.27333 -4.84,5.49999 -11.806659,5.49999 -7.479996,0 -11.366661,-5.79333 v 16.94 H 77.699055 V 160.90131 H 88.03905 v 5.06 q 3.886665,-5.79333 11.366661,-5.79333 z m -2.346665,27.57332 q 3.739994,0 6.379994,-2.56667 2.64,-2.56666 2.64,-6.30666 0,-3.66666 -2.64,-6.23333 -2.64,-2.64 -6.379994,-2.64 -3.813332,0 -6.453331,2.56667 -2.566665,2.56666 -2.566665,6.30666 0,3.81333 2.566665,6.38 2.639999,2.49333 6.453331,2.49333 z"
     style="-inkscape-font-specification:'Fellix Bold';fill:#ffffff"
     id="path23821" /><path
     d="m 156.09219,177.32797 q 0,2.2 -0.29334,4.03333 H 129.9122 q 1.46667,7.48 9.24,7.48 2.49333,0 4.69333,-1.02667 2.2,-1.02666 3.15333,-2.64 l 8.06666,4.91333 q -1.98,3.59334 -6.23333,5.57334 -4.25333,1.97999 -9.89999,1.97999 -7.92,0 -13.42,-5.42666 -5.49999,-5.5 -5.49999,-13.49333 0,-7.84666 5.42666,-13.19999 5.42666,-5.35333 13.27333,-5.35333 7.33333,0 12.31999,4.98666 5.06,4.98667 5.06,12.17333 z m -26.03332,-2.56666 h 15.69332 q -0.29333,-2.71334 -2.49333,-4.47334 -2.2,-1.76 -5.06,-1.76 -6.59999,0 -8.13999,6.23334 z"
     style="-inkscape-font-specification:'Fellix Bold';fill:#ffffff"
     id="path23823" /><path
     d="m 180.87878,160.16798 q 3.00667,0 4.76666,0.80667 l -1.17333,10.04666 q -2.05333,-0.88 -4.62,-0.88 -2.93333,0 -5.27999,2.34666 -2.34667,2.27334 -2.34667,6.67333 v 17.74666 h -10.33999 v -36.00665 h 10.33999 v 4.47333 q 1.1,-2.27333 3.66667,-3.74 2.56666,-1.46666 4.98666,-1.46666 z"
     style="-inkscape-font-specification:'Fellix Bold';fill:#ffffff"
     id="path23825" /><path
     d="m 213.87868,187.3013 0.51333,9.16666 q -2.05333,1.02667 -5.27999,1.02667 -6.45333,0 -10.41333,-3.88667 -3.96,-3.88666 -3.96,-10.77999 v -12.1 h -6.67333 v -9.82666 h 6.67333 v -9.45999 h 10.34 v 9.45999 h 8.87332 v 9.82666 h -8.87332 v 11.58666 q 0,2.49334 1.61333,4.03334 1.61333,1.46666 3.96,1.46666 1.83333,0 3.22666,-0.51333 z"
     style="-inkscape-font-specification:'Fellix Bold';fill:#ffffff"
     id="path23827" /><path
     d="m 220.332,196.90796 v -51.33331 h 19.28666 q 6.6,0 11.29333,4.03333 4.69333,4.03334 4.69333,9.60667 0,3.44666 -2.05333,6.52666 -1.98,3.00666 -5.06,4.03333 4.10666,0.80667 6.74666,4.32667 2.71334,3.44666 2.71334,8.13999 0,6.16 -4.76667,10.41333 -4.69333,4.25333 -11.36666,4.25333 z m 10.85333,-30.65332 h 7.92 q 2.27333,0 3.88666,-1.54 1.61333,-1.54 1.61333,-3.66666 0,-2.12667 -1.61333,-3.59333 -1.54,-1.46667 -3.88666,-1.46667 h -7.92 z m 0,20.23999 h 9.68 q 2.49333,0 4.25333,-1.68666 1.76,-1.76 1.76,-4.25333 0,-2.49334 -1.76,-4.25334 -1.68667,-1.75999 -4.10667,-1.75999 h -9.82666 z"
     style="-inkscape-font-specification:'Fellix Bold';fill:#ffffff"
     id="path23829" /><path
     d="m 289.92523,160.90131 h 10.33999 v 36.00665 h -10.33999 v -5.13333 q -3.88667,5.86666 -11.44,5.86666 -6.96666,0 -11.87999,-5.49999 -4.84,-5.5 -4.84,-13.27333 0,-7.77333 4.84,-13.19999 4.91333,-5.5 11.87999,-5.5 7.55333,0 11.44,5.86666 z m -9.02,26.83999 q 3.81333,0 6.38,-2.49333 2.64,-2.56667 2.64,-6.38 0,-3.74 -2.64,-6.30666 -2.56667,-2.56667 -6.38,-2.56667 -3.74,0 -6.37999,2.64 -2.64,2.56667 -2.64,6.23333 0,3.74 2.64,6.30666 2.63999,2.56667 6.37999,2.56667 z"
     style="-inkscape-font-specification:'Fellix Bold';fill:#ffffff"
     id="path23831" /><path
     d="m 327.61844,160.16798 q 6.89333,0 10.85333,4.4 3.96,4.32666 3.96,11.95332 v 20.38666 h -10.34 V 177.8413 q 0,-3.51999 -1.97999,-5.64666 -1.90667,-2.12667 -5.13334,-2.12667 -3.22666,0 -5.20666,2.12667 -1.90667,2.12667 -1.90667,5.64666 v 19.06666 h -10.33999 v -36.00665 h 10.33999 v 4.69333 q 3.59334,-5.42666 9.75333,-5.42666 z"
     style="-inkscape-font-specification:'Fellix Bold';fill:#ffffff"
     id="path23833" /><path
     d="m 376.31167,160.90131 h 10.34 v 47.88665 h -10.34 v -17.01333 q -3.88666,5.86666 -11.43999,5.86666 -6.96667,0 -11.88,-5.49999 -4.83999,-5.5 -4.83999,-13.27333 0,-7.77333 4.83999,-13.19999 4.91333,-5.5 11.88,-5.5 7.55333,0 11.43999,5.86666 z m -9.01999,26.83999 q 3.81333,0 6.37999,-2.49333 2.64,-2.56667 2.64,-6.38 0,-3.74 -2.64,-6.30666 -2.56666,-2.56667 -6.37999,-2.56667 -3.74,0 -6.38,2.64 -2.64,2.56667 -2.64,6.23333 0,3.74 2.64,6.30666 2.64,2.56667 6.38,2.56667 z"
     style="-inkscape-font-specification:'Fellix Bold';fill:#ffffff"
     id="path23835" /><path
     d="m 418.47822,160.90131 h 10.33999 v 36.00665 h -10.33999 v -4.76666 q -3.44667,5.49999 -9.75333,5.49999 -6.89333,0 -10.85333,-4.39999 -3.96,-4.4 -3.96,-12.02666 v -20.31333 h 10.34 v 18.99333 q 0,3.59333 1.90666,5.71999 1.98,2.12667 5.20667,2.12667 3.22666,0 5.13333,-2.12667 1.98,-2.12666 1.98,-5.71999 z"
     style="-inkscape-font-specification:'Fellix Bold';fill:#ffffff"
     id="path23837" /><path
     d="m 470.61811,177.32797 q 0,2.2 -0.29333,4.03333 h -25.88666 q 1.46667,7.48 9.24,7.48 2.49333,0 4.69333,-1.02667 2.2,-1.02666 3.15333,-2.64 l 8.06667,4.91333 q -1.98,3.59334 -6.23333,5.57334 -4.25334,1.97999 -9.9,1.97999 -7.92,0 -13.41999,-5.42666 -5.5,-5.5 -5.5,-13.49333 0,-7.84666 5.42666,-13.19999 5.42667,-5.35333 13.27333,-5.35333 7.33333,0 12.31999,4.98666 5.06,4.98667 5.06,12.17333 z m -26.03332,-2.56666 h 15.69333 q -0.29334,-2.71334 -2.49333,-4.47334 -2.2,-1.76 -5.06,-1.76 -6.6,0 -8.14,6.23334 z"
     style="-inkscape-font-specification:'Fellix Bold';fill:#ffffff"
     id="path23839" /><path
     d="m 489.24464,197.64129 q -9.75333,0 -16.13333,-4.54666 l 3.08,-7.18666 q 5.13333,3.81333 12.17333,3.81333 2.42,0 3.81333,-0.80667 1.46667,-0.80666 1.46667,-2.12666 0,-1.46667 -2.05334,-2.27334 -1.97999,-0.88 -4.83999,-1.46666 -2.86,-0.58667 -5.72,-1.54 -2.86,-0.95333 -4.91333,-3.3 -1.98,-2.42 -2.05333,-6.08666 -0.0733,-5.13333 4.03333,-8.50667 4.10666,-3.44666 10.41333,-3.44666 8.57999,0 13.71332,4.10666 l -2.93333,7.48 q -2.12667,-1.61333 -5.28,-2.64 -3.08,-1.1 -5.93999,-1.1 -1.98,0 -3.22667,0.80667 -1.17333,0.80666 -1.17333,2.05333 0,1.39333 2.05333,2.34667 2.05333,0.88 4.91333,1.61333 2.86,0.73333 5.72,1.83333 2.93333,1.02667 4.98666,3.44667 2.05334,2.41999 2.12667,6.01333 0,4.98666 -4.03333,8.28666 -3.96,3.22666 -10.19333,3.22666 z"
     style="-inkscape-font-specification:'Fellix Bold';fill:#ffffff"
     id="path23841" /></g><g
   id="rect7553"><path
     style="color:#000000;fill:#02a95c;stroke-width:1.02274;-inkscape-stroke:none"
     d="M 0.01136955,223.70647 H 337.09776 v 15.64218 H 0.01136955 Z"
     id="path23813" /><path
     style="color:#000000;fill:#02a95c;-inkscape-stroke:none"
     d="m -0.5,223.19531 v 0.51172 16.15234 h 338.10937 v -16.66406 z m 1.0234375,1.02344 H 336.58594 v 14.61914 H 0.5234375 Z"
     id="path23815" /></g></g>
	
</g>
</svg>
