<?xml version="1.0" encoding="UTF-8" standalone="no"?>
<svg
   viewBox="0 0 255.94 217.49"
   version="1.1"
   id="svg868"
   sodipodi:docname="mafrenchbank.svg"
   inkscape:version="1.1 (c4e8f9e, 2021-05-24)"
   xmlns:inkscape="http://www.inkscape.org/namespaces/inkscape"
   xmlns:sodipodi="http://sodipodi.sourceforge.net/DTD/sodipodi-0.dtd"
   xmlns="http://www.w3.org/2000/svg"
   xmlns:svg="http://www.w3.org/2000/svg"
   xmlns:rdf="http://www.w3.org/1999/02/22-rdf-syntax-ns#"
   xmlns:cc="http://creativecommons.org/ns#"
   xmlns:dc="http://purl.org/dc/elements/1.1/">
  <metadata
     id="metadata874">
    <rdf:RDF>
      <cc:Work
         rdf:about="">
        <dc:format>image/svg+xml</dc:format>
        <dc:type
           rdf:resource="http://purl.org/dc/dcmitype/StillImage" />
      </cc:Work>
    </rdf:RDF>
  </metadata>
  <defs
     id="defs872" />
  <sodipodi:namedview
     pagecolor="#ffffff"
     bordercolor="#666666"
     borderopacity="1"
     objecttolerance="10"
     gridtolerance="10"
     guidetolerance="10"
     inkscape:pageopacity="0"
     inkscape:pageshadow="2"
     inkscape:window-width="2048"
     inkscape:window-height="1046"
     id="namedview870"
     showgrid="false"
     inkscape:zoom="2.7488092"
     inkscape:cx="143.51669"
     inkscape:cy="108.41058"
     inkscape:window-x="0"
     inkscape:window-y="25"
     inkscape:window-maximized="1"
     inkscape:current-layer="svg868"
     inkscape:pagecheckerboard="0" />
  <path
     class="bird"
     d="m 127.26885,44.32745 c 26.76632,-6.761356 44.5115,-11.803113 68.3158,-16.304682 0.72925,-0.108037 1.1704,-0.414143 0,-0.43215 l -41.23437,0.74726 c 0.16206,1.674584 -1.62056,4.078421 -5.35687,6.392228 -1.91767,1.197417 -6.30219,3.50222 -21.76058,9.327249 -0.20707,0.09004 -0.10804,0.306108 0,0.270095"
     id="path833"
     style="opacity:0.95;fill:#004457;fill-opacity:1;stroke-width:0.900314" />
  <path
     class="bird"
     d="m 170.79001,35.009203 -4.69064,6.014095 a 5.122785,5.122785 0 0 1 -3.66427,2.340816 l -28.62097,0.900314 c -0.18908,0 -0.13505,-0.117041 -0.054,-0.144051 l 36.91286,-9.309243 c 0.19808,-0.07202 0.20708,0.05402 0.09,0.180063"
     id="path835"
     style="fill:#004457;fill-opacity:1;stroke-width:0.900314" />
  <path
     class="bird"
     d="m 177.19124,19.757889 c 3.67328,0.04501 3.60126,2.349819 1.85465,4.645619 -0.70225,0.945329 -0.95434,1.287448 -1.62958,2.106733 l -23.70525,0.261091 c -3.24114,-2.899009 -9.44429,-5.275838 -13.1896,-6.617305 -0.71125,-0.279098 -0.2971,-0.279098 0.27009,-0.270094 3.60126,0 34.46401,-0.153054 36.39969,-0.126044"
     id="path837"
     style="opacity:0.98;fill:#004457;fill-opacity:1;stroke-width:0.900314" />
  <rect
     class="logo-rect"
     x="-11.806373"
     y="96.035164"
     width="220.76593"
     height="66.371124"
     transform="rotate(-15.04)"
     id="rect839"
     style="opacity:0.85;fill:#004457;fill-opacity:1;stroke-width:0.900314" />
  <path
     d="m 59.151107,120.98016 -15.134274,4.06041 3.286145,12.22627 -6.014095,1.62056 -8.102823,-30.18752 22.165723,-5.96008 1.485518,5.54594 -16.151628,4.33951 1.854646,6.8784 15.089258,-4.06943 z"
     id="path841"
     style="fill:#ffffff;stroke-width:0.900314" />
  <path
     d="m 74.303387,97.644033 c 7.202509,-1.935684 11.974172,0.441146 13.504705,6.221157 1.332465,4.95173 -1.20642,9.26423 -6.851387,11.38897 l 12.541369,9.59735 -7.274533,1.9897 -12.019189,-9.67838 -1.800627,0.47716 3.232126,12.01019 -6.014096,1.61156 -8.102823,-30.18752 z m -5.266835,7.355557 1.989693,7.43659 6.644315,-1.80062 c 3.277142,-0.90032 4.654622,-2.54789 3.970384,-5.09578 -0.684239,-2.54789 -2.772966,-3.1601 -5.960077,-2.30481 z"
     id="path843"
     style="fill:#ffffff;stroke-width:0.900314" />
  <path
     d="m 122.68624,117.00977 -22.55285,6.06812 -8.102826,-30.196522 22.381806,-6.014095 1.48551,5.527926 -16.3677,4.393529 1.80062,6.680332 15.61144,-4.186459 1.48553,5.518919 -15.62045,4.19546 1.87265,6.94143 16.52976,-4.40254 z"
     id="path845"
     style="fill:#ffffff;stroke-width:0.900314" />
  <path
     d="m 157.32131,107.70953 -5.65396,1.52154 -20.70722,-16.052598 5.40188,20.167018 -6.01409,1.62058 -8.10283,-30.187525 5.60895,-1.512527 20.70723,16.034589 -5.40189,-20.176032 6.04111,-1.620565 z"
     id="path847"
     style="fill:#ffffff;stroke-width:0.900314" />
  <path
     d="m 185.63618,74.388925 -4.3215,4.564591 a 9.3632626,9.3632626 0 0 0 -8.92212,-2.070722 c -5.4739,1.476515 -8.45394,6.572289 -6.87839,12.442336 1.64758,6.050104 6.86039,8.742044 12.18124,7.310544 a 9.5613316,9.5613316 0 0 0 6.76136,-6.302194 l 5.87005,2.223775 a 15.58443,15.58443 0 0 1 -11.02885,9.804415 c -9.30024,2.49388 -17.61914,-2.32281 -20.05899,-11.397969 -2.43985,-9.075163 2.34982,-17.412068 11.64106,-19.91494 5.59095,-1.449505 11.16389,-0.225078 14.75614,3.340164 z"
     id="path849"
     style="fill:#ffffff;stroke-width:0.900314" />
  <path
     d="m 198.88879,77.206907 14.54007,-3.898358 -3.26813,-12.190249 6.01409,-1.620564 8.10283,30.187519 -6.0141,1.620564 -3.34017,-12.424329 -14.52205,3.934372 3.33116,12.424333 -6.0141,1.611561 -8.10282,-30.187523 6.01409,-1.611561 z"
     id="path851"
     style="fill:#ffffff;stroke-width:0.900314" />
  <rect
     class="logo-rect"
     x="18.790045"
     y="143.11888"
     width="159.23848"
     height="66.371124"
     id="rect853"
     style="fill:#004457;fill-opacity:1;stroke-width:0.900314" />
  <path
     d="m 46.537712,160.67499 c 7.274534,0 11.857131,2.70094 11.857131,8.66102 a 6.9864344,6.9864344 0 0 1 -4.501568,6.63531 7.4996132,7.4996132 0 0 1 5.203813,7.01345 c 0,6.00509 -4.258484,8.94912 -11.7671,8.94912 H 33.825282 v -31.2589 z m -6.545281,5.49192 v 7.30154 h 6.392228 c 3.097079,0 5.50992,-0.64823 5.50992,-3.68229 0,-3.03405 -2.457857,-3.60125 -5.53693,-3.60125 z m 0,12.77545 v 7.49961 h 6.986435 c 3.439198,0 5.608954,-0.80128 5.608954,-3.79032 0,-2.98904 -2.169756,-3.7273 -5.608954,-3.7273 z"
     id="path855"
     style="fill:#ffffff;stroke-width:0.900314" />
  <path
     d="m 93.723158,191.93389 h -6.653323 l -2.700941,-7.27454 H 71.008239 l -2.700942,7.27454 h -6.518271 l 12.172242,-31.2589 h 7.589644 z M 73.159989,178.91534 h 9.003136 l -4.501568,-12.0732 z"
     id="path857"
     style="fill:#ffffff;stroke-width:0.900314" />
  <path
     d="m 126.2785,191.93389 h -5.85204 L 104.58093,171.0556 v 20.87829 h -6.25718 v -31.2589 h 5.83404 l 15.87253,20.87828 v -20.87828 h 6.24818 z"
     id="path859"
     style="fill:#ffffff;stroke-width:0.900314" />
  <path
     d="m 143.85262,179.05939 h -2.881 v 12.8745 h -6.23018 v -31.2589 h 6.23018 v 12.65842 h 2.94403 l 10.33559,-12.65842 h 7.81473 l -13.10857,15.25132 14.09891,16.00758 h -8.10282 z"
     id="path861"
     style="fill:#ffffff;stroke-width:0.900314" />
  <rect
     id="logo-color"
     x="18.736025"
     width="98.971497"
     height="66.371124"
     style="opacity:1;fill:#fa283c;fill-opacity:1;stroke-width:0.900314"
     y="13.680772" />
  <path
     class="logo-color-letter"
     d="m 68.208263,62.49578 h -6.23017 V 38.889555 L 54.253401,59.479729 H 47.663104 L 39.938412,39.069617 v 23.408157 h -6.23017 V 31.236889 h 9.138183 l 8.102824,21.094349 8.102824,-21.094349 h 9.15619 z"
     id="path864"
     style="fill:#ffffff;stroke-width:0.900314" />
  <path
     class="logo-color-letter"
     d="M 105.0581,62.49578 H 98.40479 L 95.703845,55.212243 H 82.343189 L 79.642247,62.49578 H 73.123976 L 85.296218,31.236889 h 7.589641 z M 84.485935,49.477244 h 9.003136 l -4.501567,-12.08221 z"
     id="path866"
     style="fill:#ffffff;stroke-width:0.900314" />
</svg>
