<?xml version="1.0" encoding="utf-8"?>
<!-- Generator: Adobe Illustrator 17.1.0, SVG Export Plug-In . SVG Version: 6.00 Build 0)  -->
<!DOCTYPE svg PUBLIC "-//W3C//DTD SVG 1.1//EN" "http://www.w3.org/Graphics/SVG/1.1/DTD/svg11.dtd">
<svg version="1.1" id="Calque_1" xmlns="http://www.w3.org/2000/svg" xmlns:xlink="http://www.w3.org/1999/xlink" x="0px" y="0px"
	 viewBox="0 0 430 90" enable-background="new 0 0 430 90" xml:space="preserve">
<g>
	<path fill="#BAD606" d="M4.5,22.2h12.2v6.4h0.2c3.4-4.8,8.3-7.6,14.4-7.6c5.9,0,11.2,2.2,13.7,7.8c2.7-4.1,7.6-7.8,14.2-7.8
		c10,0,17.2,4.6,17.2,16.8v31.5H63.5V42.5c0-6.3-0.5-11.5-7.9-11.5c-7.3,0-8.6,6-8.6,11.9v26.2H34V42.8c0-5.5,0.4-11.7-7.8-11.7
		c-2.5,0-8.7,1.6-8.7,10.8v27.3H4.5V22.2z"/>
	<path fill="#BAD606" d="M104.3,20.9c14.8,0,24.4,9.8,24.4,24.8c0,14.9-9.6,24.7-24.4,24.7C89.5,70.5,80,60.6,80,45.7
		C80,30.7,89.5,20.9,104.3,20.9z M104.3,60.7c8.8,0,11.5-7.5,11.5-15c0-7.5-2.6-15.1-11.5-15.1c-8.7,0-11.4,7.5-11.4,15.1
		C92.9,53.2,95.5,60.7,104.3,60.7z"/>
	<path fill="#BAD606" d="M131.8,22.2h12.3v6.5h0.3c3.3-5.3,8.9-7.8,14.4-7.8c13.7,0,17.2,7.7,17.2,19.4v28.9H163V42.6
		c0-7.7-2.3-11.6-8.3-11.6c-7,0-10,3.9-10,13.5v24.6h-12.9V22.2z"/>
	<path fill="#BAD606" d="M181.9,36.6c0.7-12.1,11.6-15.7,22.1-15.7c9.4,0,20.6,2.1,20.6,13.4v24.5c0,4.3,0.5,8.5,1.6,10.5h-13.1
		c-0.5-1.5-0.8-3-0.9-4.5c-4.1,4.3-10.1,5.8-15.8,5.8c-8.9,0-16-4.5-16-14.1c0-10.6,8-13.2,16-14.3c7.9-1.2,15.3-0.9,15.3-6.2
		c0-5.5-3.8-6.4-8.4-6.4c-4.9,0-8.1,2-8.6,7.1H181.9z M211.7,46.2c-2.2,1.9-6.7,2-10.7,2.7c-4,0.8-7.6,2.2-7.6,6.9
		c0,4.8,3.7,6,7.9,6c10.1,0,10.5-8,10.5-10.8V46.2z"/>
</g>
<g>
	<path fill="#424242" d="M229.8,4.3h12.9v23.6h0.2c3.2-4.8,9-7,14.8-7c9.4,0,19.5,7.5,19.5,24.7c0,17.3-10.1,24.8-19.5,24.8
		c-6.9,0-12.6-2.1-15.5-7.3h-0.2v6h-12.3V4.3z M253.3,30.6c-7.6,0-11,7.2-11,15.1c0,7.8,3.4,15,11,15c7.6,0,11-7.2,11-15
		C264.3,37.8,260.9,30.6,253.3,30.6z"/>
	<path fill="#424242" d="M281.5,36.6c0.7-12.1,11.6-15.7,22.1-15.7c9.4,0,20.6,2.1,20.6,13.4v24.5c0,4.3,0.5,8.5,1.6,10.5h-13.1
		c-0.5-1.5-0.8-3-0.9-4.5c-4.1,4.3-10.1,5.8-15.8,5.8c-8.9,0-16-4.5-16-14.1c0-10.6,8-13.2,16-14.3c7.9-1.2,15.3-0.9,15.3-6.2
		c0-5.5-3.8-6.4-8.4-6.4c-4.9,0-8.1,2-8.6,7.1H281.5z M311.3,46.2c-2.2,1.9-6.7,2-10.7,2.7c-4,0.8-7.6,2.2-7.6,6.9
		c0,4.8,3.7,6,7.9,6c10.1,0,10.5-8,10.5-10.8V46.2z"/>
	<path fill="#424242" d="M329.7,22.2h12.3v6.5h0.3c3.3-5.3,8.9-7.8,14.4-7.8c13.7,0,17.2,7.7,17.2,19.4v28.9h-12.9V42.6
		c0-7.7-2.3-11.6-8.3-11.6c-7,0-10,3.9-10,13.5v24.6h-12.9V22.2z"/>
	<path fill="#424242" d="M425.5,85.7h-12.9V63.3h-0.2c-3,5.1-9.2,7.2-14.8,7.2c-8.6,0-19.9-6.3-19.9-24.5c0-12.9,6.8-25.1,21.1-25.1
		c5.8,0,11.4,2.1,14.3,7.3h0.2v-6h12.3V85.7z M401.7,60.7c8.4,0,11.3-7.1,11.3-14.8c0-7.4-2.9-15.3-11-15.3
		c-8.4,0-11.5,7.5-11.5,15.1C390.5,53.3,393.3,60.7,401.7,60.7z"/>
</g>
</svg>
