<?xml version="1.0" encoding="UTF-8" standalone="no"?>
<svg
   width="130"
   height="100"
   viewBox="0 0 130 100"
   version="1.1"
   id="svg843"
   sodipodi:docname="orangebank.svg"
   inkscape:version="1.1 (c4e8f9e, 2021-05-24)"
   xmlns:inkscape="http://www.inkscape.org/namespaces/inkscape"
   xmlns:sodipodi="http://sodipodi.sourceforge.net/DTD/sodipodi-0.dtd"
   xmlns="http://www.w3.org/2000/svg"
   xmlns:svg="http://www.w3.org/2000/svg">
  <defs
     id="defs847" />
  <sodipodi:namedview
     id="namedview845"
     pagecolor="#ffffff"
     bordercolor="#666666"
     borderopacity="1.0"
     inkscape:pageshadow="2"
     inkscape:pageopacity="0.0"
     inkscape:pagecheckerboard="0"
     showgrid="false"
     inkscape:zoom="1"
     inkscape:cx="40.5"
     inkscape:cy="40"
     inkscape:window-width="2048"
     inkscape:window-height="1046"
     inkscape:window-x="0"
     inkscape:window-y="25"
     inkscape:window-maximized="1"
     inkscape:current-layer="svg843" />
  <path
     id="bkg"
     width="80"
     height="80"
     d="m 24,90 h 80 V 10 H 24 Z"
     fill="#ffffff" />
  <path
     id="wrapper-bank"
     d="m 45.776,91.776 h 60 v -60 h -60 z"
     fill="#000000" />
  <path
     id="wrapper-orange"
     d="M 24,70 H 84 V 10 H 24 Z"
     fill="#ff7900" />
  <g
     id="orange"
     transform="translate(26.957,54.81)">
    <path
       id="o"
       d="M 3.993,8.519 A 4,4 0 0 1 1.209,7.487 4.308,4.308 0 0 1 0,4.263 4.319,4.319 0 0 1 1.209,1.033 4,4 0 0 1 3.993,0 3.987,3.987 0 0 1 6.77,1.034 4.319,4.319 0 0 1 7.98,4.264 4.308,4.308 0 0 1 6.77,7.487 3.99,3.99 0 0 1 3.993,8.519 Z m 0,-6.728 c -1.641,0 -1.886,1.549 -1.886,2.472 0,0.923 0.245,2.46 1.886,2.46 1.544,0 1.868,-1.338 1.868,-2.46 0,-1.122 -0.323,-2.472 -1.868,-2.472 z"
       transform="translate(0.181,0.058)"
       fill="#ffffff" />
    <path
       id="r"
       d="M 0,0.166 H 2.013 V 1.115 A 3.141,3.141 0 0 1 4.238,0 1.791,1.791 0 0 1 4.505,0.013 V 2 h -0.1 C 3.484,2 2.482,2.14 2.15,2.863 V 8.235 H 0 Z"
       transform="translate(9.61,0.106)"
       fill="#ffffff" />
    <path
       id="a"
       d="M 2.395,8.339 A 2.224,2.224 0 0 1 0,5.988 2.336,2.336 0 0 1 1.253,3.888 9.551,9.551 0 0 1 5.069,2.848 V 2.395 c 0,-0.6 -0.447,-0.927 -1.257,-0.927 A 2.4,2.4 0 0 0 1.842,2.395 L 0.407,1.575 A 3.972,3.972 0 0 1 3.846,0 4.091,4.091 0 0 1 6.273,0.64 2.1,2.1 0 0 1 7.127,2.395 c 0,0.238 -0.013,5.819 0,5.853 H 5.247 L 5.054,7.534 A 4.631,4.631 0 0 1 2.395,8.339 Z M 5,4.127 C 2.981,4.378 2.08,4.905 2.08,5.838 A 0.979,0.979 0 0 0 3.04,6.89 2.952,2.952 0 0 0 5,6.04 Z"
       transform="translate(14.7,0.101)"
       fill="#ffffff" />
    <path
       id="n"
       d="M 0,0.4 1.761,0.155 1.95,1.114 A 4.494,4.494 0 0 1 4.717,0 C 6.378,0 7.233,0.875 7.233,2.624 V 8.246 H 5.11 V 3 C 5.11,2.006 4.851,1.563 4.084,1.563 A 3.118,3.118 0 0 0 2.104,2.458 V 8.246 H 0 Z"
       transform="translate(23.497,0.087)"
       fill="#ffffff" />
    <path
       id="g"
       d="m 3.562,11.393 c -1.4,0 -3.015,-0.529 -3.333,-2.014 l 2.1,-0.339 c 0.087,0.395 0.334,0.8 1.519,0.8 1.122,0 1.623,-0.554 1.623,-1.8 V 7.109 L 5.441,7.076 A 2.125,2.125 0 0 1 3.353,8.248 3.107,3.107 0 0 1 0.974,7.254 4.451,4.451 0 0 1 0,4.214 4.8,4.8 0 0 1 0.978,1.1 2.924,2.924 0 0 1 3.24,0 H 3.252 C 5.018,0 5.487,0.894 5.563,1.073 L 5.728,0.15 H 7.52 v 7.645 a 3.9,3.9 0 0 1 -0.531,2.3 c -0.593,0.851 -1.741,1.289 -3.412,1.3 z M 3.721,1.506 c -0.378,0 -1.609,0.171 -1.609,2.376 0,1.3 0.192,2.639 1.615,2.639 H 3.736 C 5.3,6.508 5.485,4.96 5.485,3.8 5.485,2.426 4.776,1.506 3.722,1.506 Z"
       transform="translate(32.18,0.091)"
       fill="#ffffff" />
    <path
       id="e"
       d="M 3.792,8.4 A 3.646,3.646 0 0 1 1.005,7.309 4.5,4.5 0 0 1 0,4.217 C 0,1.577 1.408,0 3.766,0 a 3.553,3.553 0 0 1 2.72,1.071 4.429,4.429 0 0 1 0.983,3.037 c 0,0.069 -0.006,0.14 -0.012,0.209 -0.006,0.069 -0.012,0.14 -0.012,0.21 H 2.086 c 0.02,1.526 0.658,2.3 1.9,2.3 A 2.034,2.034 0 0 0 5.812,5.791 L 7.364,6.656 A 3.882,3.882 0 0 1 3.792,8.4 Z M 3.766,1.437 c -0.961,0 -1.561,0.626 -1.648,1.716 H 5.383 A 1.8,1.8 0 0 0 4.954,1.892 1.58,1.58 0 0 0 3.766,1.437 Z"
       transform="translate(40.975,0.087)"
       fill="#ffffff" />
  </g>
  <path
     id="tm"
     d="m 77.215,54.687 h -0.437 v -2.671 h 0.675 l 0.8,2.026 0.776,-2.026 h 0.682 v 2.669 h -0.445 v -2.227 h -0.014 l -0.875,2.228 h -0.28 l -0.874,-2.228 h -0.009 v 2.228 z m -1.813,0 h -0.445 v -2.315 h -0.834 v -0.356 h 2.108 v 0.356 h -0.829 v 2.313 z"
     fill="#ffffff" />
  <path
     id="k"
     d="M 75.729,84.919 V 73.74 h 1.924 v 6.239 h 0.068 l 2.589,-3.112 h 2.4 l -2.589,3 2.775,5.047 h -2.231 l -1.946,-3.603 -1.066,1.129 v 2.477 z"
     fill="#ffffff" />
  <g
     transform="translate(48.957,73.477)"
     id="g841">
    <path
       id="b"
       d="M 4.491,11.388 A 4.168,4.168 0 0 1 2.907,11.1 2.043,2.043 0 0 1 1.852,10.145 H 1.821 v 0.019 L 1.638,11.169 H 0 V 0 H 1.93 V 4.121 H 1.962 A 2.351,2.351 0 0 1 3.056,3.213 3.719,3.719 0 0 1 4.492,2.925 3.065,3.065 0 0 1 6.75,3.935 3.887,3.887 0 0 1 7.519,5.247 5.515,5.515 0 0 1 7.813,7.147 5.515,5.515 0 0 1 7.519,9.047 3.985,3.985 0 0 1 6.75,10.37 3.02,3.02 0 0 1 5.687,11.139 3.079,3.079 0 0 1 4.491,11.388 Z M 3.874,4.588 A 1.61,1.61 0 0 0 3.028,4.799 1.767,1.767 0 0 0 2.447,5.365 2.552,2.552 0 0 0 2.105,6.188 4.351,4.351 0 0 0 2,7.164 4.27,4.27 0 0 0 2.108,8.127 2.545,2.545 0 0 0 2.45,8.95 1.76,1.76 0 0 0 3.031,9.516 1.618,1.618 0 0 0 3.877,9.726 1.624,1.624 0 0 0 4.715,9.516 1.746,1.746 0 0 0 5.3,8.95 2.568,2.568 0 0 0 5.642,8.127 4.269,4.269 0 0 0 5.751,7.164 4.35,4.35 0 0 0 5.642,6.186 2.574,2.574 0 0 0 5.3,5.363 1.753,1.753 0 0 0 4.71,4.797 1.616,1.616 0 0 0 3.875,4.586 Z"
       transform="translate(0.191,0.272)"
       fill="#ffffff" />
    <path
       id="path837"
       d="M 2.4,8.343 A 2.226,2.226 0 0 1 0,5.99 2.337,2.337 0 0 1 1.253,3.89 9.566,9.566 0 0 1 5.072,2.849 V 2.4 C 5.072,1.8 4.625,1.474 3.813,1.474 A 2.4,2.4 0 0 0 1.842,2.4 L 0.407,1.577 A 3.976,3.976 0 0 1 3.848,0 4.092,4.092 0 0 1 6.276,0.64 2.1,2.1 0 0 1 7.13,2.4 c 0,0.238 -0.012,5.823 0,5.856 H 5.249 L 5.057,7.541 A 4.637,4.637 0 0 1 2.4,8.343 Z M 5.006,4.13 C 2.986,4.381 2.085,4.908 2.085,5.841 A 0.98,0.98 0 0 0 3.042,6.895 2.958,2.958 0 0 0 5.007,6.044 Z"
       transform="translate(9.118,3.206)"
       fill="#ffffff" />
    <path
       id="path839"
       d="M 0,0.4 1.762,0.155 1.951,1.115 A 4.5,4.5 0 0 1 4.719,0 C 6.381,0 7.237,0.876 7.237,2.626 V 8.25 H 5.113 V 3 C 5.113,2.005 4.854,1.562 4.086,1.562 a 3.12,3.12 0 0 0 -1.981,0.9 V 8.25 H 0 Z"
       transform="translate(17.919,3.192)"
       fill="#ffffff" />
  </g>
</svg>
