<?xml version="1.0" encoding="UTF-8" standalone="no"?>
<svg
   xmlns:dc="http://purl.org/dc/elements/1.1/"
   xmlns:cc="http://creativecommons.org/ns#"
   xmlns:rdf="http://www.w3.org/1999/02/22-rdf-syntax-ns#"
   xmlns:svg="http://www.w3.org/2000/svg"
   xmlns="http://www.w3.org/2000/svg"
   xmlns:sodipodi="http://sodipodi.sourceforge.net/DTD/sodipodi-0.dtd"
   xmlns:inkscape="http://www.inkscape.org/namespaces/inkscape"
   inkscape:version="1.0 (4035a4f, 2020-05-01)"
   sodipodi:docname="pop.svg"
   viewBox="0 0 75 80"
   height="80"
   width="75"
   xml:space="preserve"
   id="svg10"
   version="1.1"><metadata
     id="metadata16"><rdf:RDF><cc:Work
         rdf:about=""><dc:format>image/svg+xml</dc:format><dc:type
           rdf:resource="http://purl.org/dc/dcmitype/StillImage" /><dc:title></dc:title></cc:Work></rdf:RDF></metadata><defs
     id="defs14" /><sodipodi:namedview
     inkscape:current-layer="g20"
     inkscape:window-maximized="0"
     inkscape:window-y="25"
     inkscape:window-x="0"
     inkscape:cy="68"
     inkscape:cx="68"
     inkscape:zoom="4.4060009"
     showgrid="false"
     id="namedview12"
     inkscape:window-height="826"
     inkscape:window-width="1510"
     inkscape:pageshadow="2"
     inkscape:pageopacity="0"
     guidetolerance="10"
     gridtolerance="10"
     objecttolerance="10"
     borderopacity="1"
     bordercolor="#666666"
     pagecolor="#ffffff" /><g
     transform="matrix(1.3333333,0,0,-1.3333333,0,136)"
     inkscape:label="ink_ext_XXXXXX"
     inkscape:groupmode="layer"
     id="g18"><g
       transform="scale(0.1)"
       id="g20"><path
         id="path24"
         style="fill:none;stroke:#424242;stroke-width:15;stroke-linecap:butt;stroke-linejoin:round;stroke-miterlimit:10;stroke-dasharray:none;stroke-opacity:1"
         d="m 401.90199,568.30683 c 0,16.563 -31.328,30 -70,30 -38.672,0 -70,-13.437 -70,-30 0,-16.562 31.328,-30 70,-30 38.672,0 70,13.438 70,30 z" /><path
         id="path26"
         style="fill:none;stroke:#424242;stroke-width:15;stroke-linecap:butt;stroke-linejoin:round;stroke-miterlimit:10;stroke-dasharray:none;stroke-opacity:1"
         d="m 261.90199,518.30683 c 0,-16.562 31.328,-30 70,-30 38.672,0 70,13.438 70,30" /><path
         id="path28"
         style="fill:none;stroke:#424242;stroke-width:15;stroke-linecap:butt;stroke-linejoin:round;stroke-miterlimit:10;stroke-dasharray:none;stroke-opacity:1"
         d="m 401.90199,568.30683 v -100 c 0,-16.562 -31.328,-30 -70,-30 -38.672,0 -70,13.438 -70,30 v 100" /><path
         id="path30"
         style="fill:none;stroke:#424242;stroke-width:15;stroke-linecap:butt;stroke-linejoin:round;stroke-miterlimit:10;stroke-dasharray:none;stroke-opacity:1"
         d="m 541.90199,648.30683 c 0,16.563 -31.328,30 -70,30 -38.672,0 -70,-13.437 -70,-30 0,-16.562 31.328,-30 70,-30 38.672,0 70,13.438 70,30 z" /><path
         id="path32"
         style="fill:none;stroke:#424242;stroke-width:15;stroke-linecap:butt;stroke-linejoin:round;stroke-miterlimit:10;stroke-dasharray:none;stroke-opacity:1"
         d="m 422.21499,577.17383 c 12.675,-5.476 30.253,-8.867 49.687,-8.867 38.672,0 70,13.438 70,30" /><path
         id="path34"
         style="fill:none;stroke:#424242;stroke-width:15;stroke-linecap:butt;stroke-linejoin:round;stroke-miterlimit:10;stroke-dasharray:none;stroke-opacity:1"
         d="m 421.18699,527.62283 c 12.746,-5.742 30.754,-9.316 50.715,-9.316 38.672,0 70,13.438 70,30" /><path
         id="path36"
         style="fill:none;stroke:#424242;stroke-width:15;stroke-linecap:butt;stroke-linejoin:round;stroke-miterlimit:10;stroke-dasharray:none;stroke-opacity:1"
         d="m 401.90199,608.30683 v 40" /><path
         id="path38"
         style="fill:none;stroke:#424242;stroke-width:15;stroke-linecap:butt;stroke-linejoin:round;stroke-miterlimit:10;stroke-dasharray:none;stroke-opacity:1"
         d="m 541.90199,648.30683 v -150 c 0,-16.562 -31.328,-30 -70,-30 -19.336,0 -36.836,3.359 -49.504,8.789" /><path
         id="path40"
         style="fill:none;stroke:#424242;stroke-width:15;stroke-linecap:butt;stroke-linejoin:round;stroke-miterlimit:10;stroke-dasharray:none;stroke-opacity:1"
         d="m 331.90199,958.30683 h -150" /><path
         id="path42"
         style="fill:none;stroke:#424242;stroke-width:15;stroke-linecap:butt;stroke-linejoin:round;stroke-miterlimit:10;stroke-dasharray:none;stroke-opacity:1"
         d="m 401.90199,958.30683 h 40 c 10.996,0 20,-9.004 20,-20 v -40 c 0,-10.996 -9.004,-20 -20,-20 H 41.901991 c -10.996,0 -20,9.004 -20,20 v 40 c 0,10.996 9.004,20 20,20 h 69.999999" /><path
         id="path44"
         style="fill:none;stroke:#424242;stroke-width:15;stroke-linecap:butt;stroke-linejoin:round;stroke-miterlimit:10;stroke-dasharray:none;stroke-opacity:1"
         d="m 441.90199,708.30683 v 170" /><path
         id="path46"
         style="fill:none;stroke:#424242;stroke-width:15;stroke-linecap:butt;stroke-linejoin:round;stroke-miterlimit:10;stroke-dasharray:none;stroke-opacity:1"
         d="m 41.901991,846.70483 v -268.398 c 0,-22.09 17.91,-40 40,-40 H 231.90199" /><path
         id="path48"
         style="fill:none;stroke:#424242;stroke-width:15;stroke-linecap:butt;stroke-linejoin:round;stroke-miterlimit:10;stroke-dasharray:none;stroke-opacity:1"
         d="m 371.90199,928.30683 c 0,-11.047 -8.953,-20 -20,-20 -11.047,0 -20,8.953 -20,20 v 50 c 0,11.047 8.953,20 20,20 11.047,0 20,-8.953 20,-20 z" /><path
         id="path50"
         style="fill:none;stroke:#424242;stroke-width:15;stroke-linecap:butt;stroke-linejoin:round;stroke-miterlimit:10;stroke-dasharray:none;stroke-opacity:1"
         d="m 151.90199,928.30683 c 0,-11.047 -8.953,-20 -20,-20 -11.047,0 -20,8.953 -20,20 v 50 c 0,11.047 8.953,20 20,20 11.047,0 20,-8.953 20,-20 z" /><path
         id="path52"
         style="fill:none;stroke:#424242;stroke-width:15;stroke-linecap:butt;stroke-linejoin:round;stroke-miterlimit:10;stroke-dasharray:none;stroke-opacity:1"
         d="M 391.90199,768.30683 H 91.901991 v 60 H 391.90199 Z" /><path
         id="path54"
         style="fill:none;stroke:#424242;stroke-width:15;stroke-linecap:butt;stroke-linejoin:round;stroke-miterlimit:10;stroke-dasharray:none;stroke-opacity:1"
         d="m 391.90199,768.30683 v -60 H 91.901991 v 60" /><path
         id="path56"
         style="fill:none;stroke:#424242;stroke-width:15;stroke-linecap:butt;stroke-linejoin:round;stroke-miterlimit:10;stroke-dasharray:none;stroke-opacity:1"
         d="M 371.90199,648.30683 H 91.901991 v 60" /><path
         id="path58"
         style="fill:none;stroke:#424242;stroke-width:15;stroke-linecap:butt;stroke-linejoin:round;stroke-miterlimit:10;stroke-dasharray:none;stroke-opacity:1"
         d="m 391.90199,688.30683 v 20" /><path
         id="path60"
         style="fill:none;stroke:#424242;stroke-width:15;stroke-linecap:butt;stroke-linejoin:round;stroke-miterlimit:10;stroke-dasharray:none;stroke-opacity:1"
         d="M 241.90199,588.30683 H 91.901991 v 60" /><path
         id="path62"
         style="fill:none;stroke:#424242;stroke-width:15;stroke-linecap:butt;stroke-linejoin:round;stroke-miterlimit:10;stroke-dasharray:none;stroke-opacity:1"
         d="m 151.90199,828.30683 v -240" /><path
         id="path64"
         style="fill:none;stroke:#424242;stroke-width:15;stroke-linecap:butt;stroke-linejoin:round;stroke-miterlimit:10;stroke-dasharray:none;stroke-opacity:1"
         d="m 211.90199,828.30683 v -240" /><path
         id="path66"
         style="fill:none;stroke:#424242;stroke-width:15;stroke-linecap:butt;stroke-linejoin:round;stroke-miterlimit:10;stroke-dasharray:none;stroke-opacity:1"
         d="m 271.90199,618.30683 v 210" /><path
         id="path68"
         style="fill:none;stroke:#424242;stroke-width:15;stroke-linecap:butt;stroke-linejoin:round;stroke-miterlimit:10;stroke-dasharray:none;stroke-opacity:1"
         d="m 331.90199,628.30683 v 200" /></g></g></svg>
