<?xml version="1.0" encoding="utf-8"?>
<!-- Generator: Adobe Illustrator 24.0.1, SVG Export Plug-In . SVG Version: 6.00 Build 0)  -->
<svg version="1.1" id="Layer_1" xmlns="http://www.w3.org/2000/svg" xmlns:xlink="http://www.w3.org/1999/xlink" x="0px" y="0px"
	 viewBox="0 0 35 35" style="enable-background:new 0 0 35 35;" xml:space="preserve">
<style type="text/css">
	.st0{fill-rule:evenodd;clip-rule:evenodd;fill:#15BAE9;}
	.st1{fill-rule:evenodd;clip-rule:evenodd;fill:#04134F;}
	.st2{fill-rule:evenodd;clip-rule:evenodd;fill:#ED2E38;}
	.st3{fill-rule:evenodd;clip-rule:evenodd;fill:#FA9411;}
	.st4{fill-rule:evenodd;clip-rule:evenodd;fill:#FFFFFF;}
	.st5{fill-rule:evenodd;clip-rule:evenodd;fill:#85CD01;}
</style>
<g id="g4">
	<path id="path6" class="st0" d="M10.43,23.67l-3.32,6.47l2.27-0.18l2.35,3.9l3.45-6.72l0.96-1.88
		C14.08,25.18,12.15,24.61,10.43,23.67z"/>
	<path id="path8" class="st1" d="M7.05,24.73c0.15-0.3,0.51-0.41,0.8-0.26c0.3,0.15,0.41,0.51,0.26,0.8l-2.25,4.37l3.47-0.28
		c0.24-0.02,0.45,0.1,0.57,0.31l1.78,2.97l3.74-7.29c0.15-0.3,0.51-0.41,0.8-0.26c0.3,0.15,0.41,0.51,0.26,0.8l-4.22,8.21
		c-0.04,0.11-0.13,0.21-0.24,0.28c-0.28,0.17-0.65,0.08-0.82-0.2l-2.16-3.59l-4.17,0.33l0,0c-0.1,0.01-0.22-0.01-0.31-0.06
		c-0.3-0.15-0.41-0.51-0.26-0.8L7.05,24.73z"/>
	<path id="path10" class="st2" d="M23.81,23.15l0.69-0.29l3.83,7.47l-4.54-0.37l-1.17,1.95l-3.53-6.86
		C20.81,24.73,22.4,24.07,23.81,23.15z"/>
	<path id="path12" class="st1" d="M23.99,23.19c-0.15-0.3-0.03-0.66,0.26-0.8c0.3-0.15,0.66-0.03,0.8,0.26l3.81,7.41
		c0.15,0.3,0.03,0.66-0.26,0.8c-0.1,0.05-0.21,0.07-0.31,0.06l0,0l-4.17-0.33l-2.16,3.59c-0.17,0.28-0.54,0.38-0.82,0.2
		c-0.11-0.07-0.19-0.17-0.24-0.28l-3.13-6.11c-0.15-0.3-0.03-0.66,0.26-0.8c0.3-0.15,0.66-0.03,0.8,0.26l2.67,5.19l1.78-2.97
		c0.11-0.2,0.33-0.32,0.57-0.31l3.47,0.28L23.99,23.19z"/>
	<path id="path14" class="st3" d="M27.72,11.32c-0.95-2.71-2.99-5.21-5.88-6.89c-2.89-1.66-6.07-2.17-8.9-1.64S7.66,4.87,6.23,7.34
		s-1.55,5.38-0.59,8.08s2.99,5.21,5.88,6.89c2.89,1.66,6.07,2.17,8.9,1.64c2.83-0.52,5.28-2.08,6.71-4.55
		C28.56,16.94,28.68,14.03,27.72,11.32z"/>
	<path id="path16" class="st1" d="M24.78,5.28c-1.06-1.06-2.32-1.91-3.72-2.48c-1.35-0.56-2.83-0.87-4.38-0.87s-3.04,0.31-4.38,0.87
		c-1.4,0.58-2.66,1.43-3.72,2.48C7.53,6.34,6.68,7.6,6.1,8.99c-0.56,1.35-0.87,2.83-0.87,4.38s0.31,3.04,0.87,4.38
		c0.58,1.4,1.43,2.66,2.48,3.72s2.32,1.91,3.72,2.48c1.35,0.56,2.83,0.87,4.38,0.87s3.04-0.31,4.38-0.87
		c1.4-0.58,2.66-1.43,3.72-2.48c1.06-1.06,1.91-2.32,2.48-3.72c0.56-1.35,0.87-2.83,0.87-4.38s-0.31-3.04-0.87-4.38
		C26.7,7.6,25.84,6.34,24.78,5.28z M21.53,1.66c1.56,0.65,2.95,1.58,4.12,2.76c1.16,1.16,2.11,2.56,2.75,4.12
		c0.62,1.5,0.96,3.13,0.96,4.85s-0.34,3.35-0.96,4.85c-0.65,1.56-1.58,2.95-2.75,4.12c-1.16,1.16-2.56,2.11-4.12,2.76
		c-1.5,0.62-3.13,0.96-4.85,0.96s-3.35-0.34-4.85-0.96c-1.56-0.65-2.95-1.58-4.12-2.76c-1.16-1.16-2.11-2.56-2.75-4.12
		c-0.62-1.5-0.96-3.13-0.96-4.85s0.34-3.35,0.96-4.85c0.65-1.56,1.58-2.95,2.75-4.12c1.16-1.16,2.56-2.11,4.12-2.76
		c1.5-0.62,3.13-0.96,4.85-0.96C18.4,0.7,20.04,1.04,21.53,1.66z"/>
	<path id="path18" class="st4" d="M23.18,6.88c-1.66-1.66-3.95-2.69-6.49-2.69s-4.83,1.03-6.49,2.69c-1.66,1.66-2.69,3.95-2.69,6.49
		s1.02,4.83,2.69,6.49c1.66,1.66,3.95,2.69,6.49,2.69s4.83-1.02,6.49-2.69c1.66-1.66,2.69-3.95,2.69-6.49S24.84,8.54,23.18,6.88z"/>
	<path id="path20" class="st1" d="M22.74,7.32c-0.8-0.8-1.73-1.43-2.78-1.86c-1-0.42-2.11-0.65-3.27-0.65s-2.27,0.23-3.28,0.65
		c-1.04,0.43-1.99,1.07-2.78,1.86c-0.8,0.8-1.43,1.73-1.86,2.78c-0.42,1.01-0.65,2.12-0.65,3.28s0.23,2.27,0.65,3.28
		c0.43,1.04,1.07,1.99,1.86,2.78c0.8,0.8,1.73,1.43,2.78,1.86c1.01,0.42,2.12,0.65,3.28,0.65s2.27-0.23,3.28-0.65
		c1.04-0.43,1.99-1.07,2.78-1.86c0.8-0.8,1.43-1.73,1.86-2.78c0.42-1.01,0.65-2.12,0.65-3.28s-0.23-2.27-0.65-3.28
		C24.18,9.05,23.54,8.11,22.74,7.32z M20.43,4.33c1.2,0.5,2.28,1.22,3.18,2.13c0.9,0.9,1.63,1.98,2.13,3.18
		c0.48,1.15,0.74,2.42,0.74,3.74s-0.26,2.59-0.74,3.74c-0.5,1.2-1.22,2.28-2.13,3.18c-0.9,0.9-1.98,1.63-3.18,2.13
		c-1.15,0.48-2.42,0.74-3.74,0.74s-2.59-0.26-3.74-0.74c-1.2-0.5-2.28-1.22-3.18-2.13c-0.9-0.9-1.63-1.98-2.13-3.18
		c-0.48-1.15-0.74-2.42-0.74-3.74s0.26-2.59,0.74-3.74c0.5-1.2,1.22-2.28,2.13-3.18c0.9-0.9,1.98-1.63,3.18-2.13
		c1.15-0.48,2.42-0.74,3.74-0.74S19.28,3.84,20.43,4.33z"/>
	<path id="path22" class="st1" d="M15.03,19.15c-0.94,0-1.75-0.16-2.42-0.46c-0.67-0.31-1.24-0.73-1.71-1.26l1.69-1.69
		c0.35,0.35,0.72,0.62,1.08,0.82c0.38,0.19,0.79,0.29,1.22,0.29c0.38,0,0.69-0.09,0.92-0.27c0.22-0.18,0.33-0.42,0.33-0.72v-0.03
		c0-0.31-0.14-0.56-0.41-0.73c-0.27-0.17-0.66-0.26-1.17-0.26h-1.14l-0.38-1.4l2.23-2.01h-3.72V9.24h7.02v1.92l-2.32,1.99
		c0.34,0.07,0.66,0.18,0.97,0.32c0.31,0.14,0.58,0.31,0.8,0.54s0.41,0.49,0.54,0.79c0.13,0.31,0.19,0.66,0.19,1.08v0.03
		c0,0.49-0.1,0.94-0.29,1.33c-0.19,0.39-0.45,0.73-0.79,1.02c-0.33,0.28-0.73,0.5-1.19,0.66C16.06,19.08,15.56,19.15,15.03,19.15z"
		/>
	<path id="path24" class="st1" d="M19.56,9.73h0.7v0.4c0.05-0.13,0.13-0.24,0.23-0.32c0.1-0.08,0.23-0.11,0.39-0.11v0.73h-0.06
		c-0.18,0-0.32,0.05-0.42,0.16c-0.1,0.1-0.15,0.28-0.15,0.51v0.61h-0.7L19.56,9.73L19.56,9.73z M22.15,11.18
		c0.05,0,0.1-0.01,0.16-0.03c0.05-0.03,0.09-0.05,0.13-0.1c0.03-0.04,0.06-0.09,0.09-0.14c0.02-0.05,0.03-0.11,0.03-0.18v-0.01
		c0-0.07-0.01-0.12-0.03-0.18c-0.02-0.05-0.05-0.1-0.09-0.14c-0.03-0.04-0.08-0.07-0.13-0.1c-0.05-0.03-0.1-0.03-0.16-0.03
		s-0.1,0.01-0.16,0.03s-0.09,0.05-0.13,0.1c-0.03,0.03-0.06,0.09-0.09,0.14c-0.02,0.05-0.03,0.11-0.03,0.18v0.01
		c0,0.07,0.01,0.12,0.03,0.18c0.03,0.05,0.05,0.1,0.09,0.14c0.03,0.04,0.08,0.07,0.13,0.1C22.03,11.17,22.09,11.18,22.15,11.18z
		 M21.94,11.76c-0.11,0-0.23-0.03-0.33-0.07c-0.1-0.04-0.2-0.11-0.28-0.2c-0.08-0.09-0.14-0.19-0.19-0.32
		c-0.04-0.13-0.07-0.27-0.07-0.43v-0.01c0-0.16,0.03-0.31,0.07-0.44c0.04-0.13,0.11-0.24,0.19-0.32c0.08-0.09,0.17-0.16,0.28-0.2
		c0.1-0.04,0.22-0.07,0.33-0.07c0.15,0,0.27,0.03,0.37,0.09c0.1,0.06,0.17,0.12,0.24,0.2V9.05h0.7v2.68h-0.7v-0.26
		c-0.07,0.09-0.15,0.16-0.24,0.22C22.21,11.74,22.09,11.76,21.94,11.76z"/>
	<path id="path26" class="st5" d="M33.13,14.14l0.46,1.15l1.23,0.08c0.08,0.01,0.14,0.05,0.17,0.13c0.03,0.07,0,0.15-0.06,0.2
		l-0.95,0.8l0.31,1.2c0.02,0.08-0.01,0.15-0.07,0.2c-0.06,0.04-0.14,0.05-0.21,0.01l-1.05-0.66l-1.04,0.66
		c-0.07,0.04-0.15,0.04-0.21-0.01c-0.06-0.04-0.09-0.12-0.07-0.19l0.31-1.2l-0.95-0.79c-0.06-0.05-0.08-0.12-0.06-0.2
		c0.03-0.08,0.09-0.12,0.17-0.13l1.23-0.09l0.45-1.15c0.03-0.07,0.1-0.11,0.17-0.11C33.03,14.02,33.1,14.06,33.13,14.14z"/>
	<path id="path28" class="st3" d="M1.75,1L3,2.07L4.5,1.4c0.1-0.04,0.2-0.03,0.27,0.04c0.08,0.07,0.1,0.17,0.05,0.27L4.2,3.23
		l1.1,1.22c0.07,0.08,0.08,0.18,0.03,0.28C5.3,4.82,5.2,4.87,5.1,4.86L3.46,4.74L2.65,6.16C2.59,6.25,2.5,6.29,2.4,6.28
		C2.3,6.27,2.22,6.2,2.19,6.09L1.81,4.5L0.2,4.16C0.1,4.14,0.02,4.06,0,3.96c-0.02-0.1,0.03-0.2,0.11-0.25l1.4-0.86L1.34,1.22
		c-0.01-0.1,0.04-0.2,0.13-0.24C1.57,0.92,1.67,0.93,1.75,1z"/>
</g>
</svg>
