<?xml version="1.0" encoding="utf-8"?>
<!-- Generator: Adobe Illustrator 24.0.1, SVG Export Plug-In . SVG Version: 6.00 Build 0)  -->
<svg version="1.1" id="Layer_1" xmlns="http://www.w3.org/2000/svg" xmlns:xlink="http://www.w3.org/1999/xlink" x="0px" y="0px"
	 viewBox="0 0 40 40" style="enable-background:new 0 0 40 40;" xml:space="preserve">
<style type="text/css">
	.st0{fill-rule:evenodd;clip-rule:evenodd;fill:#15BAE9;}
	.st1{fill-rule:evenodd;clip-rule:evenodd;fill:#04134F;}
	.st2{fill-rule:evenodd;clip-rule:evenodd;fill:#ED2E38;}
	.st3{fill-rule:evenodd;clip-rule:evenodd;fill:#FA9411;}
	.st4{fill-rule:evenodd;clip-rule:evenodd;fill:#FFFFFF;}
	.st5{fill-rule:evenodd;clip-rule:evenodd;fill:#85CD01;}
</style>
<g id="g4">
	<path id="path6" class="st0" d="M23.72,28.36l-3.75,1.14l-3.13-0.3l-3.36,6.54l2.24-0.18l2.32,3.85l3.41-6.64L23.72,28.36z"/>
	<path id="path8" class="st1" d="M13.42,30.39c0.15-0.29,0.5-0.4,0.79-0.26c0.29,0.15,0.4,0.5,0.26,0.79l-2.22,4.32l3.43-0.27
		c0.24-0.02,0.45,0.11,0.56,0.3l1.76,2.93l3.7-7.2c0.15-0.29,0.5-0.4,0.79-0.26c0.29,0.15,0.4,0.5,0.26,0.79l-4.16,8.11
		c-0.05,0.11-0.13,0.21-0.24,0.28c-0.28,0.17-0.64,0.08-0.81-0.2l-2.13-3.54l-4.12,0.33v0c-0.1,0.01-0.21-0.01-0.31-0.06
		c-0.29-0.15-0.4-0.5-0.26-0.79L13.42,30.39z"/>
	<path id="path10" class="st2" d="M24.67,29.43l3.71,0.06l2.28-0.95l3.79,7.38l-4.49-0.36l-1.16,1.93L24.67,29.43z"/>
	<path id="path12" class="st1" d="M30.16,28.86c-0.15-0.29-0.03-0.64,0.26-0.79s0.64-0.03,0.79,0.26l3.76,7.32
		c0.15,0.29,0.03,0.64-0.26,0.79c-0.1,0.05-0.21,0.07-0.31,0.06v0l-4.12-0.33l-2.13,3.54c-0.17,0.28-0.53,0.37-0.81,0.2
		c-0.11-0.07-0.19-0.17-0.24-0.28L24,33.61c-0.15-0.29-0.03-0.64,0.26-0.79c0.29-0.15,0.64-0.03,0.79,0.26l2.63,5.13l1.77-2.93
		c0.11-0.2,0.32-0.32,0.56-0.3l3.43,0.27L30.16,28.86z"/>
	<path id="path14" class="st3" d="M31.51,18.1c3.83-5.52-3.05-12.39-8.56-8.56c-5.52-3.83-12.39,3.05-8.57,8.57
		c-3.83,5.52,3.05,12.39,8.57,8.56C28.46,30.49,35.33,23.61,31.51,18.1z"/>
	<path id="path16" class="st1" d="M32.62,17.75c1.28-1.84,1.46-3.82,0.92-5.56c-0.34-1.1-0.96-2.1-1.78-2.92
		c-0.82-0.82-1.82-1.44-2.92-1.78c-1.73-0.54-3.71-0.35-5.56,0.92l-0.34,0.24L22.6,8.42c-1.84-1.28-3.82-1.46-5.56-0.92
		c-1.1,0.34-2.1,0.96-2.92,1.78c-0.82,0.82-1.44,1.82-1.78,2.92c-0.54,1.73-0.35,3.71,0.92,5.56l0.24,0.34l-0.24,0.34
		c-1.28,1.84-1.46,3.82-0.92,5.56c0.34,1.1,0.96,2.1,1.78,2.92c0.82,0.82,1.82,1.44,2.92,1.78c1.73,0.54,3.71,0.35,5.56-0.92
		l0.34-0.24l0.34,0.24c1.84,1.28,3.82,1.46,5.56,0.92c1.1-0.34,2.1-0.96,2.92-1.78c0.82-0.82,1.44-1.82,1.78-2.92
		c0.54-1.73,0.35-3.71-0.92-5.56l-0.24-0.34L32.62,17.75z M34.7,11.84c0.6,1.96,0.45,4.17-0.86,6.25c1.31,2.08,1.46,4.29,0.86,6.25
		c-0.4,1.29-1.13,2.47-2.08,3.42c-0.95,0.95-2.13,1.68-3.42,2.08c-1.96,0.6-4.17,0.45-6.25-0.86c-2.08,1.31-4.29,1.46-6.25,0.86
		c-1.29-0.4-2.47-1.13-3.42-2.08c-0.95-0.95-1.68-2.13-2.08-3.42c-0.6-1.96-0.45-4.17,0.86-6.25c-1.31-2.08-1.46-4.29-0.86-6.25
		c0.4-1.29,1.13-2.47,2.08-3.42c0.95-0.95,2.13-1.68,3.42-2.08c1.96-0.6,4.17-0.45,6.25,0.86c2.08-1.31,4.29-1.46,6.25-0.86
		c1.29,0.4,2.47,1.13,3.42,2.08C33.57,9.37,34.3,10.55,34.7,11.84z"/>
	<path id="path18" class="st4" d="M28.43,12.61c-1.4-1.4-3.35-2.27-5.49-2.27c-2.14,0-4.09,0.87-5.49,2.27
		c-1.4,1.4-2.27,3.35-2.27,5.49c0,2.14,0.87,4.09,2.27,5.49s3.35,2.27,5.49,2.27s4.08-0.87,5.49-2.27c1.4-1.4,2.27-3.35,2.27-5.49
		C30.71,15.95,29.84,14.01,28.43,12.61z"/>
	<path id="path20" class="st1" d="M28,13.03c-0.66-0.66-1.45-1.2-2.32-1.56c-0.84-0.35-1.77-0.54-2.74-0.54
		c-0.97,0-1.9,0.19-2.74,0.54c-0.87,0.36-1.66,0.89-2.32,1.56c-0.66,0.66-1.19,1.45-1.56,2.32c-0.35,0.84-0.54,1.77-0.54,2.74
		c0,0.97,0.19,1.9,0.54,2.74c0.36,0.87,0.89,1.66,1.56,2.32c0.66,0.66,1.45,1.19,2.32,1.56c0.84,0.35,1.77,0.54,2.74,0.54
		c0.97,0,1.9-0.19,2.74-0.54c0.87-0.36,1.66-0.89,2.32-1.56c0.66-0.66,1.19-1.45,1.56-2.32c0.35-0.84,0.54-1.77,0.54-2.74
		c0-0.97-0.19-1.9-0.54-2.74C29.2,14.49,28.67,13.7,28,13.03z M26.14,10.36c1.03,0.43,1.95,1.05,2.72,1.82
		c0.77,0.77,1.39,1.69,1.82,2.72c0.41,0.99,0.63,2.07,0.63,3.2c0,1.13-0.23,2.21-0.64,3.2c-0.43,1.03-1.05,1.95-1.82,2.72
		c-0.77,0.77-1.69,1.39-2.72,1.82c-0.99,0.41-2.07,0.64-3.2,0.64c-1.13,0-2.21-0.23-3.2-0.64c-1.03-0.43-1.95-1.05-2.72-1.82
		c-0.77-0.77-1.39-1.69-1.82-2.72c-0.41-0.99-0.63-2.07-0.63-3.2c0-1.13,0.23-2.21,0.63-3.2c0.43-1.03,1.05-1.95,1.82-2.72
		c0.77-0.77,1.69-1.39,2.72-1.82c0.99-0.41,2.07-0.64,3.2-0.64C24.07,9.73,25.15,9.95,26.14,10.36z"/>
	<path id="path22" class="st5" d="M7.77,16.07l0.45,1.13l1.22,0.07c0.08,0,0.14,0.05,0.16,0.13c0.02,0.07,0,0.15-0.06,0.2
		l-0.94,0.78l0.31,1.18c0.02,0.07-0.01,0.15-0.07,0.19c-0.06,0.05-0.14,0.05-0.21,0.01l-1.03-0.65l-1.03,0.66
		c-0.06,0.04-0.14,0.04-0.21-0.01c-0.06-0.05-0.09-0.12-0.07-0.19l0.3-1.18l-0.94-0.78c-0.06-0.05-0.08-0.12-0.06-0.2
		c0.02-0.07,0.09-0.12,0.16-0.13l1.22-0.08l0.45-1.14C7.46,16,7.52,15.96,7.6,15.96C7.67,15.96,7.74,16,7.77,16.07z"/>
	<path id="path24" class="st3" d="M31.61,0.24l0.27,1.82l1.76,0.54c0.11,0.03,0.19,0.13,0.19,0.24c0.01,0.12-0.05,0.22-0.15,0.27
		l-1.65,0.81l0.03,1.84c0,0.12-0.06,0.22-0.17,0.26c-0.11,0.04-0.22,0.02-0.3-0.06L30.3,4.64l-1.74,0.6
		c-0.11,0.04-0.22,0.01-0.3-0.08c-0.07-0.09-0.09-0.21-0.03-0.31l0.85-1.63l-1.11-1.47c-0.07-0.09-0.08-0.21-0.02-0.31
		c0.06-0.1,0.17-0.15,0.28-0.13l1.81,0.31l1.06-1.51c0.07-0.09,0.18-0.14,0.29-0.11C31.51,0.03,31.59,0.12,31.61,0.24z"/>
	<path id="path26" class="st1" d="M18.09,20.46l3.34-2.55c0.42-0.32,0.71-0.6,0.89-0.84c0.17-0.24,0.26-0.49,0.26-0.76
		c0-0.28-0.09-0.5-0.27-0.66c-0.18-0.16-0.42-0.24-0.72-0.24c-0.3,0-0.58,0.09-0.85,0.27c-0.27,0.18-0.58,0.47-0.92,0.87l-1.67-1.39
		c0.24-0.31,0.48-0.58,0.73-0.82c0.25-0.24,0.51-0.44,0.8-0.6c0.28-0.16,0.6-0.28,0.94-0.37c0.34-0.08,0.73-0.13,1.17-0.13
		c0.48,0,0.93,0.07,1.33,0.21c0.4,0.14,0.75,0.33,1.04,0.58c0.29,0.25,0.51,0.55,0.68,0.9c0.16,0.35,0.24,0.74,0.24,1.15v0.03
		c0,0.36-0.04,0.68-0.13,0.96c-0.09,0.28-0.22,0.54-0.4,0.78c-0.18,0.24-0.4,0.47-0.65,0.69C23.62,18.77,23.33,19,23,19.23
		l-1.53,1.07h3.68v2.01h-7.06C18.09,22.32,18.09,20.46,18.09,20.46z"/>
	<path id="path28" class="st1" d="M25.54,15.21h0.54v0.22c0.02-0.03,0.05-0.06,0.08-0.09c0.03-0.03,0.06-0.06,0.1-0.08
		c0.04-0.02,0.08-0.04,0.12-0.06c0.04-0.01,0.09-0.02,0.15-0.02c0.17,0,0.3,0.05,0.39,0.15c0.09,0.1,0.14,0.24,0.14,0.42v1.01h-0.54
		v-0.84c0-0.09-0.02-0.15-0.06-0.19c-0.04-0.04-0.09-0.07-0.15-0.07c-0.07,0-0.12,0.02-0.16,0.07c-0.04,0.04-0.06,0.11-0.06,0.19
		v0.84h-0.54V15.21z M28.13,16.34c0.04,0,0.08-0.01,0.12-0.03c0.04-0.02,0.07-0.04,0.1-0.07c0.03-0.03,0.05-0.07,0.07-0.11
		c0.02-0.04,0.02-0.09,0.02-0.14v-0.01c0-0.05-0.01-0.1-0.02-0.14c-0.02-0.04-0.04-0.08-0.07-0.11c-0.03-0.03-0.06-0.06-0.1-0.07
		c-0.04-0.02-0.08-0.03-0.12-0.03c-0.04,0-0.08,0.01-0.12,0.03c-0.04,0.02-0.07,0.04-0.1,0.07c-0.03,0.03-0.05,0.07-0.07,0.11
		c-0.02,0.04-0.03,0.09-0.03,0.14v0.01c0,0.05,0.01,0.1,0.03,0.14c0.02,0.04,0.04,0.08,0.07,0.11c0.03,0.03,0.06,0.06,0.1,0.07
		C28.05,16.33,28.09,16.34,28.13,16.34z M27.97,16.79c-0.09,0-0.18-0.02-0.26-0.06c-0.08-0.04-0.16-0.09-0.22-0.16
		c-0.06-0.07-0.11-0.15-0.15-0.25s-0.06-0.21-0.06-0.33v-0.01c0-0.13,0.02-0.24,0.05-0.34c0.04-0.1,0.08-0.18,0.15-0.25
		c0.06-0.07,0.13-0.12,0.22-0.16c0.08-0.04,0.17-0.06,0.26-0.06c0.12,0,0.21,0.02,0.28,0.07c0.07,0.04,0.14,0.1,0.19,0.16v-0.73
		h0.54v2.08h-0.54l0-0.21c-0.05,0.06-0.12,0.12-0.19,0.17C28.18,16.77,28.09,16.79,27.97,16.79z"/>
</g>
</svg>
