<?xml version="1.0" encoding="UTF-8"?>
<svg xmlns="http://www.w3.org/2000/svg" xmlns:xlink="http://www.w3.org/1999/xlink" width="40pt" height="40pt" viewBox="0 0 40 40" version="1.1">
<g id="surface1">
<path style=" stroke:none;fill-rule:evenodd;fill:rgb(8.235294%,72.941176%,91.372549%);fill-opacity:1;" d="M 22.472656 27.222656 L 18.871094 28.316406 L 15.867188 28.03125 L 12.644531 34.304688 L 14.796875 34.132812 L 17.027344 37.832031 L 20.300781 31.457031 Z M 22.472656 27.222656 "/>
<path style=" stroke:none;fill-rule:evenodd;fill:rgb(1.568627%,7.45098%,30.980392%);fill-opacity:1;" d="M 12.582031 29.171875 C 12.722656 28.894531 13.0625 28.78125 13.34375 28.925781 C 13.621094 29.066406 13.730469 29.40625 13.589844 29.6875 L 11.460938 33.832031 L 14.753906 33.566406 C 14.980469 33.550781 15.1875 33.667969 15.292969 33.855469 L 16.988281 36.671875 L 20.539062 29.753906 C 20.679688 29.476562 21.019531 29.367188 21.300781 29.507812 C 21.578125 29.652344 21.6875 29.992188 21.546875 30.269531 L 17.550781 38.050781 C 17.503906 38.160156 17.425781 38.253906 17.320312 38.320312 C 17.050781 38.480469 16.703125 38.394531 16.542969 38.125 L 14.492188 34.726562 L 10.535156 35.042969 C 10.4375 35.050781 10.332031 35.03125 10.234375 34.980469 C 9.957031 34.839844 9.847656 34.5 9.988281 34.222656 Z M 12.582031 29.171875 "/>
<path style=" stroke:none;fill-rule:evenodd;fill:rgb(92.941176%,18.039216%,21.960784%);fill-opacity:1;" d="M 23.382812 28.253906 L 26.941406 28.3125 L 29.132812 27.394531 L 32.769531 34.476562 L 28.460938 34.132812 L 27.347656 35.980469 Z M 23.382812 28.253906 "/>
<path style=" stroke:none;fill-rule:evenodd;fill:rgb(1.568627%,7.45098%,30.980392%);fill-opacity:1;" d="M 28.65625 27.710938 C 28.515625 27.429688 28.625 27.089844 28.902344 26.949219 C 29.183594 26.808594 29.523438 26.917969 29.664062 27.195312 L 33.273438 34.222656 C 33.414062 34.5 33.304688 34.839844 33.023438 34.980469 C 32.929688 35.03125 32.824219 35.050781 32.722656 35.042969 L 28.765625 34.726562 L 26.71875 38.125 C 26.558594 38.394531 26.210938 38.480469 25.941406 38.320312 C 25.832031 38.253906 25.753906 38.160156 25.710938 38.050781 L 22.738281 32.261719 C 22.597656 31.984375 22.707031 31.644531 22.984375 31.503906 C 23.261719 31.359375 23.601562 31.46875 23.746094 31.746094 L 26.273438 36.671875 L 27.96875 33.855469 C 28.070312 33.667969 28.277344 33.550781 28.507812 33.566406 L 31.800781 33.832031 Z M 28.65625 27.710938 "/>
<path style=" stroke:none;fill-rule:evenodd;fill:rgb(98.039216%,58.039216%,6.666667%);fill-opacity:1;" d="M 29.949219 17.371094 C 33.621094 12.078125 27.019531 5.476562 21.726562 9.148438 C 16.429688 5.476562 9.828125 12.078125 13.503906 17.371094 C 9.828125 22.667969 16.429688 29.269531 21.726562 25.59375 C 27.019531 29.269531 33.621094 22.667969 29.949219 17.371094 Z M 29.949219 17.371094 "/>
<path style=" stroke:none;fill-rule:evenodd;fill:rgb(1.568627%,7.45098%,30.980392%);fill-opacity:1;" d="M 31.011719 17.042969 C 32.242188 15.273438 32.414062 13.375 31.902344 11.710938 C 31.574219 10.65625 30.976562 9.691406 30.191406 8.90625 C 29.40625 8.121094 28.441406 7.523438 27.390625 7.195312 C 25.722656 6.683594 23.824219 6.859375 22.054688 8.085938 L 21.726562 8.3125 L 21.394531 8.085938 C 19.625 6.859375 17.726562 6.683594 16.0625 7.195312 C 15.007812 7.523438 14.042969 8.121094 13.261719 8.90625 C 12.476562 9.691406 11.875 10.65625 11.550781 11.710938 C 11.035156 13.375 11.210938 15.273438 12.4375 17.042969 L 12.664062 17.371094 L 12.4375 17.703125 C 11.210938 19.472656 11.035156 21.371094 11.550781 23.035156 C 11.875 24.089844 12.476562 25.054688 13.261719 25.835938 C 14.042969 26.621094 15.007812 27.222656 16.0625 27.546875 C 17.726562 28.0625 19.625 27.886719 21.394531 26.660156 L 21.726562 26.433594 L 22.054688 26.660156 C 23.824219 27.886719 25.722656 28.0625 27.390625 27.546875 C 28.441406 27.222656 29.40625 26.621094 30.191406 25.835938 C 30.976562 25.050781 31.574219 24.085938 31.902344 23.035156 C 32.414062 21.371094 32.238281 19.472656 31.011719 17.703125 L 30.785156 17.371094 Z M 33.007812 11.367188 C 33.589844 13.25 33.4375 15.375 32.183594 17.371094 C 33.4375 19.371094 33.589844 21.496094 33.007812 23.375 C 32.625 24.617188 31.925781 25.746094 31.011719 26.660156 C 30.097656 27.570312 28.96875 28.273438 27.730469 28.65625 C 25.847656 29.234375 23.722656 29.082031 21.726562 27.828125 C 19.726562 29.082031 17.601562 29.234375 15.722656 28.65625 C 14.480469 28.273438 13.351562 27.570312 12.4375 26.660156 C 11.527344 25.746094 10.824219 24.617188 10.441406 23.375 C 9.863281 21.496094 10.015625 19.371094 11.269531 17.371094 C 10.015625 15.375 9.863281 13.25 10.441406 11.371094 C 10.824219 10.128906 11.527344 9 12.4375 8.085938 C 13.351562 7.171875 14.480469 6.472656 15.722656 6.089844 C 17.601562 5.507812 19.726562 5.660156 21.726562 6.914062 C 23.722656 5.660156 25.847656 5.507812 27.730469 6.089844 C 28.96875 6.472656 30.097656 7.175781 31.011719 8.085938 C 31.925781 9 32.625 10.128906 33.007812 11.367188 Z M 33.007812 11.367188 "/>
<path style=" stroke:none;fill-rule:evenodd;fill:rgb(100%,100%,100%);fill-opacity:1;" d="M 26.996094 12.101562 C 25.648438 10.753906 23.785156 9.917969 21.726562 9.917969 C 19.667969 9.917969 17.804688 10.753906 16.453125 12.101562 C 15.105469 13.449219 14.273438 15.3125 14.273438 17.371094 C 14.273438 19.429688 15.105469 21.292969 16.453125 22.644531 C 17.804688 23.992188 19.667969 24.828125 21.726562 24.828125 C 23.785156 24.828125 25.648438 23.992188 26.996094 22.644531 C 28.34375 21.292969 29.179688 19.429688 29.179688 17.371094 C 29.179688 15.3125 28.34375 13.449219 26.996094 12.101562 Z M 26.996094 12.101562 "/>
<path style=" stroke:none;fill-rule:evenodd;fill:rgb(1.568627%,7.45098%,30.980392%);fill-opacity:1;" d="M 26.585938 12.511719 C 25.949219 11.875 25.191406 11.363281 24.355469 11.019531 C 23.546875 10.683594 22.660156 10.5 21.726562 10.5 C 20.789062 10.5 19.902344 10.683594 19.09375 11.019531 C 18.257812 11.367188 17.5 11.875 16.863281 12.511719 C 16.230469 13.148438 15.71875 13.90625 15.371094 14.742188 C 15.039062 15.550781 14.851562 16.4375 14.851562 17.371094 C 14.851562 18.308594 15.039062 19.195312 15.371094 20.003906 C 15.71875 20.839844 16.230469 21.597656 16.863281 22.230469 C 17.5 22.867188 18.257812 23.378906 19.09375 23.726562 C 19.902344 24.0625 20.789062 24.246094 21.726562 24.246094 C 22.660156 24.246094 23.546875 24.0625 24.355469 23.726562 C 25.191406 23.378906 25.949219 22.867188 26.585938 22.230469 C 27.222656 21.597656 27.730469 20.839844 28.078125 20.003906 C 28.414062 19.195312 28.597656 18.308594 28.597656 17.371094 C 28.597656 16.4375 28.414062 15.550781 28.078125 14.742188 C 27.730469 13.90625 27.222656 13.148438 26.585938 12.511719 Z M 24.796875 9.949219 C 25.78125 10.355469 26.667969 10.953125 27.40625 11.691406 C 28.144531 12.429688 28.742188 13.316406 29.148438 14.300781 C 29.542969 15.25 29.757812 16.289062 29.757812 17.371094 C 29.757812 18.457031 29.542969 19.496094 29.148438 20.441406 C 28.742188 21.429688 28.144531 22.316406 27.40625 23.054688 C 26.667969 23.792969 25.78125 24.390625 24.796875 24.796875 C 23.847656 25.191406 22.808594 25.40625 21.726562 25.40625 C 20.640625 25.40625 19.601562 25.191406 18.65625 24.796875 C 17.667969 24.386719 16.78125 23.792969 16.042969 23.054688 C 15.304688 22.316406 14.710938 21.429688 14.300781 20.445312 C 13.90625 19.496094 13.691406 18.457031 13.691406 17.371094 C 13.691406 16.289062 13.90625 15.25 14.300781 14.300781 C 14.710938 13.316406 15.304688 12.429688 16.042969 11.691406 C 16.78125 10.953125 17.667969 10.355469 18.65625 9.949219 C 19.601562 9.554688 20.640625 9.339844 21.726562 9.339844 C 22.808594 9.339844 23.847656 9.554688 24.796875 9.949219 Z M 24.796875 9.949219 "/>
<path style=" stroke:none;fill-rule:evenodd;fill:rgb(52.156863%,80.392157%,0.392157%);fill-opacity:1;" d="M 7.160156 15.429688 L 7.59375 16.519531 L 8.765625 16.589844 C 8.839844 16.59375 8.902344 16.640625 8.921875 16.710938 C 8.945312 16.78125 8.925781 16.851562 8.871094 16.902344 L 7.96875 17.652344 L 8.261719 18.789062 C 8.28125 18.859375 8.253906 18.929688 8.195312 18.976562 C 8.136719 19.019531 8.058594 19.019531 7.996094 18.980469 L 7.003906 18.355469 L 6.015625 18.988281 C 5.953125 19.027344 5.875 19.027344 5.816406 18.980469 C 5.757812 18.9375 5.730469 18.867188 5.75 18.796875 L 6.035156 17.660156 L 5.128906 16.914062 C 5.074219 16.863281 5.050781 16.792969 5.074219 16.722656 C 5.097656 16.652344 5.15625 16.605469 5.230469 16.601562 L 6.402344 16.523438 L 6.832031 15.429688 C 6.859375 15.359375 6.921875 15.316406 6.996094 15.316406 C 7.070312 15.316406 7.132812 15.359375 7.160156 15.429688 Z M 7.160156 15.429688 "/>
<path style=" stroke:none;fill-rule:evenodd;fill:rgb(98.039216%,58.039216%,6.666667%);fill-opacity:1;" d="M 30.042969 0.226562 L 30.296875 1.972656 L 31.988281 2.492188 C 32.09375 2.523438 32.164062 2.613281 32.175781 2.722656 C 32.183594 2.835938 32.125 2.933594 32.027344 2.984375 L 30.445312 3.765625 L 30.472656 5.53125 C 30.476562 5.640625 30.414062 5.738281 30.3125 5.78125 C 30.207031 5.824219 30.097656 5.800781 30.019531 5.71875 L 28.785156 4.457031 L 27.117188 5.03125 C 27.011719 5.066406 26.902344 5.039062 26.828125 4.953125 C 26.757812 4.867188 26.742188 4.753906 26.792969 4.65625 L 27.613281 3.09375 L 26.554688 1.683594 C 26.488281 1.59375 26.480469 1.480469 26.539062 1.386719 C 26.597656 1.289062 26.699219 1.242188 26.808594 1.261719 L 28.550781 1.558594 L 29.5625 0.113281 C 29.628906 0.0234375 29.734375 -0.0195312 29.84375 0.0078125 C 29.949219 0.03125 30.027344 0.117188 30.042969 0.226562 Z M 30.042969 0.226562 "/>
<path style=" stroke:none;fill-rule:evenodd;fill:rgb(1.568627%,7.45098%,30.980392%);fill-opacity:1;" d="M 17.066406 19.640625 L 20.273438 17.191406 C 20.671875 16.882812 20.957031 16.613281 21.125 16.382812 C 21.292969 16.15625 21.375 15.910156 21.375 15.648438 C 21.375 15.378906 21.289062 15.167969 21.113281 15.011719 C 20.9375 14.859375 20.707031 14.78125 20.421875 14.78125 C 20.136719 14.78125 19.863281 14.867188 19.605469 15.042969 C 19.347656 15.21875 19.054688 15.5 18.71875 15.882812 L 17.117188 14.546875 C 17.34375 14.253906 17.578125 13.992188 17.8125 13.765625 C 18.050781 13.535156 18.304688 13.34375 18.578125 13.1875 C 18.851562 13.035156 19.152344 12.914062 19.484375 12.832031 C 19.816406 12.753906 20.1875 12.710938 20.605469 12.710938 C 21.070312 12.710938 21.496094 12.777344 21.882812 12.914062 C 22.269531 13.046875 22.605469 13.234375 22.878906 13.46875 C 23.160156 13.707031 23.375 13.996094 23.53125 14.332031 C 23.683594 14.671875 23.761719 15.042969 23.761719 15.441406 L 23.761719 15.464844 C 23.761719 15.808594 23.71875 16.113281 23.632812 16.382812 C 23.546875 16.652344 23.417969 16.902344 23.25 17.136719 C 23.078125 17.371094 22.867188 17.589844 22.625 17.804688 C 22.378906 18.015625 22.097656 18.238281 21.777344 18.464844 L 20.308594 19.492188 L 23.847656 19.492188 L 23.847656 21.425781 L 17.066406 21.425781 Z M 17.066406 19.640625 "/>
<path style=" stroke:none;fill-rule:evenodd;fill:rgb(1.568627%,7.45098%,30.980392%);fill-opacity:1;" d="M 24.214844 14.601562 L 24.738281 14.601562 L 24.738281 14.8125 C 24.761719 14.78125 24.789062 14.75 24.816406 14.722656 C 24.847656 14.691406 24.878906 14.664062 24.914062 14.644531 C 24.949219 14.621094 24.992188 14.605469 25.035156 14.589844 C 25.078125 14.578125 25.125 14.570312 25.175781 14.570312 C 25.335938 14.570312 25.460938 14.617188 25.550781 14.714844 C 25.640625 14.8125 25.683594 14.945312 25.683594 15.113281 L 25.683594 16.085938 L 25.160156 16.085938 L 25.160156 15.28125 C 25.160156 15.199219 25.140625 15.136719 25.105469 15.09375 C 25.066406 15.054688 25.015625 15.03125 24.957031 15.03125 C 24.890625 15.03125 24.839844 15.054688 24.800781 15.09375 C 24.757812 15.136719 24.738281 15.199219 24.738281 15.28125 L 24.738281 16.085938 L 24.214844 16.085938 Z M 26.710938 15.679688 C 26.75 15.679688 26.789062 15.671875 26.828125 15.65625 C 26.863281 15.640625 26.894531 15.617188 26.921875 15.585938 C 26.949219 15.558594 26.96875 15.523438 26.984375 15.480469 C 27 15.4375 27.007812 15.394531 27.007812 15.34375 L 27.007812 15.339844 C 27.007812 15.289062 27 15.246094 26.984375 15.207031 C 26.96875 15.164062 26.949219 15.128906 26.921875 15.101562 C 26.894531 15.070312 26.863281 15.046875 26.828125 15.03125 C 26.789062 15.011719 26.75 15.003906 26.710938 15.003906 C 26.667969 15.003906 26.628906 15.011719 26.59375 15.03125 C 26.554688 15.046875 26.523438 15.070312 26.496094 15.097656 C 26.46875 15.128906 26.449219 15.164062 26.429688 15.203125 C 26.414062 15.246094 26.40625 15.289062 26.40625 15.339844 L 26.40625 15.34375 C 26.40625 15.394531 26.414062 15.4375 26.429688 15.480469 C 26.449219 15.523438 26.46875 15.558594 26.496094 15.585938 C 26.523438 15.617188 26.554688 15.640625 26.59375 15.65625 C 26.628906 15.671875 26.667969 15.679688 26.710938 15.679688 Z M 26.550781 16.117188 C 26.464844 16.117188 26.378906 16.097656 26.300781 16.0625 C 26.222656 16.027344 26.152344 15.976562 26.09375 15.910156 C 26.035156 15.847656 25.988281 15.765625 25.949219 15.671875 C 25.914062 15.574219 25.898438 15.46875 25.898438 15.351562 L 25.898438 15.34375 C 25.898438 15.222656 25.914062 15.117188 25.949219 15.019531 C 25.984375 14.925781 26.03125 14.84375 26.089844 14.777344 C 26.152344 14.710938 26.21875 14.660156 26.300781 14.625 C 26.378906 14.585938 26.460938 14.570312 26.546875 14.570312 C 26.660156 14.570312 26.75 14.589844 26.820312 14.632812 C 26.890625 14.675781 26.953125 14.726562 27 14.785156 L 27 14.085938 L 27.523438 14.085938 L 27.523438 16.085938 L 27 16.085938 L 27.003906 15.886719 C 26.953125 15.949219 26.890625 16.003906 26.824219 16.046875 C 26.753906 16.09375 26.664062 16.117188 26.550781 16.117188 Z M 26.550781 16.117188 "/>
</g>
</svg>
