<?xml version="1.0" encoding="utf-8"?>
<!-- Generator: Adobe Illustrator 24.0.1, SVG Export Plug-In . SVG Version: 6.00 Build 0)  -->
<svg version="1.1" id="Layer_1" xmlns="http://www.w3.org/2000/svg" xmlns:xlink="http://www.w3.org/1999/xlink" x="0px" y="0px"
	 viewBox="0 0 40 40" style="enable-background:new 0 0 40 40;" xml:space="preserve">
<style type="text/css">
	.st0{fill-rule:evenodd;clip-rule:evenodd;fill:#18B9E7;}
	.st1{fill-rule:evenodd;clip-rule:evenodd;fill:#181A4C;}
	.st2{fill-rule:evenodd;clip-rule:evenodd;fill:#ED2C39;}
	.st3{fill-rule:evenodd;clip-rule:evenodd;fill:#F7941D;}
	.st4{fill-rule:evenodd;clip-rule:evenodd;fill:#FFFFFF;}
	.st5{fill-rule:evenodd;clip-rule:evenodd;fill:#86C440;}
</style>
<g>
	<polygon class="st0" points="22.16,30.88 17.39,27.03 13.02,35.54 15.37,35.35 17.79,39.38 22.16,30.88 	"/>
	<path class="st1" d="M12.95,29.94c0.15-0.3,0.53-0.42,0.83-0.27c0.3,0.15,0.42,0.52,0.27,0.83l-2.32,4.52l3.59-0.29
		c0.25-0.02,0.47,0.11,0.59,0.32l1.85,3.06l3.87-7.54c0.16-0.3,0.53-0.42,0.83-0.27c0.3,0.15,0.42,0.53,0.27,0.83l-4.35,8.48
		c-0.05,0.12-0.13,0.22-0.25,0.29c-0.1,0.06-0.2,0.09-0.3,0.09h-0.02h-0.01h-0.02c-0.2-0.01-0.39-0.12-0.5-0.3L15.04,36l-4.31,0.35
		c-0.11,0.01-0.22-0.01-0.33-0.06c-0.3-0.15-0.42-0.53-0.27-0.83L12.95,29.94L12.95,29.94z"/>
	<polygon class="st2" points="24.72,28.95 30.63,27.31 34.95,35.73 30.26,35.35 29.04,37.37 24.72,28.95 	"/>
	<path class="st3" d="M26.66,8.36c2.24,1,3.45-0.16,4.46,0.93c1.01,1.09-0.29,2.17,0.56,4.39c0.85,2.23,2.53,2.16,2.5,3.65
		c-0.03,1.48-1.71,1.42-2.71,3.66c-1,2.24,0.16,3.45-0.92,4.46c-1.09,1.01-2.17-0.29-4.39,0.56c-2.22,0.85-2.16,2.53-3.65,2.5
		c-1.49-0.03-1.42-1.71-3.66-2.71c-2.24-1-3.45,0.16-4.46-0.92c-1.01-1.09,0.29-2.17-0.56-4.39c-0.85-2.23-2.54-2.16-2.51-3.65
		c0.03-1.48,1.71-1.42,2.71-3.66c1-2.24-0.16-3.45,0.93-4.46C16.04,7.7,17.12,9,19.35,8.16c2.22-0.85,2.16-2.54,3.65-2.51
		C24.48,5.68,24.42,7.36,26.66,8.36L26.66,8.36z"/>
	<path class="st1" d="M30.72,7.7c-0.92,0.04-2.03,0.08-3.5-0.58c-1.48-0.66-2.19-1.52-2.76-2.23C24,4.34,23.65,3.92,23.04,3.9
		c-0.61-0.01-0.95,0.39-1.39,0.9c-0.59,0.69-1.3,1.52-2.78,2.08c-1.48,0.57-2.57,0.42-3.46,0.3c-0.67-0.09-1.19-0.16-1.64,0.25
		c-0.45,0.42-0.43,0.97-0.4,1.68c0.04,0.92,0.09,2.03-0.57,3.51c-0.66,1.48-1.53,2.18-2.24,2.76c-0.55,0.45-0.97,0.8-0.99,1.41
		c-0.01,0.61,0.39,0.95,0.9,1.39c0.69,0.59,1.52,1.3,2.08,2.78c0.56,1.48,0.42,2.57,0.3,3.46c-0.09,0.67-0.16,1.19,0.25,1.64
		c0.42,0.46,0.97,0.43,1.68,0.4c0.92-0.04,2.03-0.09,3.5,0.57c1.48,0.66,2.19,1.53,2.76,2.23c0.45,0.54,0.8,0.98,1.41,0.99
		c0.61,0.01,0.95-0.39,1.39-0.9c0.59-0.69,1.3-1.52,2.78-2.08c1.48-0.57,2.56-0.42,3.46-0.3c0.66,0.09,1.19,0.16,1.64-0.25
		c0.45-0.42,0.43-0.97,0.4-1.68c-0.04-0.92-0.08-2.03,0.58-3.5c0.66-1.48,1.52-2.18,2.23-2.76c0.54-0.45,0.97-0.8,0.98-1.41
		c0.02-0.61-0.39-0.95-0.9-1.39c-0.69-0.59-1.52-1.3-2.08-2.78c-0.57-1.48-0.42-2.57-0.3-3.46c0.09-0.67,0.16-1.19-0.25-1.64
		C31.97,7.65,31.43,7.67,30.72,7.7L30.72,7.7z M27.71,6c1.21,0.54,2.17,0.5,2.95,0.47c1.03-0.04,1.82-0.08,2.63,0.79
		c0.81,0.87,0.7,1.65,0.57,2.64c-0.1,0.75-0.22,1.66,0.23,2.86c0.45,1.19,1.15,1.79,1.73,2.28c0.76,0.65,1.35,1.16,1.33,2.35
		c-0.02,1.19-0.64,1.7-1.44,2.35c-0.61,0.5-1.35,1.11-1.89,2.31c-0.54,1.21-0.5,2.17-0.47,2.96c0.04,1.02,0.08,1.82-0.79,2.63
		c-0.87,0.81-1.66,0.7-2.65,0.57c-0.75-0.1-1.66-0.23-2.86,0.23c-1.19,0.46-1.79,1.15-2.29,1.73c-0.65,0.76-1.16,1.36-2.35,1.33
		c-1.19-0.03-1.7-0.65-2.35-1.44c-0.5-0.61-1.11-1.35-2.31-1.89c-1.21-0.54-2.16-0.5-2.95-0.47c-1.03,0.04-1.82,0.07-2.63-0.79
		c-0.81-0.87-0.7-1.66-0.57-2.64c0.1-0.75,0.23-1.66-0.23-2.86c-0.45-1.19-1.15-1.79-1.73-2.28c-0.76-0.65-1.36-1.16-1.33-2.35
		c0.03-1.19,0.64-1.7,1.44-2.35c0.61-0.5,1.35-1.11,1.89-2.31c0.54-1.21,0.5-2.17,0.47-2.95c-0.04-1.02-0.08-1.82,0.79-2.63
		c0.87-0.81,1.65-0.7,2.64-0.57c0.75,0.1,1.66,0.22,2.86-0.23c1.19-0.46,1.79-1.15,2.28-1.73c0.65-0.76,1.16-1.36,2.35-1.33
		c1.19,0.02,1.7,0.64,2.34,1.44C25.9,4.72,26.51,5.46,27.71,6L27.71,6z"/>
	<path class="st4" d="M22.75,8.86c4.54,0,8.23,3.68,8.23,8.23c0,4.54-3.69,8.23-8.23,8.23c-4.54,0-8.23-3.68-8.23-8.23
		C14.52,12.54,18.21,8.86,22.75,8.86L22.75,8.86z"/>
	<path class="st1" d="M28.13,11.7c-1.37-1.37-3.28-2.23-5.38-2.23c-2.1,0-4,0.85-5.38,2.23c-1.38,1.38-2.23,3.28-2.23,5.38
		c0,2.1,0.85,4,2.23,5.38c1.38,1.37,3.28,2.23,5.38,2.23c2.1,0,4.01-0.85,5.38-2.23c1.38-1.38,2.23-3.28,2.23-5.38
		C30.36,14.98,29.51,13.08,28.13,11.7L28.13,11.7z M22.75,8.24c2.44,0,4.66,0.99,6.26,2.59c1.6,1.6,2.59,3.81,2.59,6.25
		c0,2.44-0.99,4.65-2.59,6.25c-1.6,1.6-3.81,2.59-6.26,2.59c-2.44,0-4.65-0.99-6.25-2.59c-1.6-1.6-2.59-3.81-2.59-6.25
		c0-2.44,0.99-4.66,2.59-6.25C18.1,9.23,20.31,8.24,22.75,8.24L22.75,8.24z"/>
	<path class="st1" d="M30.36,28.13c-0.15-0.3-0.04-0.67,0.27-0.83c0.3-0.16,0.67-0.04,0.83,0.26l4.04,7.87
		c0.15,0.3,0.03,0.68-0.27,0.83c-0.11,0.05-0.22,0.07-0.33,0.06l0,0L30.59,36l-2.23,3.71c-0.11,0.18-0.3,0.29-0.5,0.3h-0.02h-0.02
		h-0.01c-0.11,0-0.21-0.03-0.31-0.09c-0.11-0.07-0.2-0.17-0.25-0.29l-3.24-6.31c-0.15-0.31-0.04-0.68,0.27-0.83
		c0.3-0.15,0.67-0.03,0.83,0.27l2.76,5.36l1.85-3.06c0.11-0.21,0.34-0.34,0.59-0.32l3.59,0.29L30.36,28.13L30.36,28.13z"/>
	<path class="st1" d="M23.19,11.66v10.73h-2.96v-6.75c-1.51,1.15-1.7,1.02-3.08,1.25V14.5c1-0.32,1.77-0.71,2.32-1.16
		c0.55-0.46,0.99-1.02,1.3-1.68H23.19L23.19,11.66z"/>
	<path class="st3" d="M5.37,6.44L6.5,8l1.89-0.35c0.12-0.02,0.23,0.03,0.3,0.13C8.76,7.87,8.75,8,8.68,8.1L7.55,9.65l0.92,1.69
		c0.06,0.11,0.05,0.23-0.03,0.32c-0.08,0.09-0.2,0.13-0.31,0.09l-1.83-0.6l-1.32,1.4c-0.08,0.09-0.21,0.11-0.32,0.07
		c-0.11-0.04-0.18-0.15-0.18-0.27l0-1.92L2.74,9.61c-0.1-0.05-0.17-0.15-0.17-0.26l0-0.02c0.01-0.12,0.08-0.22,0.2-0.26l1.83-0.59
		l0.25-1.91c0.02-0.12,0.1-0.21,0.21-0.24C5.19,6.3,5.3,6.34,5.37,6.44L5.37,6.44z"/>
	<path class="st1" d="M27.34,15.54c0.23,0,0.4-0.06,0.54-0.14v-0.55c-0.1,0.05-0.21,0.08-0.34,0.08c-0.15,0-0.22-0.08-0.22-0.23
		v-1.03h0.57v-0.58h-0.57v-0.61h-0.68v0.61h-0.28v0.58h0.28v1.14C26.64,15.37,26.92,15.54,27.34,15.54L27.34,15.54z M25.17,15.54
		c0.52,0,0.92-0.24,0.92-0.78c0-0.45-0.39-0.61-0.73-0.72c-0.26-0.09-0.49-0.15-0.49-0.29c0-0.1,0.09-0.17,0.25-0.17
		c0.17,0,0.41,0.08,0.65,0.22l0.26-0.47c-0.26-0.17-0.59-0.28-0.9-0.28c-0.48,0-0.88,0.28-0.88,0.76c0,0.48,0.38,0.63,0.72,0.73
		c0.26,0.08,0.5,0.13,0.5,0.28c0,0.12-0.09,0.19-0.29,0.19c-0.22,0-0.5-0.1-0.76-0.29l-0.29,0.45
		C24.45,15.43,24.83,15.54,25.17,15.54L25.17,15.54z"/>
	<path class="st5" d="M30.89,0.2l-0.03,1.28l1.14,0.58c0.07,0.04,0.11,0.11,0.11,0.19c-0.01,0.08-0.06,0.14-0.14,0.17l-1.22,0.36
		l-0.2,1.26c-0.01,0.08-0.07,0.14-0.15,0.16c-0.08,0.02-0.15-0.01-0.2-0.08l-0.72-1.05l-1.26,0.2c-0.08,0.01-0.15-0.02-0.2-0.09
		c-0.04-0.07-0.04-0.15,0.02-0.22l0.78-1.01L28.22,0.8c-0.04-0.07-0.03-0.15,0.02-0.21c0.05-0.06,0.13-0.08,0.21-0.05l1.21,0.43
		l0.9-0.9C30.6,0.02,30.65,0,30.7,0c0.02,0,0.05,0.01,0.07,0.02C30.85,0.05,30.89,0.12,30.89,0.2L30.89,0.2z"/>
</g>
</svg>
