<?xml version="1.0" encoding="UTF-8"?>
<svg xmlns="http://www.w3.org/2000/svg" xmlns:xlink="http://www.w3.org/1999/xlink" width="40pt" height="40pt" viewBox="0 0 40 40" version="1.1">
<g id="surface1">
<path style=" stroke:none;fill-rule:evenodd;fill:rgb(8.235294%,72.941176%,91.372549%);fill-opacity:1;" d="M 21.402344 29.640625 L 16.816406 25.949219 L 12.625 34.117188 L 14.875 33.9375 L 17.207031 37.808594 Z M 21.402344 29.640625 "/>
<path style=" stroke:none;fill-rule:evenodd;fill:rgb(1.568627%,7.45098%,30.980392%);fill-opacity:1;" d="M 12.558594 28.746094 C 12.707031 28.453125 13.0625 28.339844 13.351562 28.488281 C 13.644531 28.636719 13.757812 28.992188 13.609375 29.285156 L 11.382812 33.621094 L 14.828125 33.34375 C 15.070312 33.324219 15.285156 33.449219 15.394531 33.648438 L 17.167969 36.589844 L 20.882812 29.355469 C 21.03125 29.066406 21.386719 28.949219 21.675781 29.097656 C 21.96875 29.246094 22.082031 29.605469 21.933594 29.894531 L 17.753906 38.035156 C 17.707031 38.148438 17.625 38.246094 17.515625 38.3125 C 17.234375 38.484375 16.871094 38.394531 16.699219 38.113281 L 14.558594 34.554688 L 10.417969 34.886719 C 10.3125 34.894531 10.203125 34.875 10.101562 34.824219 C 9.8125 34.675781 9.695312 34.320312 9.84375 34.027344 Z M 12.558594 28.746094 "/>
<path style=" stroke:none;fill-rule:evenodd;fill:rgb(92.941176%,18.039216%,21.960784%);fill-opacity:1;" d="M 23.855469 27.789062 L 29.527344 26.214844 L 33.675781 34.296875 L 29.171875 33.9375 L 28.003906 35.871094 Z M 23.855469 27.789062 "/>
<path style=" stroke:none;fill-rule:evenodd;fill:rgb(98.039216%,58.039216%,6.666667%);fill-opacity:1;" d="M 25.714844 8.027344 C 27.867188 8.992188 29.027344 7.875 30 8.917969 C 30.972656 9.960938 29.722656 11 30.539062 13.136719 C 31.351562 15.269531 32.972656 15.214844 32.941406 16.640625 C 32.914062 18.066406 31.300781 18.003906 30.335938 20.15625 C 29.375 22.304688 30.492188 23.46875 29.449219 24.4375 C 28.402344 25.410156 27.367188 24.160156 25.230469 24.976562 C 23.09375 25.789062 23.152344 27.410156 21.726562 27.378906 C 20.300781 27.351562 20.363281 25.738281 18.210938 24.773438 C 16.0625 23.8125 14.898438 24.929688 13.929688 23.886719 C 12.957031 22.84375 14.203125 21.804688 13.390625 19.671875 C 12.578125 17.535156 10.957031 17.589844 10.984375 16.164062 C 11.015625 14.738281 12.628906 14.800781 13.589844 12.652344 C 14.554688 10.5 13.4375 9.335938 14.480469 8.367188 C 15.523438 7.394531 16.5625 8.644531 18.695312 7.828125 C 20.832031 7.015625 20.773438 5.394531 22.199219 5.421875 C 23.625 5.453125 23.566406 7.066406 25.714844 8.027344 Z M 25.714844 8.027344 "/>
<path style=" stroke:none;fill-rule:evenodd;fill:rgb(1.568627%,7.45098%,30.980392%);fill-opacity:1;" d="M 26.730469 5.757812 C 27.890625 6.277344 28.8125 6.242188 29.566406 6.207031 C 30.550781 6.167969 31.316406 6.136719 32.09375 6.96875 C 32.871094 7.804688 32.769531 8.558594 32.640625 9.507812 C 32.542969 10.230469 32.425781 11.101562 32.863281 12.25 C 33.300781 13.394531 33.96875 13.96875 34.523438 14.441406 C 35.25 15.066406 35.824219 15.558594 35.800781 16.699219 C 35.777344 17.84375 35.183594 18.328125 34.421875 18.953125 C 33.835938 19.429688 33.125 20.015625 32.605469 21.171875 C 32.085938 22.332031 32.125 23.25 32.15625 24.007812 C 32.199219 24.988281 32.230469 25.757812 31.398438 26.53125 C 30.5625 27.308594 29.808594 27.207031 28.859375 27.082031 C 28.136719 26.984375 27.265625 26.863281 26.117188 27.300781 C 24.972656 27.738281 24.398438 28.40625 23.925781 28.960938 C 23.300781 29.6875 22.808594 30.265625 21.667969 30.242188 C 20.523438 30.214844 20.039062 29.621094 19.414062 28.859375 C 18.933594 28.273438 18.351562 27.5625 17.195312 27.046875 C 16.035156 26.527344 15.117188 26.5625 14.359375 26.597656 C 13.378906 26.636719 12.609375 26.667969 11.832031 25.835938 C 11.054688 25 11.15625 24.246094 11.285156 23.296875 C 11.382812 22.574219 11.5 21.703125 11.066406 20.554688 C 10.628906 19.410156 9.957031 18.835938 9.40625 18.363281 C 8.675781 17.738281 8.101562 17.246094 8.125 16.105469 C 8.148438 14.960938 8.746094 14.476562 9.503906 13.851562 C 10.089844 13.375 10.804688 12.789062 11.320312 11.632812 C 11.839844 10.472656 11.800781 9.554688 11.769531 8.796875 C 11.730469 7.816406 11.695312 7.046875 12.53125 6.273438 C 13.367188 5.496094 14.117188 5.597656 15.066406 5.722656 C 15.789062 5.824219 16.664062 5.941406 17.808594 5.503906 C 18.957031 5.066406 19.527344 4.398438 20.003906 3.84375 C 20.625 3.117188 21.121094 2.539062 22.261719 2.5625 C 23.402344 2.589844 23.890625 3.183594 24.511719 3.945312 C 24.992188 4.53125 25.574219 5.242188 26.730469 5.757812 Z M 29.613281 7.390625 C 28.734375 7.429688 27.664062 7.472656 26.25 6.839844 C 24.832031 6.203125 24.152344 5.375 23.59375 4.695312 C 23.164062 4.171875 22.828125 3.757812 22.238281 3.746094 C 21.65625 3.734375 21.324219 4.125 20.902344 4.613281 C 20.339844 5.273438 19.65625 6.070312 18.230469 6.613281 C 16.808594 7.15625 15.769531 7.015625 14.910156 6.898438 C 14.269531 6.8125 13.765625 6.742188 13.335938 7.140625 C 12.902344 7.542969 12.925781 8.074219 12.953125 8.753906 C 12.992188 9.632812 13.035156 10.703125 12.402344 12.117188 C 11.765625 13.535156 10.9375 14.214844 10.257812 14.769531 C 9.730469 15.203125 9.320312 15.539062 9.308594 16.128906 C 9.296875 16.710938 9.683594 17.042969 10.175781 17.460938 C 10.835938 18.027344 11.628906 18.707031 12.171875 20.132812 C 12.714844 21.558594 12.574219 22.597656 12.460938 23.457031 C 12.375 24.097656 12.304688 24.601562 12.703125 25.027344 C 13.105469 25.464844 13.636719 25.441406 14.3125 25.414062 C 15.195312 25.375 16.261719 25.332031 17.679688 25.964844 C 19.097656 26.601562 19.773438 27.429688 20.332031 28.109375 C 20.761719 28.632812 21.097656 29.046875 21.691406 29.058594 C 22.273438 29.070312 22.605469 28.679688 23.023438 28.191406 C 23.589844 27.53125 24.269531 26.734375 25.695312 26.191406 C 27.121094 25.648438 28.15625 25.789062 29.019531 25.90625 C 29.65625 25.992188 30.164062 26.0625 30.589844 25.664062 C 31.023438 25.261719 31.003906 24.730469 30.972656 24.050781 C 30.9375 23.171875 30.890625 22.101562 31.527344 20.6875 C 32.160156 19.269531 32.988281 18.589844 33.671875 18.035156 C 34.195312 17.605469 34.605469 17.265625 34.617188 16.675781 C 34.632812 16.09375 34.242188 15.761719 33.753906 15.34375 C 33.09375 14.777344 32.296875 14.097656 31.753906 12.671875 C 31.210938 11.246094 31.351562 10.207031 31.46875 9.347656 C 31.554688 8.707031 31.621094 8.203125 31.226562 7.777344 C 30.820312 7.339844 30.292969 7.363281 29.613281 7.390625 Z M 29.613281 7.390625 "/>
<path style=" stroke:none;fill-rule:evenodd;fill:rgb(100%,100%,100%);fill-opacity:1;" d="M 21.964844 8.503906 C 26.324219 8.503906 29.863281 12.039062 29.863281 16.402344 C 29.863281 20.765625 26.324219 24.300781 21.964844 24.300781 C 17.601562 24.300781 14.066406 20.765625 14.066406 16.402344 C 14.066406 12.039062 17.601562 8.503906 21.964844 8.503906 Z M 21.964844 8.503906 "/>
<path style=" stroke:none;fill-rule:evenodd;fill:rgb(1.568627%,7.45098%,30.980392%);fill-opacity:1;" d="M 21.964844 7.910156 C 24.308594 7.910156 26.433594 8.859375 27.96875 10.398438 C 29.503906 11.933594 30.457031 14.058594 30.457031 16.402344 C 30.457031 18.746094 29.503906 20.871094 27.96875 22.40625 C 26.429688 23.945312 24.308594 24.894531 21.964844 24.894531 C 19.617188 24.894531 17.496094 23.945312 15.960938 22.40625 C 14.421875 20.871094 13.472656 18.746094 13.472656 16.402344 C 13.472656 14.058594 14.421875 11.933594 15.960938 10.398438 C 17.496094 8.859375 19.617188 7.910156 21.964844 7.910156 Z M 27.128906 11.238281 C 25.808594 9.914062 23.980469 9.097656 21.964844 9.097656 C 19.945312 9.097656 18.121094 9.914062 16.796875 11.238281 C 15.476562 12.558594 14.660156 14.386719 14.660156 16.402344 C 14.660156 18.417969 15.476562 20.246094 16.796875 21.566406 C 18.121094 22.890625 19.945312 23.707031 21.964844 23.707031 C 23.980469 23.707031 25.808594 22.890625 27.128906 21.566406 C 28.449219 20.246094 29.269531 18.417969 29.269531 16.402344 C 29.269531 14.386719 28.449219 12.558594 27.128906 11.238281 Z M 27.128906 11.238281 "/>
<path style=" stroke:none;fill-rule:evenodd;fill:rgb(1.568627%,7.45098%,30.980392%);fill-opacity:1;" d="M 29.269531 27.007812 C 29.121094 26.71875 29.234375 26.363281 29.527344 26.214844 C 29.816406 26.0625 30.171875 26.179688 30.320312 26.46875 L 34.203125 34.027344 C 34.351562 34.320312 34.234375 34.675781 33.945312 34.824219 C 33.84375 34.875 33.734375 34.894531 33.628906 34.886719 L 29.488281 34.554688 L 27.347656 38.113281 C 27.179688 38.394531 26.8125 38.484375 26.53125 38.3125 C 26.421875 38.246094 26.339844 38.148438 26.292969 38.035156 L 23.183594 31.980469 C 23.035156 31.6875 23.148438 31.332031 23.441406 31.183594 C 23.730469 31.035156 24.085938 31.152344 24.234375 31.441406 L 26.878906 36.589844 L 28.652344 33.648438 C 28.761719 33.449219 28.980469 33.324219 29.21875 33.34375 L 32.664062 33.621094 Z M 29.269531 27.007812 "/>
<path style=" stroke:none;fill-rule:evenodd;fill:rgb(1.568627%,7.45098%,30.980392%);fill-opacity:1;" d="M 22.386719 11.191406 L 22.386719 21.492188 L 19.542969 21.492188 L 19.542969 15.011719 C 18.089844 16.113281 17.910156 15.988281 16.585938 16.214844 L 16.585938 13.921875 C 17.542969 13.609375 18.289062 13.238281 18.816406 12.804688 C 19.347656 12.367188 19.761719 11.828125 20.0625 11.191406 Z M 22.386719 11.191406 "/>
<path style=" stroke:none;fill-rule:evenodd;fill:rgb(98.039216%,58.039216%,6.666667%);fill-opacity:1;" d="M 5.285156 6.179688 L 6.367188 7.675781 L 8.183594 7.335938 C 8.296875 7.316406 8.40625 7.363281 8.46875 7.460938 C 8.53125 7.558594 8.527344 7.679688 8.460938 7.773438 L 7.371094 9.265625 L 8.257812 10.886719 C 8.3125 10.988281 8.300781 11.109375 8.226562 11.199219 C 8.152344 11.285156 8.035156 11.320312 7.925781 11.285156 L 6.171875 10.710938 L 4.902344 12.054688 C 4.820312 12.136719 4.703125 12.164062 4.597656 12.121094 C 4.488281 12.078125 4.421875 11.980469 4.421875 11.863281 L 4.425781 10.015625 L 2.753906 9.222656 C 2.652344 9.175781 2.589844 9.070312 2.597656 8.953125 C 2.605469 8.839844 2.679688 8.746094 2.789062 8.707031 L 4.546875 8.140625 L 4.785156 6.308594 C 4.796875 6.191406 4.878906 6.101562 4.992188 6.074219 C 5.101562 6.046875 5.214844 6.085938 5.285156 6.179688 Z M 5.285156 6.179688 "/>
<path style=" stroke:none;fill-rule:evenodd;fill:rgb(1.568627%,7.45098%,30.980392%);fill-opacity:1;" d="M 24.285156 14.917969 C 24.78125 14.917969 25.167969 14.683594 25.167969 14.171875 C 25.167969 13.742188 24.792969 13.585938 24.46875 13.480469 C 24.21875 13.390625 24 13.332031 24 13.203125 C 24 13.105469 24.082031 13.035156 24.242188 13.035156 C 24.410156 13.035156 24.636719 13.117188 24.863281 13.25 L 25.113281 12.796875 C 24.863281 12.628906 24.546875 12.53125 24.253906 12.53125 C 23.789062 12.53125 23.410156 12.792969 23.410156 13.261719 C 23.410156 13.71875 23.777344 13.871094 24.097656 13.964844 C 24.351562 14.042969 24.578125 14.089844 24.578125 14.230469 C 24.578125 14.34375 24.492188 14.414062 24.300781 14.414062 C 24.085938 14.414062 23.824219 14.320312 23.574219 14.136719 L 23.292969 14.570312 C 23.597656 14.808594 23.960938 14.917969 24.285156 14.917969 Z M 26.371094 14.914062 C 26.59375 14.914062 26.753906 14.863281 26.890625 14.78125 L 26.890625 14.253906 C 26.792969 14.304688 26.6875 14.335938 26.566406 14.335938 C 26.421875 14.335938 26.355469 14.261719 26.355469 14.113281 L 26.355469 13.125 L 26.898438 13.125 L 26.898438 12.566406 L 26.355469 12.566406 L 26.355469 11.976562 L 25.699219 11.976562 L 25.699219 12.566406 L 25.425781 12.566406 L 25.425781 13.125 L 25.699219 13.125 L 25.699219 14.21875 C 25.699219 14.753906 25.972656 14.914062 26.371094 14.914062 Z M 26.371094 14.914062 "/>
<path style=" stroke:none;fill-rule:evenodd;fill:rgb(52.156863%,80.392157%,0.392157%);fill-opacity:1;" d="M 29.777344 0.191406 L 29.746094 1.417969 L 30.839844 1.972656 C 30.910156 2.007812 30.945312 2.074219 30.941406 2.152344 C 30.933594 2.230469 30.882812 2.292969 30.808594 2.3125 L 29.632812 2.660156 L 29.441406 3.875 C 29.429688 3.949219 29.375 4.007812 29.300781 4.023438 C 29.226562 4.042969 29.152344 4.011719 29.109375 3.949219 L 28.414062 2.9375 L 27.203125 3.132812 C 27.125 3.144531 27.054688 3.109375 27.011719 3.042969 C 26.972656 2.980469 26.976562 2.898438 27.027344 2.839844 L 27.773438 1.863281 L 27.214844 0.773438 C 27.179688 0.703125 27.1875 0.625 27.238281 0.566406 C 27.289062 0.507812 27.367188 0.488281 27.4375 0.515625 L 28.597656 0.925781 L 29.460938 0.0546875 C 29.515625 0 29.59375 -0.015625 29.664062 0.015625 C 29.738281 0.046875 29.78125 0.113281 29.777344 0.191406 Z M 29.777344 0.191406 "/>
</g>
</svg>
