<?xml version="1.0" encoding="UTF-8" standalone="no"?>
<svg
   enable-background="new 0 0 24 24"
   height="24px"
   viewBox="0 0 24 24"
   width="24px"
   fill="#000000"
   version="1.1"
   id="svg832"
   sodipodi:docname="dangerous_black_24dp.svg"
   inkscape:version="1.1 (c4e8f9e, 2021-05-24)"
   xmlns:inkscape="http://www.inkscape.org/namespaces/inkscape"
   xmlns:sodipodi="http://sodipodi.sourceforge.net/DTD/sodipodi-0.dtd"
   xmlns="http://www.w3.org/2000/svg"
   xmlns:svg="http://www.w3.org/2000/svg">
  <defs
     id="defs836" />
  <sodipodi:namedview
     id="namedview834"
     pagecolor="#ffffff"
     bordercolor="#666666"
     borderopacity="1.0"
     inkscape:pageshadow="2"
     inkscape:pageopacity="0.0"
     inkscape:pagecheckerboard="0"
     showgrid="false"
     inkscape:zoom="36.083333"
     inkscape:cx="11.986143"
     inkscape:cy="12"
     inkscape:window-width="2048"
     inkscape:window-height="1046"
     inkscape:window-x="0"
     inkscape:window-y="25"
     inkscape:window-maximized="1"
     inkscape:current-layer="svg832" />
  <g
     id="g826">
    <path
       d="M0,0h24v24H0V0z"
       fill="none"
       id="path824" />
  </g>
  <g
     id="g830"
     style="fill:#ff0000">
    <path
       d="M15.73,3H8.27L3,8.27v7.46L8.27,21h7.46L21,15.73V8.27L15.73,3z M19,14.9L14.9,19H9.1L5,14.9V9.1L9.1,5h5.8L19,9.1V14.9z M14.83,7.76L12,10.59L9.17,7.76L7.76,9.17L10.59,12l-2.83,2.83l1.41,1.41L12,13.41l2.83,2.83l1.41-1.41L13.41,12l2.83-2.83 L14.83,7.76z"
       id="path828"
       style="fill:#ff0000" />
  </g>
</svg>
