<?xml version="1.0" encoding="UTF-8" standalone="no"?>
<svg
   width="210"
   height="67"
   viewBox="0 0 210 67"
   version="1.1"
   id="svg890"
   sodipodi:docname="easybourse.svg"
   inkscape:version="1.1 (c4e8f9e, 2021-05-24)"
   xmlns:inkscape="http://www.inkscape.org/namespaces/inkscape"
   xmlns:sodipodi="http://sodipodi.sourceforge.net/DTD/sodipodi-0.dtd"
   xmlns="http://www.w3.org/2000/svg"
   xmlns:svg="http://www.w3.org/2000/svg">
  <defs
     id="defs894" />
  <sodipodi:namedview
     id="namedview892"
     pagecolor="#ffffff"
     bordercolor="#666666"
     borderopacity="1.0"
     inkscape:pageshadow="2"
     inkscape:pageopacity="0.0"
     inkscape:pagecheckerboard="0"
     showgrid="false"
     inkscape:zoom="5.2857143"
     inkscape:cx="104.90541"
     inkscape:cy="33.486486"
     inkscape:window-width="2048"
     inkscape:window-height="1046"
     inkscape:window-x="1"
     inkscape:window-y="25"
     inkscape:window-maximized="0"
     inkscape:current-layer="svg890" />
  <path
     d="m 43.891554,51.814211 c -0.584722,-0.282735 -1.224991,-0.43209 -1.874681,-0.437251 -1.375247,0 -2.242539,0.756361 -2.242539,3.01676 0,2.448424 0.770945,3.217894 2.054267,3.217894 0.514755,0.0023 1.018368,-0.150092 1.445378,-0.437252 v -2.186008 h -1.848383 l 0.284701,-0.926935 h 2.676185 v 4.437723 h -0.389814 l -0.346066,-0.60332 c -0.575954,0.423733 -1.272918,0.652067 -1.988478,0.651411 -1.861492,0 -3.066,-1.075553 -3.066,-4.140404 0,-2.841844 1.243916,-3.934848 3.368233,-3.934848 0.770042,-0.0058 1.531647,0.160005 2.229348,0.485261 z"
     fill="#706f6f"
     id="path824"
     style="stroke-width:0.819282" />
  <path
     d="m 46.747242,52.714847 0.389815,0.76947 c 0.532041,-0.500417 1.216798,-0.808304 1.944729,-0.87442 v 1.136754 c -0.624947,0.02392 -1.234985,0.197857 -1.778251,0.507136 V 58.4336 h -1.081862 v -5.718753 z"
     fill="#706f6f"
     id="path826"
     style="stroke-width:0.819282" />
  <path
     d="m 54.631193,55.565457 c 0,2.098591 -0.875977,2.959902 -2.444,2.959902 -1.568024,0 -2.439576,-0.87442 -2.439576,-2.959902 0,-2.085482 0.875976,-2.968669 2.439576,-2.968669 1.563682,0 2.444,0.87442 2.444,2.968669 z m -3.79303,0 c 0,1.622096 0.521228,2.107358 1.34903,2.107358 0.827802,0 1.353454,-0.485262 1.353454,-2.107358 0,-1.622014 -0.521227,-2.116123 -1.353454,-2.116123 -0.832144,0 -1.34903,0.498451 -1.34903,2.116123 z"
     fill="#706f6f"
     id="path828"
     style="stroke-width:0.819282" />
  <path
     d="m 57.070851,52.714847 v 3.799338 c 0,0.756361 0.179587,1.101771 0.915384,1.101771 0.520408,-0.03384 1.01001,-0.257992 1.375328,-0.629618 v -4.271491 h 1.08178 v 5.705562 h -0.468629 l -0.2847,-0.721378 c -0.539088,0.519097 -1.252929,0.818463 -2.001588,0.839436 -1.042455,0 -1.695095,-0.568335 -1.695095,-1.91499 v -3.90863 z"
     fill="#706f6f"
     id="path830"
     style="stroke-width:0.819282" />
  <path
     d="m 62.834828,52.714847 0.402922,0.581527 c 0.577102,-0.421603 1.265463,-0.664848 1.979795,-0.699586 0.946025,0 1.813317,0.55531 1.813317,2.911811 0,2.356583 -1.103819,3.01676 -2.190023,3.01676 -0.494273,-0.0074 -0.981746,-0.116092 -1.432269,-0.319111 v 2.282192 l -1.077437,0.358518 v -8.132111 z m 0.591275,4.638857 c 0.422013,0.213423 0.889084,0.322878 1.36222,0.319111 0.55621,0 1.125612,-0.43717 1.125612,-2.186009 0,-1.55213 -0.521228,-1.998065 -1.090629,-1.998065 -0.493617,0.03441 -0.972159,0.184174 -1.397203,0.437168 z"
     fill="#706f6f"
     id="path832"
     style="stroke-width:0.819282" />
  <path
     d="m 69.233911,55.757824 c 0,1.49093 0.556293,1.914991 1.471677,1.914991 0.521881,-0.01671 1.023118,-0.207607 1.423502,-0.54212 l 0.34164,0.647069 c -0.534746,0.478297 -1.226629,0.744318 -1.94473,0.747595 -1.432187,0 -2.430809,-0.791345 -2.430809,-2.933685 0,-2.238524 0.875977,-2.994886 2.334462,-2.994886 1.458567,0 2.041077,0.935621 2.041077,2.378459 v 0.437168 l -0.271592,0.367284 z m 2.168148,-0.756361 c 0,-1.053678 -0.306657,-1.552129 -1.029346,-1.552129 -0.722689,0 -1.068672,0.43725 -1.138802,1.552129 z"
     fill="#706f6f"
     id="path834"
     style="stroke-width:0.819282" />
  <path
     d="m 78.112142,50.550632 v 6.947347 h 2.881988 l 0.249635,0.922512 h -4.244126 v -7.869859 z"
     fill="#706f6f"
     id="path836"
     style="stroke-width:0.819282" />
  <path
     d="m 82.343159,53.020931 c 0.620525,-0.286912 1.295941,-0.436022 1.979795,-0.437251 1.165019,0 1.944648,0.520327 1.944648,1.630863 v 4.192839 h -0.473053 l -0.284701,-0.708269 c -0.501892,0.50902 -1.181241,0.805026 -1.896474,0.826328 -1.125692,0 -1.681904,-0.791345 -1.681904,-1.928098 -0.0231,-0.219158 0.0023,-0.440693 0.07447,-0.648872 0.07219,-0.208261 0.189254,-0.398089 0.342951,-0.556211 0.15378,-0.158038 0.340495,-0.280439 0.546872,-0.358598 0.206376,-0.07808 0.427419,-0.109948 0.647478,-0.0934 0.560389,0.01778 1.117009,0.09693 1.660029,0.236118 v -0.909403 c 0,-0.61651 -0.512461,-0.817561 -1.116845,-0.817561 -0.532861,-0.0011 -1.059332,0.115354 -1.541807,0.340985 z m 2.860114,2.981776 c -0.472808,-0.130921 -0.959379,-0.205803 -1.449719,-0.223008 -0.486244,0 -0.744646,0.2711 -0.744646,0.87442 0,0.686476 0.306657,1.04057 0.875977,1.04057 0.498123,-0.01925 0.96921,-0.230873 1.314046,-0.590211 z"
     fill="#706f6f"
     id="path838"
     style="stroke-width:0.819282" />
  <path
     d="m 93.35873,50.550632 c 1.59875,0 2.58418,0.472234 2.58418,2.011173 0.017,0.390633 -0.0891,0.77668 -0.3037,1.103818 -0.21457,0.32714 -0.52656,0.578742 -0.89204,0.719412 0.95922,0.209818 1.43227,0.743253 1.43227,1.906224 0,1.56958 -1.0205,2.129232 -2.73747,2.129232 h -2.29071 v -7.869859 z m -1.09054,3.454011 h 1.16067 c 0.17804,0.0053 0.35541,-0.02548 0.52115,-0.09061 0.16574,-0.06522 0.31649,-0.163365 0.44315,-0.28847 0.12658,-0.125104 0.22637,-0.274623 0.29322,-0.439462 0.0669,-0.16484 0.0995,-0.341559 0.0959,-0.519343 0,-0.87442 -0.43799,-1.193612 -1.38844,-1.193612 h -1.12565 z m 0,3.497679 h 1.20885 c 1.02926,0 1.50666,-0.367285 1.50666,-1.267921 0,-0.900637 -0.43799,-1.31167 -1.54173,-1.31167 h -1.17378 z"
     fill="#706f6f"
     id="path840"
     style="stroke-width:0.819282" />
  <path
     d="m 97.60294,53.020931 c 0.6202,-0.287977 1.29611,-0.437169 1.97939,-0.437251 1.16092,0 1.94497,0.520327 1.94497,1.630863 v 4.192839 h -0.47764 l -0.28429,-0.72146 c -0.5014,0.509839 -1.1814,0.80601 -1.89664,0.82641 -1.12561,0 -1.6819,-0.791426 -1.6819,-1.92818 -0.0231,-0.219076 0.002,-0.440609 0.0745,-0.648789 0.0722,-0.208262 0.18925,-0.398089 0.34303,-0.55621 0.1537,-0.15804 0.34025,-0.280441 0.54671,-0.3586 0.20646,-0.07808 0.42766,-0.109948 0.64723,-0.0934 0.56039,0.0177 1.1175,0.09693 1.66069,0.236116 v -0.909403 c 0,-0.616509 -0.51287,-0.817561 -1.1175,-0.817561 -0.5309,-0.0012 -1.05606,0.115355 -1.53706,0.340985 z m 2.85602,2.981776 c -0.47191,-0.130675 -0.95692,-0.205476 -1.44603,-0.223008 -0.48584,0 -0.74883,0.2711 -0.74883,0.87442 0,0.686476 0.31133,1.04057 0.87582,1.04057 0.49894,-0.01835 0.97002,-0.230136 1.31412,-0.590211 z"
     fill="#706f6f"
     id="path842"
     style="stroke-width:0.819282" />
  <path
     d="m 103.7918,52.714847 0.40309,0.581527 c 0.58332,-0.432172 1.28463,-0.676236 2.01051,-0.699586 1.03312,0 1.68608,0.546544 1.68608,1.788247 v 4.035456 h -1.07735 v -3.895604 c 0,-0.734486 -0.35966,-1.014271 -0.97249,-1.014271 -0.50877,0.02401 -1.00608,0.156646 -1.45832,0.389077 v 4.520798 h -1.08227 v -5.705644 z"
     fill="#706f6f"
     id="path844"
     style="stroke-width:0.819282" />
  <path
     d="m 113.88781,52.657989 v 7.987917 L 112.82356,61 v -3.086727 c -0.44978,0.37646 -1.01263,0.591931 -1.59924,0.612086 -0.95036,0 -1.97037,-0.603319 -1.97037,-2.933685 0,-2.238524 1.0069,-2.994886 2.02772,-2.994886 0.65379,0.02408 1.28955,0.215308 1.8483,0.55531 l 0.4375,-0.494109 z m -1.06425,1.158628 c -0.4121,-0.225875 -0.8709,-0.351718 -1.34034,-0.367283 -0.63986,0 -1.1257,0.660259 -1.1257,2.155448 0,1.569662 0.5776,2.068033 1.10358,2.068033 0.51123,-0.01541 0.99788,-0.223091 1.36246,-0.581445 z"
     fill="#706f6f"
     id="path846"
     style="stroke-width:0.819282" />
  <path
     d="m 116.73891,52.714847 v 3.799338 c 0,0.756361 0.17533,1.101771 0.91104,1.101771 0.52516,-0.03146 1.01919,-0.25578 1.38869,-0.629618 v -4.271491 h 1.07735 v 5.705562 h -0.47764 l -0.27118,-0.721378 c -0.53991,0.517623 -1.2535,0.816742 -2.00151,0.839436 -1.04704,0 -1.70001,-0.568335 -1.70001,-1.91499 v -3.90863 z"
     fill="#706f6f"
     id="path848"
     style="stroke-width:0.819282" />
  <path
     d="m 122.74425,55.757824 c 0,1.49093 0.56039,1.914991 1.47143,1.914991 0.52024,-0.01598 1.02082,-0.207033 1.41899,-0.54212 l 0.34574,0.647069 c -0.53418,0.478297 -1.22646,0.744318 -1.94416,0.747595 -1.43292,0 -2.4308,-0.791345 -2.4308,-2.933685 0,-2.238524 0.87581,-2.994886 2.33822,-2.994886 1.46325,0 2.03674,0.935621 2.03674,2.378459 v 0.437168 l -0.27118,0.367284 z m 2.16782,-0.756361 c 0,-1.053678 -0.30641,-1.552129 -1.02902,-1.552129 -0.72343,0 -1.06916,0.43725 -1.1388,1.552129 z"
     fill="#706f6f"
     id="path850"
     style="stroke-width:0.819282" />
  <path
     d="m 132.84436,50.550632 c 1.92285,0 2.72821,0.520326 2.72821,2.483408 0,1.893115 -1.25678,2.474559 -2.79867,2.474559 -0.38506,-0.0034 -0.77012,-0.03121 -1.15192,-0.08307 v 2.994967 h -1.11258 v -7.869859 z m -1.22238,3.934929 c 0.36541,0.05285 0.73409,0.08062 1.10358,0.08307 1.04295,0 1.70821,-0.380393 1.70821,-1.552131 0,-1.171737 -0.46372,-1.560813 -1.58941,-1.560813 H 131.631 Z"
     fill="#706f6f"
     id="path852"
     style="stroke-width:0.819282" />
  <path
     d="m 141.34113,55.565457 c 0,2.098591 -0.87581,2.959902 -2.43982,2.959902 -1.56319,0 -2.44392,-0.87442 -2.44392,-2.959902 0,-2.085482 0.87581,-2.968669 2.44392,-2.968669 1.5681,0 2.43982,0.87442 2.43982,2.968669 z m -3.79327,0 c 0,1.622096 0.52188,2.107358 1.35345,2.107358 0.83238,0 1.35345,-0.485262 1.35345,-2.107358 0,-1.622014 -0.52516,-2.116123 -1.35345,-2.116123 -0.82747,0 -1.35345,0.498451 -1.35345,2.116123 z"
     fill="#706f6f"
     id="path854"
     style="stroke-width:0.819282" />
  <path
     d="m 145.89633,53.816617 c -0.44241,-0.23628 -0.93479,-0.362285 -1.43701,-0.367283 -0.56941,0 -0.98068,0.188025 -0.98068,0.734486 0,0.37605 0.29329,0.590293 0.67427,0.730144 l 0.92415,0.3323 c 0.74882,0.271101 1.22236,0.721378 1.22236,1.552131 0,1.114878 -0.74882,1.748838 -2.01461,1.748838 -0.71769,-4.09e-4 -1.41982,-0.201871 -2.02855,-0.581525 l 0.29413,-0.778237 c 0.49813,0.313212 1.0708,0.488292 1.65986,0.507218 0.53417,0 0.97659,-0.201134 0.97659,-0.804535 0,-0.402185 -0.28921,-0.612086 -0.68738,-0.76947 l -0.83238,-0.319192 c -0.77095,-0.284127 -1.25761,-0.734486 -1.25761,-1.552048 0,-1.097427 0.81928,-1.630781 1.95808,-1.630781 0.63249,-0.01499 1.25761,0.135755 1.81308,0.437169 z"
     fill="#706f6f"
     id="path856"
     style="stroke-width:0.819282" />
  <path
     d="m 148.82199,51.328867 v 1.38598 h 1.67298 l -0.23595,0.795687 h -1.43703 v 3.497761 c 0,0.437168 0.19253,0.603319 0.51287,0.603319 0.36295,-0.02285 0.7136,-0.137231 1.02001,-0.332301 l 0.23677,0.760785 c -0.46781,0.31231 -1.01427,0.487965 -1.57712,0.507135 -0.17451,0.01737 -0.35146,-0.005 -0.51614,-0.06538 -0.1655,-0.06047 -0.3146,-0.157384 -0.43668,-0.283554 -0.12208,-0.126169 -0.21384,-0.27831 -0.26873,-0.445034 -0.0549,-0.166724 -0.0713,-0.343688 -0.0483,-0.517622 V 53.51053 h -0.84059 v -0.40661 l 0.84059,-0.306001 0.55629,-1.469056 z"
     fill="#706f6f"
     id="path858"
     style="stroke-width:0.819282" />
  <path
     d="m 151.60755,53.020931 c 0.62102,-0.286912 1.2961,-0.436022 1.98021,-0.437251 1.16502,0 1.94907,0.520327 1.94907,1.630863 v 4.192839 h -0.47765 l -0.2851,-0.72146 c -0.5014,0.509839 -1.18059,0.80601 -1.89583,0.82641 -1.12568,0 -1.68198,-0.791426 -1.68198,-1.92818 -0.023,-0.219076 0.002,-0.440609 0.0746,-0.648789 0.0721,-0.208262 0.18925,-0.398089 0.34246,-0.55621 0.15403,-0.15804 0.34082,-0.280441 0.54728,-0.3586 0.20645,-0.07808 0.42685,-0.109948 0.64724,-0.0934 0.55874,0.0177 1.11421,0.09684 1.65576,0.236116 v -0.909403 c 0,-0.616509 -0.50796,-0.817561 -1.11259,-0.817561 -0.5317,-0.0015 -1.05686,0.114863 -1.53696,0.340985 z m 2.85602,2.981776 c -0.47109,-0.131002 -0.95692,-0.205803 -1.44522,-0.223008 -0.48173,0 -0.74472,0.2711 -0.74472,0.87442 0,0.686476 0.30641,1.04057 0.87581,1.04057 0.49894,-0.01745 0.97003,-0.229399 1.31413,-0.590211 z"
     fill="#706f6f"
     id="path860"
     style="stroke-width:0.819282" />
  <path
     d="m 158.39203,49.649996 v 7.489465 c 0,0.310426 0.14009,0.437169 0.38096,0.437169 0.24742,-0.01081 0.48666,-0.08464 0.69639,-0.214242 l 0.26299,0.78266 c -0.37768,0.258238 -0.82501,0.398253 -1.283,0.402185 -0.67426,0 -1.13879,-0.367201 -1.13879,-1.241621 v -7.301441 z"
     fill="#706f6f"
     id="path862"
     style="stroke-width:0.819282" />
  <path
     d="m 161.35291,55.757824 c 0,1.49093 0.5563,1.914991 1.47225,1.914991 0.52025,-0.01598 1.02001,-0.207033 1.419,-0.54212 l 0.34573,0.647069 c -0.53499,0.478297 -1.22646,0.744318 -1.94497,0.747595 -1.43211,0 -2.4259,-0.791345 -2.4259,-2.933685 0,-2.238524 0.87581,-2.994886 2.33004,-2.994886 1.45423,0 2.04083,0.935621 2.04083,2.378459 v 0.437168 l -0.27118,0.367284 z m 2.18994,-0.756361 c 0,-1.053678 -0.31051,-1.552129 -1.03312,-1.552129 -0.7226,0 -1.06915,0.43725 -1.13879,1.552129 z"
     fill="#706f6f"
     id="path864"
     style="stroke-width:0.819282" />
  <path
     d="m 29.442041,26.351008 -0.05694,0.244803 c -0.31534,1.43407 -1.313964,3.834403 -4.336131,3.834403 -0.67304,0.0254 -1.344097,-0.08889 -1.970619,-0.335742 -0.626522,-0.246849 -1.194882,-0.620852 -1.669107,-1.09833 -1.115879,-1.241129 -1.719886,-2.857736 -1.690662,-4.52514 H 32.915387 V 24.19556 c 0.02286,-1.206802 -0.09028,-2.412294 -0.337299,-3.593862 C 31.474352,15.914749 27.760137,14.244627 24.69422,14.244627 20.49821,14.240251 16,17.156453 16,23.565942 c 0,5.932994 3.368183,9.618698 8.790568,9.618698 2.755,0 6.394741,-1.040571 8.09852,-5.998537 l 0.118304,-0.349751 z m -9.635862,-4.529481 c 0.398581,-2.959984 2.154941,-4.783132 4.651515,-4.783132 0.722688,0 4.279191,0.231774 4.682196,4.809349 z"
     fill="#49b1e5"
     id="path866"
     style="stroke-width:0.819282" />
  <path
     d="m 51.109756,29.53392 c -0.269708,0.109784 -0.558505,0.164756 -0.84976,0.161726 -0.875976,0 -0.937258,-0.437169 -0.976748,-2.159792 v -5.68811 c 0.03949,-2.273508 0.07447,-4.415848 -1.984055,-6.072846 -1.813317,-1.420962 -4.480735,-1.530279 -5.25594,-1.530279 -2.903945,0 -5.124608,1.149886 -6.25022,3.235368 -0.405299,0.800111 -0.647888,1.672319 -0.713922,2.566402 l -0.04818,0.43725 3.674725,0.218585 V 20.40933 c 0,-0.918168 0,-3.366593 3.451471,-3.366593 3.626551,-0.0043 3.626551,2.728209 3.626551,4.53833 v 0.187944 l -2.514048,0.201134 c -5.66771,0.43725 -7.34519,1.849446 -8.238699,3.174143 -0.543348,0.818955 -0.830014,1.780956 -0.823461,2.763193 0,3.060509 2.597288,5.246517 6.175748,5.246517 1.089645,3.28e-4 2.167574,-0.22481 3.165705,-0.661324 0.998132,-0.436431 1.894754,-1.074733 2.633337,-1.874517 0.381048,1.530255 1.427844,2.277931 3.192988,2.277931 0.551212,-0.0022 1.099476,-0.08013 1.629388,-0.231774 l 0.275933,-0.06996 0.210228,-0.04809 v -3.178486 z m -5.291005,-5.316486 c 0,2.255976 -0.05694,2.62326 -0.437989,3.462696 -0.757754,1.600222 -2.303902,2.474641 -4.37562,2.474641 -1.822003,0 -3.004635,-0.905061 -3.004635,-2.299724 0,-1.036228 0.437987,-2.18609 3.582801,-2.863801 1.559257,-0.336642 2.886412,-0.542118 3.941976,-0.712611 z"
     fill="#49b1e5"
     id="path868"
     style="stroke-width:0.819282" />
  <path
     d="m 61.713558,22.197495 -1.66003,-0.40661 c -2.38706,-0.577101 -3.941892,-1.05802 -3.941892,-2.457108 0,-1.097429 1.108078,-2.264741 3.153498,-2.264741 1.133641,-0.03678 2.246963,0.306411 3.162347,0.974945 1.011813,0.782579 1.10816,1.499614 1.147567,2.588276 v 0.301659 l 3.744856,-0.480918 -0.0394,-0.275443 c -0.411689,-2.850609 -2.654228,-5.902328 -7.717472,-5.902328 -4.239784,0 -6.981675,2.133549 -6.981675,5.425752 0,3.786312 3.503987,4.621324 6.355334,5.290267 l 1.751953,0.354176 c 2.102359,0.402267 3.394449,0.743253 3.394449,2.492092 0,2.256057 -2.395827,2.5927 -3.819247,2.5927 -1.165101,0 -2.369609,-0.109293 -3.3244,-0.926936 -0.440693,-0.391944 -0.779629,-0.884578 -0.987891,-1.435873 -0.208262,-0.551296 -0.279538,-1.144701 -0.207852,-1.729504 v -0.332302 l -3.867503,0.607744 0.0263,0.25791 c 0.0807,0.960198 0.362041,1.892787 0.826001,2.737712 0.463959,0.844927 1.100213,1.583427 1.867635,2.167821 1.313964,0.931277 3.284992,1.447179 5.54064,1.447179 5.203423,0 7.572951,-2.986118 7.572951,-5.758078 0,-3.87807 -3.902569,-4.783049 -5.996161,-5.268392 z"
     fill="#49b1e5"
     id="path870"
     style="stroke-width:0.819282" />
  <path
     d="m 101.90417,16.421885 c -1.51157,-1.425878 -3.518,-2.209718 -5.59766,-2.186017 -3.14481,0 -4.84425,1.45153 -5.69401,2.413367 V 6.108108 H 87.108596 V 32.67308 H 90.6125 v -1.748839 c 1.3841,1.490847 3.32006,2.273508 5.65895,2.273508 2.78162,0 5.01498,-1.05368 6.46921,-3.06051 1.26333,-1.88525 1.90729,-4.116073 1.8442,-6.383272 0,-3.108601 -0.92415,-5.644443 -2.67659,-7.327658 z m -1.00771,7.174698 c 0,3.178486 -1.34854,6.558188 -5.1419,6.558188 -3.79303,0 -5.22088,-3.318501 -5.22088,-6.422679 0.0438,-5.82362 4.03399,-6.273979 5.25595,-6.273979 3.10122,0 5.10683,2.404674 5.10683,6.120937"
     fill="#706f6f"
     id="path872"
     style="stroke-width:0.819282" />
  <path
     d="m 121.05735,16.561818 c -0.79798,-0.771764 -1.74426,-1.375083 -2.78065,-1.773909 -1.03721,-0.398908 -2.14406,-0.585148 -3.255,-0.547674 -6.59604,0 -8.93509,5.180959 -8.93509,9.618682 -0.059,2.311522 0.67672,4.573559 2.08507,6.409488 1.56401,1.906224 3.89405,2.911811 6.74515,2.911811 5.19507,0 8.70733,-3.803762 8.75976,-9.469999 0.0221,-2.894359 -0.90613,-5.434543 -2.62744,-7.152741 z m -11.21679,7.336425 c 0,-2.522734 0.68737,-6.754898 5.25569,-6.754898 1.42391,0 3.94239,0.546461 4.62976,4.192839 0.15649,0.778072 0.21711,1.57253 0.17943,2.365267 -0.11388,5.434544 -2.79867,6.558188 -5.03203,6.558188 -4.5421,0 -5.03695,-4.46394 -5.03695,-6.383271"
     fill="#706f6f"
     id="path874"
     style="stroke-width:0.819282" />
  <path
     d="m 136.93913,14.791104 v 8.958521 c 0,1.997982 0,3.322761 -1.0069,4.503265 -0.46453,0.51369 -1.03639,0.918989 -1.67543,1.187304 -0.63905,0.268232 -1.32887,0.392763 -2.02117,0.364743 -1.31413,0 -2.92156,-0.437168 -3.19357,-2.492092 -0.0696,-0.437168 -0.0696,-0.568335 -0.0696,-2.347815 V 14.791104 h -3.47376 v 10.431918 c 0,2.911809 0,4.516374 1.31413,6.024753 0.7095,0.87442 2.05886,1.866898 4.45034,1.866898 1.07654,0.01753 2.14324,-0.205312 3.12229,-0.652394 0.97904,-0.447082 1.84583,-1.107014 2.53649,-1.931539 v 2.14234 h 3.46884 V 14.791104 Z"
     fill="#706f6f"
     id="path876"
     style="stroke-width:0.819282" />
  <path
     d="m 152.75947,14.563754 h -0.2802 c -1.10768,0.03498 -3.87602,0.118058 -5.6678,2.667008 v -2.448424 h -3.50407 v 17.881976 h 3.50407 v -8.495053 c 0,-1.473397 0,-2.863718 0.70131,-4.031031 0.75293,-1.241704 2.09327,-1.928098 3.77935,-1.928098 0.39817,0.0019 0.79634,0.02531 1.19123,0.06989 l 0.29823,0.03064 v -3.458353 z"
     fill="#706f6f"
     id="path878"
     style="stroke-width:0.819282" />
  <path
     d="m 162.78502,22.197495 -1.65987,-0.40661 c -2.38657,-0.577101 -3.94156,-1.05802 -3.94156,-2.457108 0,-1.097429 1.09947,-2.264741 3.14932,-2.264741 1.14207,-0.04277 2.26613,0.300758 3.18863,0.974945 1.01182,0.782579 1.10768,1.499614 1.14291,2.588276 v 0.301659 l 3.74494,-0.480918 -0.0394,-0.275443 c -0.4121,-2.850609 -2.65448,-5.902328 -7.71764,-5.902328 -4.23979,0 -6.98601,2.133549 -6.98601,5.425752 0,3.786312 3.52619,4.621324 6.35516,5.290267 l 1.75245,0.354176 c 2.09736,0.402267 3.38527,0.743253 3.38527,2.492092 0,2.256057 -2.39148,2.5927 -3.81457,2.5927 -1.16502,0 -2.37429,-0.109293 -3.32465,-0.926936 -0.44078,-0.391944 -0.77995,-0.884578 -0.98806,-1.435873 -0.20809,-0.551296 -0.27937,-1.144701 -0.20809,-1.729504 v -0.332302 l -3.91126,0.607744 0.0312,0.25791 c 0.0794,0.959789 0.36131,1.891968 0.82502,2.73632 0.46371,0.844352 1.1003,1.581869 1.86878,2.164871 1.3133,0.935619 3.28451,1.451521 5.53998,1.451521 5.20409,0 7.57344,-2.986118 7.57344,-5.758078 0,-3.87807 -3.90305,-4.783049 -5.99632,-5.268392"
     fill="#706f6f"
     id="path880"
     style="stroke-width:0.819282" />
  <path
     d="m 183.66442,26.351008 -0.0565,0.244803 c -0.31542,1.43407 -1.31413,3.834403 -4.33647,3.834403 -0.67344,0.02499 -1.34525,-0.08955 -1.97201,-0.336397 -0.62756,-0.246768 -1.19696,-0.620524 -1.67214,-1.097675 -1.11259,-1.242686 -1.71476,-2.858638 -1.68609,-4.52514 h 13.197 V 24.19556 c 0.023,-1.206802 -0.0901,-2.412294 -0.33755,-3.593862 -1.10767,-4.686949 -4.8182,-6.357079 -7.88395,-6.357079 -4.17834,0 -8.6762,2.916176 -8.6762,9.325747 0,5.932912 3.36808,9.618616 8.79008,9.618616 2.75032,0 6.39449,-1.04057 8.0986,-5.998537 l 0.11798,-0.349751 z m -9.63558,-4.529481 c 0.38097,-2.959984 2.13751,-4.787474 4.63386,-4.787474 0.7226,0 4.27911,0.231692 4.68219,4.809266 z"
     fill="#706f6f"
     id="path882"
     style="stroke-width:0.819282" />
  <path
     d="m 72.926251,14.791104 h -4.33179 l 8.742394,14.261897 h 4.3186 z"
     fill="#49b1e5"
     id="path884"
     style="stroke-width:0.819282" />
  <path
     d="m 81.909514,14.791104 -5.575623,8.862338 -9.040285,14.629016 h 4.336213 L 78.716526,26.80571 86.245728,14.791104 Z"
     fill="#706f6f"
     id="path886"
     style="stroke-width:0.819282" />
  <path
     d="m 77.336855,29.052919 h -7.691173 l -2.242538,3.615737 h 12.009854 l 2.242539,-3.615737 z"
     fill="#49b1e5"
     id="path888"
     style="stroke-width:0.819282" />
</svg>
