<?xml version="1.0" encoding="UTF-8" standalone="no"?>
<svg
   enable-background="new 0 0 156 49"
   version="1.1"
   viewBox="0 0 100 50"
   xml:space="preserve"
   id="svg849"
   sodipodi:docname="etoro.svg"
   width="100"
   height="50"
   inkscape:version="1.1 (c4e8f9e, 2021-05-24)"
   xmlns:inkscape="http://www.inkscape.org/namespaces/inkscape"
   xmlns:sodipodi="http://sodipodi.sourceforge.net/DTD/sodipodi-0.dtd"
   xmlns:xlink="http://www.w3.org/1999/xlink"
   xmlns="http://www.w3.org/2000/svg"
   xmlns:svg="http://www.w3.org/2000/svg"
   xmlns:rdf="http://www.w3.org/1999/02/22-rdf-syntax-ns#"
   xmlns:cc="http://creativecommons.org/ns#"
   xmlns:dc="http://purl.org/dc/elements/1.1/"><sodipodi:namedview
   id="namedview851"
   pagecolor="#ffffff"
   bordercolor="#666666"
   borderopacity="1.0"
   inkscape:pageshadow="2"
   inkscape:pageopacity="0.0"
   inkscape:pagecheckerboard="0"
   showgrid="false"
   inkscape:zoom="1"
   inkscape:cx="78"
   inkscape:cy="26"
   inkscape:window-width="1167"
   inkscape:window-height="480"
   inkscape:window-x="0"
   inkscape:window-y="25"
   inkscape:window-maximized="0"
   inkscape:current-layer="svg849" />
<title
   id="title824">eToro</title>
<style
   type="text/css"
   id="style826">
                          .logoColor { fill:transparent; will-change:fill; }
                        </style>
<defs
   id="defs829">
 <rect
   id="a"
   width="156.10001"
   height="49"
   x="0"
   y="0" />
</defs>
<clipPath
   id="clipPath833">
<use
   xlink:href="#a"
   id="use831"
   x="0"
   y="0"
   width="100%"
   height="100%" />
</clipPath>
<path
   class="logoColor"
   d="M 93.761663,19.97347 C 93.265745,18.1 89.408603,13.802041 86.598398,10.330612 86.543296,10.275511 86.37799,10 86.047378,10 c -0.275511,0 -0.495919,0.275511 -0.385715,0.495918 0.110204,0.220408 2.810204,5.840816 2.314286,7.659185 -0.495919,1.873468 -2.97551,1.487754 -3.361224,1.487754 -0.220409,0 -0.05511,0.165306 0.165305,0.385714 1.377552,1.212245 2.259185,2.920409 2.259185,5.124491 v 1.65306 c 0,0.05511 0,0.05511 0.0551,0.05511 3.140816,-0.275511 7.934695,-2.204082 6.667347,-6.887755"
   id="path835"
   style="fill:#13c636;fill-opacity:1;stroke-width:0.551021" />
<path
   class="logoColor"
   d="m 81.584112,30.828571 c 0,1.597959 -2.148979,2.479592 -3.52653,2.479592 -1.487756,0 -3.581633,-0.881633 -3.581633,-2.479592 v -5.620408 c 0,-1.597959 2.093877,-2.314285 3.581633,-2.314285 1.377551,0 3.52653,0.771428 3.52653,2.314285 z m -3.52653,-11.461224 c -3.306123,0.05511 -7.163266,1.928571 -7.163266,5.785714 v 5.895918 c 0,3.912246 3.857143,5.785715 7.163266,5.785715 3.251021,-0.05511 7.108163,-1.873469 7.108163,-5.785715 v -5.840816 c 0,-3.857143 -3.857142,-5.785714 -7.108163,-5.840816"
   id="path837"
   style="fill:#13c636;fill-opacity:1;stroke-width:0.551021" />
<path
   class="logoColor"
   d="m 56.67799,30.828571 c 0,1.597959 -2.148979,2.479592 -3.526531,2.479592 -1.487755,0 -3.581633,-0.881633 -3.581633,-2.479592 v -5.620408 c 0,-1.597959 2.093878,-2.314285 3.581633,-2.314285 1.377552,0 3.526531,0.771428 3.526531,2.314285 z M 53.096357,19.367347 c -3.306123,0.05511 -7.163265,1.928571 -7.163265,5.785714 v 5.895918 c 0,3.912246 3.857142,5.785715 7.163265,5.785715 3.251021,-0.05511 7.108164,-1.873469 7.108164,-5.785715 v -5.840816 c 0,-3.857143 -3.857143,-5.785714 -7.108164,-5.840816"
   id="path839"
   style="fill:#13c636;fill-opacity:1;stroke-width:0.551021" />
<path
   class="logoColor"
   d="m 17.169826,20.028571 c 0.220408,-0.220408 0.385715,-0.385714 0.165307,-0.385714 -0.385714,0 -2.865306,0.385714 -3.361225,-1.487755 C 13.47799,16.281633 16.17799,10.716326 16.288194,10.495918 16.343296,10.275511 16.17799,10 15.847378,10 15.571867,10 15.351459,10.330612 15.296357,10.330612 12.541255,13.802041 8.6290104,18.1 8.1330919,19.97347 c -1.2673469,4.683673 3.6367351,6.612244 6.7224491,6.942856 0.0551,0 0.0551,-0.0551 0.0551,-0.0551 v -1.653061 c 0.0551,-2.259184 0.881633,-3.967347 2.259184,-5.179592"
   id="path841"
   style="fill:#13c636;fill-opacity:1;stroke-width:0.551021" />
<path
   class="logoColor"
   d="m 45.712684,20.689796 c -2.644898,-0.716326 -4.573469,-0.991837 -7.438776,-0.991837 -2.810204,0 -4.793878,0.275511 -7.438775,0.991837 -0.110204,0.05511 -0.165307,0.165306 -0.110204,0.220408 0.881633,0.771429 1.267346,1.763266 1.432653,2.865306 1.432652,-0.330612 2.755102,-0.55102 4.297959,-0.661224 V 36.72449 c 0,0.0551 0.0551,0.0551 0.110204,0.0551 h 3.416326 c 0.05511,0 0.110204,0 0.110204,-0.0551 V 23.114286 c 1.487755,0.110204 2.7,0.27551 4.132654,0.661224 0.220408,-1.10204 0.661224,-2.14898 1.597959,-2.865306 0,-0.110204 -0.0551,-0.220408 -0.110204,-0.220408"
   id="path843"
   style="fill:#13c636;fill-opacity:1;stroke-width:0.551021" />
<path
   class="logoColor"
   d="m 71.004521,19.532653 c -0.27551,-0.05511 -0.991837,-0.165306 -1.653062,-0.110204 -3.25102,0.110204 -6.942856,2.038776 -6.942856,5.785714 v 11.626531 c 0,0.0551 0.0551,0.0551 0.110204,0.0551 h 3.416326 c 0.0551,0 0.110204,0 0.110204,-0.0551 V 25.208163 c 0,-1.267347 1.542857,-1.983673 2.810204,-2.259184 0.385714,-1.212245 1.102041,-2.148979 2.204081,-3.030612 0.165307,-0.165306 0.110204,-0.385714 -0.0551,-0.385714"
   id="path845"
   style="fill:#13c636;fill-opacity:1;stroke-width:0.551021" />
<path
   class="logoColor"
   d="m 27.033092,26.2 c 0,0.0551 0,0.0551 -0.0551,0.110204 0,0.0551 -0.05511,0.0551 -0.110204,0.0551 h -6.502041 v -1.157143 c 0,-1.597959 1.928571,-2.369387 3.416326,-2.369387 1.432653,0 3.25102,0.771428 3.25102,2.369387 z m -3.251021,-6.942857 c -3.361224,0.05511 -7.053061,1.983673 -7.053061,5.895918 v 5.951021 c 0,3.967347 3.691837,5.840816 7.053061,5.895918 2.424491,0 5.124491,-0.991837 6.44694,-3.140816 0.0551,-0.0551 0,-0.165306 -0.05511,-0.220409 -1.157143,-0.661224 -1.818367,-1.046938 -2.97551,-1.653061 -0.05511,0 -0.05511,0 -0.110204,0.0551 -0.606123,1.046938 -2.204082,1.597959 -3.306123,1.597959 -1.487755,0 -3.416326,-0.936734 -3.416326,-2.534693 v -1.763266 h 9.312245 c 0.495918,0 0.881632,-0.385715 0.881632,-0.881633 v -3.25102 c 0,-3.967347 -3.471428,-5.895918 -6.777551,-5.951021"
   id="path847"
   style="fill:#13c636;fill-opacity:1;stroke-width:0.551021" />
<metadata
   id="metadata933"><rdf:RDF><cc:Work
       rdf:about=""><dc:title>eToro</dc:title></cc:Work></rdf:RDF></metadata></svg>
