<?xml version="1.0" encoding="UTF-8" standalone="no"?>
<svg
   width="300"
   height="150"
   viewBox="0 0 300 150"
   fill="none"
   version="1.1"
   id="svg6"
   sodipodi:docname="saxo.svg"
   inkscape:version="1.2.2 (b0a84865, 2022-12-01)"
   xmlns:inkscape="http://www.inkscape.org/namespaces/inkscape"
   xmlns:sodipodi="http://sodipodi.sourceforge.net/DTD/sodipodi-0.dtd"
   xmlns="http://www.w3.org/2000/svg"
   xmlns:svg="http://www.w3.org/2000/svg">
  <defs
     id="defs10" />
  <sodipodi:namedview
     id="namedview8"
     pagecolor="#ffffff"
     bordercolor="#000000"
     borderopacity="0.25"
     inkscape:showpageshadow="2"
     inkscape:pageopacity="0.0"
     inkscape:pagecheckerboard="0"
     inkscape:deskcolor="#d1d1d1"
     showgrid="false"
     inkscape:zoom="1"
     inkscape:cx="350"
     inkscape:cy="101.5"
     inkscape:window-width="1463"
     inkscape:window-height="1205"
     inkscape:window-x="1508"
     inkscape:window-y="114"
     inkscape:window-maximized="0"
     inkscape:current-layer="svg6" />
  <path
     d="m 251.68612,128.18385 c -0.4846,1.05784 -1.2115,1.85566 -2.1807,2.38754 -0.9692,0.53187 -2.17478,0.79781 -3.62267,0.79781 h -3.09672 v -14.27796 h 3.209 c 1.40652,0 2.58847,0.26594 3.53403,0.786 0.95147,0.52596 1.67246,1.31196 2.15706,2.3639 0.49051,1.05193 0.73281,2.37572 0.73281,3.96544 0,1.59564 -0.2423,2.91942 -0.73281,3.97727 z m -0.15365,-13.10784 c -1.48335,-0.82736 -3.26218,-1.24104 -5.32469,-1.24104 h -7.18626 v 20.79642 h 7.04443 c 2.11569,0 3.91816,-0.4196 5.42515,-1.24696 1.50699,-0.82737 2.65939,-2.02705 3.46312,-3.58131 0.80372,-1.55427 1.19968,-3.41584 1.19968,-5.58472 0,-2.16297 -0.39596,-4.01272 -1.19968,-5.56699 -0.79191,-1.55426 -1.9384,-2.74803 -3.42175,-3.5754 z m -28.98143,10.7203 h 9.05965 v -3.16172 h -9.05965 v -5.64382 h 9.757 v -3.15581 h -13.52742 v 20.79643 h 13.60425 v -3.15581 h -9.83974 v -5.67927 z m -26.40478,-8.80554 h 6.42981 v 17.64062 h 3.73497 v -17.64062 h 6.42981 v -3.15581 h -16.59459 z m -7.18035,7.72405 c -0.57915,-0.47278 -1.23514,-0.86282 -1.96204,-1.17604 -0.7269,-0.31322 -1.48335,-0.56143 -2.26934,-0.73872 l -1.95022,-0.49051 c -0.4255,-0.10046 -0.85101,-0.23048 -1.2706,-0.37822 -0.41959,-0.14775 -0.80372,-0.33095 -1.14649,-0.54961 -0.34868,-0.22457 -0.62052,-0.49051 -0.81555,-0.80964 -0.19502,-0.31912 -0.30139,-0.69735 -0.30139,-1.12876 0.006,-0.52006 0.15956,-0.98693 0.46096,-1.38879 0.29548,-0.40777 0.7269,-0.73281 1.28832,-0.9692 0.56143,-0.23639 1.23514,-0.35459 2.02114,-0.35459 1.11694,0 2.02704,0.24821 2.7244,0.73872 0.70326,0.49642 1.09921,1.18195 1.19377,2.06842 h 3.62267 c -0.0177,-1.17013 -0.34867,-2.21025 -0.98692,-3.10853 -0.63235,-0.9042 -1.5129,-1.61337 -2.62394,-2.12161 -1.11694,-0.50823 -2.41117,-0.76826 -3.8827,-0.76826 -1.4538,0 -2.75986,0.26003 -3.91226,0.76826 -1.1524,0.50824 -2.05659,1.22923 -2.7244,2.14525 -0.6678,0.92192 -0.99874,1.99158 -0.99874,3.22081 0,1.48926 0.49641,2.68303 1.48925,3.58131 0.99284,0.89828 2.34027,1.56609 4.05409,2.00341 l 2.36391,0.6087 c 0.74462,0.18911 1.3947,0.40187 1.95612,0.64417 0.55552,0.23639 0.99284,0.53778 1.30606,0.89237 0.30731,0.35458 0.46687,0.80373 0.47869,1.34742 -0.006,0.59689 -0.18911,1.11695 -0.53779,1.56018 -0.35458,0.44323 -0.83918,0.78599 -1.45971,1.0342 -0.62052,0.24821 -1.34151,0.37232 -2.15706,0.37232 -0.78599,0 -1.49516,-0.1182 -2.12751,-0.35459 -0.63234,-0.23639 -1.14649,-0.59688 -1.53653,-1.07557 -0.39005,-0.47869 -0.61462,-1.0874 -0.66781,-1.80839 h -3.70541 c 0.0532,1.37698 0.41368,2.55302 1.08148,3.5104 0.66781,0.95738 1.59564,1.69019 2.7835,2.19252 1.18786,0.50232 2.59438,0.75053 4.20774,0.75053 1.66655,0 3.08489,-0.26002 4.26093,-0.77417 1.17013,-0.52006 2.07433,-1.24105 2.69485,-2.16297 0.62053,-0.92783 0.93374,-1.9975 0.93374,-3.21491 0,-0.89828 -0.17138,-1.68428 -0.50824,-2.35799 -0.34276,-0.66189 -0.79781,-1.22923 -1.37697,-1.70792 z m -29.79107,1.08149 h 9.05966 v -3.16172 h -9.05966 v -5.64382 h 9.75701 v -3.15581 h -13.52743 v 20.79643 h 13.60425 v -3.15581 h -9.83974 z m -18.91121,4.40276 h -0.21275 l -5.41333,-16.3641 h -4.13092 l 7.32219,20.79642 h 4.65097 l 7.3281,-20.79642 h -4.14274 z m -19.10623,-2.19252 h -0.1832 l -9.78655,-14.1775 h -3.37447 v 20.79643 h 3.76451 V 120.4598 h 0.17138 l 9.79837,14.16568 h 3.35083 v -20.79643 h -3.74678 z m -24.058605,6.61893 h 3.764515 v -20.79643 h -3.764515 z m -26.422507,-8.82917 h 9.059651 v -3.16172 h -9.059651 v -5.64382 h 9.757002 v -3.15581 H 66.905865 v 20.79643 h 13.604252 v -3.15581 h -9.839739 z m -14.644369,4.89918 c -0.608705,0.52597 -1.589724,0.786 -2.960787,0.786 h -4.054091 v -6.08705 h 4.154557 c 0.774178,0 1.44789,0.14184 2.009316,0.43141 0.561427,0.28958 0.992839,0.67963 1.300146,1.17605 0.307307,0.49641 0.460961,1.05193 0.460961,1.66655 0,0.82736 -0.307307,1.50107 -0.910102,2.02704 z M 49.022951,116.9435 h 3.805881 c 1.111034,0 1.950219,0.26002 2.511646,0.78008 0.567336,0.52006 0.851004,1.18786 0.851004,1.99159 0,0.6087 -0.153654,1.13467 -0.449141,1.5779 -0.301398,0.44324 -0.71508,0.786 -1.235139,1.0283 -0.520058,0.23639 -1.105124,0.3605 -1.755196,0.3605 h -3.729055 z m 9.426057,7.58812 c -0.679622,-0.40777 -1.388792,-0.63235 -2.127511,-0.67371 v -0.20094 c 0.679621,-0.15956 1.288326,-0.4255 1.837933,-0.80372 0.543697,-0.37232 0.981019,-0.85692 1.311965,-1.45971 0.325037,-0.59689 0.4846,-1.31788 0.4846,-2.16888 0,-1.0283 -0.24821,-1.95022 -0.744629,-2.75985 -0.502329,-0.81555 -1.246958,-1.4538 -2.245706,-1.92658 -0.998749,-0.46688 -2.245707,-0.70327 -3.752694,-0.70327 h -7.960437 v 20.79643 h 8.415488 c 1.589724,0 2.907599,-0.24821 3.959535,-0.73872 1.046026,-0.49642 1.832024,-1.17013 2.357992,-2.02705 0.520058,-0.85691 0.780087,-1.8202 0.780087,-2.90169 0,-1.05193 -0.218661,-1.95612 -0.650073,-2.70075 -0.425502,-0.75054 -0.986929,-1.32379 -1.66655,-1.73156 z"
     fill="white"
     id="path2"
     style="fill:#000000;stroke-width:0.590975" />
  <path
     d="m 102.18709,57.851871 8.91191,-21.730163 8.94146,21.730163 z M 117.13877,17.866486 H 105.43155 L 77.827089,82.726023 H 91.93367 l 5.602447,-13.598342 h 27.167133 l 5.56699,13.533335 8.87645,-13.096014 z m 69.54598,30.807538 20.85552,-30.807538 H 192.42312 L 178.92524,37.876905 165.79968,17.866486 h -15.66085 l 21.15692,31.043928 -22.98303,33.809699 h 15.15261 l 15.58992,-22.876655 15.18807,22.876655 h 15.55447 z M 31.352789,36.32855 c 0,-5.029201 4.656885,-7.865882 10.933043,-7.865882 6.819856,0 10.395257,3.274003 12.250919,7.251267 L 67.25454,30.992042 C 63.844613,22.251517 54.536751,16.850006 43.125017,16.850006 c -15.253073,0 -25.276003,9.213302 -25.276003,20.447743 0,22.303409 36.545903,14.106581 36.545903,26.895288 0,4.79281 -4.964193,7.830423 -12.049987,7.830423 -7.729957,0 -12.723699,-4.184106 -14.815752,-10.596188 L 14.640015,65.54046 c 3.002152,11.068968 13.497868,18.190221 27.297142,18.190221 15.081691,0 26.221576,-8.504135 26.221576,-20.181807 C 68.164642,40.441738 31.352789,47.964854 31.352789,36.32855 Z M 252.32438,71.485672 c -11.16944,0 -19.8745,-8.876449 -19.8745,-21.192375 0,-12.315926 8.70506,-21.192376 19.8745,-21.192376 11.34081,0 19.94541,8.87645 19.94541,21.192376 -0.006,12.321836 -8.61051,21.192375 -19.94541,21.192375 z m 0,-54.629759 c -19.06487,0 -33.88062,15.052141 -33.88062,33.443293 0,18.391153 14.81575,33.443295 33.88062,33.443295 19.06486,0 33.94562,-15.052142 33.94562,-33.443295 0,-18.391152 -14.88076,-33.443293 -33.94562,-33.443293 z"
     fill="white"
     id="path4"
     style="fill:#000000;stroke-width:0.590975" />
</svg>
