<?xml version="1.0" encoding="UTF-8" standalone="no"?>
<svg
   viewBox="0 0 100 50"
   class="header__logo-svg"
   version="1.1"
   id="svg826"
   sodipodi:docname="traderepublic.svg"
   width="100"
   height="50"
   inkscape:version="1.1 (c4e8f9e, 2021-05-24)"
   xmlns:inkscape="http://www.inkscape.org/namespaces/inkscape"
   xmlns:sodipodi="http://sodipodi.sourceforge.net/DTD/sodipodi-0.dtd"
   xmlns="http://www.w3.org/2000/svg"
   xmlns:svg="http://www.w3.org/2000/svg">
  <defs
     id="defs830" />
  <sodipodi:namedview
     id="namedview828"
     pagecolor="#ffffff"
     bordercolor="#666666"
     borderopacity="1.0"
     inkscape:pageshadow="2"
     inkscape:pageopacity="0.0"
     inkscape:pagecheckerboard="0"
     showgrid="false"
     inkscape:zoom="1"
     inkscape:cx="36"
     inkscape:cy="15.5"
     inkscape:window-width="1167"
     inkscape:window-height="755"
     inkscape:window-x="0"
     inkscape:window-y="25"
     inkscape:window-maximized="0"
     inkscape:current-layer="svg826" />
  <path
     d="m 75.762,37.427 c -0.232,-0.704 -0.31,-1.27 -0.31,-2.817 0,-1.547 0.077,-2.114 0.31,-2.818 0.558,-1.7 1.923,-2.573 3.83,-2.573 1.86,0 3.195,0.873 3.783,2.373 0.047,0.108 0.031,0.17 -0.077,0.215 l -2.062,0.888 c -0.109,0.046 -0.171,0.016 -0.218,-0.092 -0.294,-0.612 -0.666,-0.98 -1.38,-0.98 -0.666,0 -1.085,0.322 -1.272,0.904 -0.108,0.321 -0.155,0.643 -0.155,2.083 0,1.44 0.047,1.76 0.155,2.082 0.186,0.582 0.605,0.904 1.272,0.904 0.714,0 1.085,-0.368 1.38,-0.98 0.047,-0.108 0.11,-0.138 0.218,-0.092 l 2.062,0.888 c 0.109,0.046 0.124,0.107 0.077,0.215 -0.59,1.5 -1.922,2.373 -3.783,2.373 -1.907,0 -3.272,-0.873 -3.83,-2.573 z m -4.673,2.236 V 29.556 c 0,-0.092 0.062,-0.154 0.155,-0.154 h 2.42 c 0.092,0 0.154,0.062 0.154,0.154 v 10.106 c 0,0.092 -0.062,0.154 -0.155,0.154 h -2.42 c -0.093,0 -0.154,-0.06 -0.154,-0.153 z m -8.769,0 V 29.556 c 0,-0.092 0.062,-0.154 0.155,-0.154 h 2.42 c 0.093,0 0.155,0.062 0.155,0.154 v 7.779 c 0,0.061 0.03,0.092 0.093,0.092 h 4.466 c 0.093,0 0.155,0.061 0.155,0.153 v 2.082 c 0,0.092 -0.062,0.154 -0.155,0.154 h -7.134 c -0.093,0 -0.155,-0.06 -0.155,-0.153 z m -6.968,-1.976 c 0,0.062 0.03,0.092 0.093,0.092 h 1.24 c 0.853,0 1.287,-0.413 1.287,-1.179 0,-0.72 -0.434,-1.164 -1.287,-1.164 h -1.24 c -0.063,0 -0.093,0.03 -0.093,0.092 v 2.16 z m 0.093,-4.104 h 1.1 c 0.823,0 1.257,-0.353 1.257,-1.072 0,-0.735 -0.419,-1.072 -1.256,-1.072 h -1.101 c -0.063,0 -0.093,0.03 -0.093,0.092 v 1.96 c 0,0.062 0.03,0.092 0.093,0.092 z m -2.823,6.08 V 29.556 c 0,-0.092 0.062,-0.154 0.155,-0.154 h 4.296 c 2.357,0 3.442,1.118 3.442,2.772 0,1.072 -0.497,1.823 -1.287,2.236 v 0.03 c 0.776,0.292 1.473,1.164 1.473,2.374 0,2.037 -1.458,3.002 -3.676,3.002 h -4.249 c -0.092,0 -0.154,-0.06 -0.154,-0.153 z M 46.583,40 c -2.558,0 -4.202,-1.44 -4.202,-4.21 v -6.233 c 0,-0.092 0.062,-0.154 0.155,-0.154 h 2.42 c 0.092,0 0.154,0.062 0.154,0.154 v 6.4 c 0,1.042 0.59,1.64 1.473,1.64 0.915,0 1.458,-0.598 1.458,-1.64 v -6.4 c 0,-0.092 0.063,-0.154 0.156,-0.154 h 2.419 c 0.093,0 0.155,0.062 0.155,0.154 v 6.232 c 0,2.773 -1.675,4.211 -4.188,4.211 z m -9.62,-5.941 c 0.853,0 1.334,-0.475 1.334,-1.195 0,-0.72 -0.481,-1.179 -1.334,-1.179 h -1.395 c -0.063,0 -0.093,0.03 -0.093,0.092 v 2.19 c 0,0.061 0.03,0.092 0.093,0.092 z m -1.644,5.758 H 32.9 c -0.092,0 -0.154,-0.062 -0.154,-0.154 V 29.556 c 0,-0.092 0.062,-0.154 0.155,-0.154 h 4.218 c 2.574,0 3.908,1.44 3.908,3.461 0,1.99 -1.35,3.476 -3.909,3.476 h -1.55 c -0.063,0 -0.093,0.03 -0.093,0.092 v 3.231 c 0,0.093 -0.062,0.154 -0.155,0.154 z M 23.931,39.664 V 29.556 c 0,-0.092 0.062,-0.154 0.155,-0.154 h 6.901 c 0.093,0 0.155,0.062 0.155,0.154 v 1.975 c 0,0.092 -0.062,0.153 -0.155,0.153 h -4.233 c -0.063,0 -0.093,0.03 -0.093,0.092 v 1.577 c 0,0.062 0.03,0.092 0.093,0.092 h 3.473 c 0.093,0 0.156,0.062 0.156,0.154 v 1.929 c 0,0.091 -0.063,0.153 -0.156,0.153 h -3.473 c -0.063,0 -0.093,0.03 -0.093,0.092 v 1.67 c 0,0.06 0.03,0.091 0.093,0.091 h 4.233 c 0.093,0 0.155,0.062 0.155,0.153 v 1.975 c 0,0.092 -0.062,0.154 -0.155,0.154 h -6.901 c -0.093,0 -0.155,-0.06 -0.155,-0.153 z M 18.28,33.89 c 0.775,0 1.24,-0.43 1.24,-1.103 0,-0.674 -0.465,-1.103 -1.24,-1.103 h -1.458 c -0.062,0 -0.093,0.03 -0.093,0.092 v 2.02 c 0,0.062 0.03,0.093 0.093,0.093 h 1.458 z m 4.063,5.926 H 19.66 c -0.14,0 -0.186,-0.046 -0.233,-0.154 L 17.83,36.11 h -1.008 c -0.062,0 -0.093,0.03 -0.093,0.092 v 3.46 c 0,0.092 -0.062,0.154 -0.155,0.154 H 14.155 C 14.062,39.816 14,39.754 14,39.662 V 29.556 c 0,-0.092 0.062,-0.154 0.155,-0.154 h 4.296 c 2.42,0 3.8,1.394 3.8,3.354 0,1.302 -0.621,2.358 -1.738,2.91 l 1.939,3.966 c 0.045,0.092 -0.001,0.184 -0.109,0.184 z M 54.159,27.164 V 17.057 c 0,-0.092 0.062,-0.154 0.155,-0.154 h 6.901 c 0.093,0 0.155,0.062 0.155,0.154 v 1.975 c 0,0.092 -0.062,0.153 -0.155,0.153 h -4.233 c -0.063,0 -0.093,0.03 -0.093,0.092 v 1.577 c 0,0.062 0.03,0.092 0.093,0.092 h 3.473 c 0.093,0 0.156,0.062 0.156,0.154 v 1.93 c 0,0.091 -0.063,0.153 -0.156,0.153 h -3.473 c -0.063,0 -0.093,0.03 -0.093,0.092 v 1.67 c 0,0.06 0.03,0.09 0.093,0.09 h 4.233 c 0.093,0 0.155,0.063 0.155,0.154 v 1.975 c 0,0.092 -0.062,0.154 -0.155,0.154 h -6.901 c -0.093,-0.001 -0.155,-0.062 -0.155,-0.154 z m -7.233,-2.327 c 0,0.061 0.031,0.091 0.093,0.091 h 0.822 c 0.962,0 1.489,-0.26 1.737,-0.995 0.093,-0.307 0.155,-0.658 0.155,-1.822 0,-1.164 -0.062,-1.517 -0.155,-1.823 -0.248,-0.736 -0.775,-0.995 -1.737,-0.995 h -0.822 c -0.062,0 -0.093,0.03 -0.093,0.091 z m -2.729,2.327 V 17.057 c 0,-0.092 0.063,-0.154 0.156,-0.154 h 4.078 c 1.86,0 3.225,0.766 3.753,2.374 0.217,0.674 0.31,1.256 0.31,2.833 0,1.561 -0.093,2.16 -0.31,2.832 -0.528,1.608 -1.893,2.374 -3.753,2.374 h -4.078 c -0.093,0 -0.156,-0.06 -0.156,-0.152 z M 36.92,23.32 h 2.046 l -0.977,-3.247 h -0.047 z m -4.048,3.844 3.644,-10.106 c 0.03,-0.092 0.093,-0.154 0.202,-0.154 h 2.528 c 0.109,0 0.171,0.062 0.202,0.154 l 3.566,10.106 c 0.031,0.092 -0.015,0.154 -0.108,0.154 h -2.56 c -0.108,0 -0.17,-0.062 -0.201,-0.154 L 39.649,25.556 H 36.22 l -0.496,1.608 c -0.031,0.092 -0.093,0.154 -0.202,0.154 h -2.543 c -0.093,-0.001 -0.14,-0.062 -0.108,-0.154 z m -4.953,-5.773 c 0.775,0 1.24,-0.43 1.24,-1.103 0,-0.674 -0.465,-1.103 -1.24,-1.103 H 26.46 c -0.063,0 -0.093,0.03 -0.093,0.092 v 2.02 c 0,0.062 0.03,0.093 0.093,0.093 h 1.458 z m 4.063,5.926 h -2.683 c -0.14,0 -0.186,-0.046 -0.232,-0.154 l -1.598,-3.552 h -1.007 c -0.063,0 -0.093,0.03 -0.093,0.092 v 3.46 c 0,0.092 -0.063,0.154 -0.156,0.154 h -2.42 c -0.093,0 -0.155,-0.062 -0.155,-0.154 V 17.057 c 0,-0.092 0.062,-0.154 0.155,-0.154 h 4.296 c 2.42,0 3.799,1.394 3.799,3.355 0,1.302 -0.62,2.358 -1.737,2.91 l 1.939,3.966 c 0.046,0.09 0,0.183 -0.11,0.183 z m -12.552,0 h -2.42 c -0.092,0 -0.155,-0.062 -0.155,-0.154 v -7.779 c 0,-0.061 -0.03,-0.091 -0.093,-0.091 h -2.591 c -0.092,0 -0.154,-0.062 -0.154,-0.154 v -2.082 c 0,-0.092 0.062,-0.154 0.155,-0.154 h 8.095 c 0.093,0 0.155,0.062 0.155,0.154 v 2.082 c 0,0.092 -0.062,0.154 -0.155,0.154 h -2.59 c -0.062,0 -0.093,0.03 -0.093,0.091 v 7.78 c 0,0.092 -0.062,0.153 -0.155,0.153 z M 86.356,16.094 a 0.508,0.508 0 0 0 0.393,-0.493 H 86.747 V 10.507 A 0.512,0.512 0 0 0 86.115,10.014 L 78.77,11.753 A 1.27,1.27 0 0 1 78.087,11.725 L 74.773,10.65 a 1.267,1.267 0 0 0 -0.685,-0.027 l -7.528,1.794 a 0.507,0.507 0 0 0 -0.393,0.492 v 5.093 a 0.513,0.513 0 0 0 0.634,0.493 l 7.287,-1.736 c 0.226,-0.054 0.464,-0.045 0.685,0.027 l 3.314,1.076 c 0.22,0.07 0.457,0.08 0.683,0.027 l 7.585,-1.795 z m 0,7.6 a 0.507,0.507 0 0 0 0.393,-0.493 H 86.747 V 18.108 A 0.512,0.512 0 0 0 86.115,17.615 L 78.77,19.352 A 1.27,1.27 0 0 1 78.087,19.325 L 74.773,18.25 a 1.267,1.267 0 0 0 -0.685,-0.027 l -7.527,1.794 a 0.507,0.507 0 0 0 -0.393,0.493 v 5.092 a 0.513,0.513 0 0 0 0.634,0.493 l 7.287,-1.736 c 0.226,-0.054 0.464,-0.045 0.685,0.027 l 3.314,1.076 c 0.22,0.071 0.457,0.08 0.683,0.027 z"
     id="path824" />
</svg>
